<?xml version="1.0" standalone="no"?>
<!DOCTYPE svg PUBLIC "-//W3C//DTD SVG 1.1//EN" "http://www.w3.org/Graphics/SVG/1.1/DTD/svg11.dtd" >
<svg xmlns="http://www.w3.org/2000/svg" xmlns:xlink="http://www.w3.org/1999/xlink" version="1.1">
<metadata>
Created by FontForge 20170910 at Mon Jun  9 10:41:07 2014
 By Jimmy Wärting
Copyright (c) 2014 by Brightside. All rights reserved.
</metadata>
<defs>
<font id="RSUTEXT-Bold" horiz-adv-x="0" >
  <font-face 
    font-family="RSU TEXT "
    font-weight="700"
    font-stretch="normal"
    units-per-em="4096"
    panose-1="2 0 5 6 6 0 0 2 0 4"
    ascent="3276"
    descent="-820"
    x-height="1144"
    cap-height="1539"
    bbox="-1561 -1533 4027 3162"
    underline-thickness="143"
    underline-position="-545"
    unicode-range="U+0020-F882"
  />
<missing-glyph horiz-adv-x="1696" 
d="M728 676v203h75q42 0 59.5 -19t17.5 -47q0 -8 -1 -14.5t-3 -11.5q6 -7 9.5 -16.5t3.5 -23.5q0 -20 -6.5 -34t-17 -22t-24 -11.5t-28.5 -3.5h-85zM775 739l-2 49q4 0 8.5 -1t9.5 -5q13 -10 13 -29v-4h4q3 0 3 -2q0 -5 -8 -5zM788 806h-9l4 4l-4 5h9l16 16v-41zM803 582
q-41 0 -76.5 15t-61.5 41.5t-41.5 61.5t-15.5 76t15.5 77t41.5 62.5t61.5 41.5t76.5 15q40 0 76 -15t63 -41.5t42.5 -62.5t15.5 -77t-15.5 -76t-42.5 -61.5t-63 -41.5t-76 -15zM803 878q-21 0 -39 -8t-31.5 -22t-21.5 -32.5t-8 -39.5t8 -39t21.5 -32t31.5 -22t39 -8t39.5 8
t32 22t21.5 32t8 39t-8 39.5t-21.5 32.5t-32 22t-39.5 8z" />
    <glyph glyph-name="ellipsis" unicode="&#x2e;&#x2e;&#x2e;" horiz-adv-x="2048" 
d="M245 0v260h260v-260h-260zM1524 0v260h260v-260h-260zM884 0v260h260v-260h-260z" />
    <glyph glyph-name="dochadaphinthuthai" unicode="&#xe0e;&#xe3a;" horiz-adv-x="1499" 
d="M1254 1048q41 -103 41 -215v-1025l-333 -338l-133 138l-52 -51l1 2q-11 -14 -27.5 -24t-35.5 -17t-38.5 -10.5t-37.5 -3.5q-42 0 -80 16.5t-66.5 44.5t-45 65.5t-16.5 80.5q0 87 60 147q61 60 148 60q45 0 82.5 -18.5t67.5 -48.5l40 -39q23 25 50.5 53t48.5 49l104 -104
l-103 -99l33 -33l170 170v985q0 41 -6 81.5t-21 75.5q-14 36 -35.5 69t-44.5 58q-53 54 -123 85t-148 31q-65 0 -122.5 -19t-106.5 -59q-45 -36 -78 -87t-52 -102l89 -65q31 -24 31 -64v-476q0 -45 -17.5 -85t-47.5 -69.5t-70.5 -46.5t-87.5 -17q-43 0 -82.5 17t-69.5 46.5
t-48 69t-18 85.5q0 44 17 84.5t47 71t69.5 49t84.5 18.5q28 0 60 -9v220l-95 67l1 -1q-20 14 -28.5 34.5t-1.5 48.5q14 60 37 111.5t49 92.5t51.5 70t45.5 46q18 15 48 36.5t72.5 41.5t98 34.5t124.5 14.5q111 0 211 -42t176 -122q35 -38 64 -83t49 -96zM292 287q31 0 55 21
t24 53q0 16 -6.5 30.5t-17.5 25t-25 16.5t-30 6q-32 0 -53 -23t-21 -55q0 -30 21 -52t53 -22zM726 -290l-44 44q-20 21 -43 21q-26 0 -45 -19t-19 -45q0 -28 18 -45.5t46 -17.5q11 0 22.5 4t24.5 15zM1294 -635q0 -33 -23 -54q-23 -24 -54 -24q-32 0 -55 23q-22 21 -22 55
q0 31 23 53q23 23 54 23q32 0 55 -23q22 -22 22 -53z" />
    <glyph glyph-name="topatakphintuthai" unicode="&#xe0f;&#xe3a;" horiz-adv-x="1499" 
d="M1256 1050q41 -103 41 -215v-1091l-272 -266l-98 94l-101 -100l-132 138l-51 -51q-12 -12 -28.5 -21.5t-35.5 -16.5t-39 -11t-37 -4q-43 0 -80.5 16t-65.5 44t-44.5 66t-16.5 81t16 81t44 66t66 44t81 16q42 0 79.5 -17.5t67.5 -45.5l44 -43q23 25 50.5 53t47.5 49
l105 -104l-104 -99l34 -34q24 23 52 50.5t48 47.5l97 -98l109 104v1052q0 41 -5.5 81.5t-20.5 75.5q-29 71 -79 125t-121 86q-35 17 -74.5 24.5t-76.5 7.5q-65 0 -122.5 -19.5t-106.5 -58.5q-47 -38 -79.5 -87.5t-52.5 -101.5q22 -15 44.5 -32.5t45.5 -32.5q17 -13 24 -29.5
t7 -34.5v-476q0 -43 -16.5 -82.5t-46 -70t-70 -48.5t-89.5 -18q-43 0 -82.5 17t-69.5 46.5t-48 69.5t-18 86q0 44 17 84.5t46.5 71t69.5 49t85 18.5q28 0 60 -9v220l-95 67l1 -1q-43 27 -32 82q14 58 37 108.5t49.5 92t52.5 72t46 48.5q18 15 49 37t74.5 42t98.5 34t121 14
q25 0 53 -3.5t56.5 -9.5t56 -14t50.5 -17q97 -45 170 -122t114 -176v-1zM294 289q31 0 54.5 21t23.5 53q0 15 -6 29.5t-16.5 25t-25 17t-30.5 6.5q-32 0 -53 -23t-21 -55q0 -31 21 -52.5t53 -21.5zM591 -288l-45 44q-19 20 -43 20q-26 0 -44.5 -18.5t-18.5 -44.5
q0 -28 17.5 -45.5t45.5 -17.5q12 0 23 4t24 15zM1295 -634q0 -31 -24 -53q-23 -24 -53 -24q-32 0 -55 23q-12 11 -17.5 25t-5.5 29q0 31 24 54q23 23 54 23t53 -22q24 -24 24 -55z" />
    <glyph glyph-name="dochadasarauthai" unicode="&#xe0e;&#xe38;" horiz-adv-x="1499" 
d="M1256 1050q41 -103 41 -215v-1025l-333 -338l-133 138l-52 -51q-12 -12 -28.5 -21.5t-35.5 -16.5t-38.5 -11t-36.5 -4q-42 0 -80 16.5t-66 44.5t-44.5 65.5t-16.5 80.5t16.5 80.5t44.5 65.5t65.5 44.5t80.5 16.5q45 0 83 -18.5t68 -48.5l40 -39q23 25 50.5 53t48.5 49
l103 -104l-102 -99l33 -33l170 170v985q0 41 -6 81.5t-21 75.5q-21 54 -56.5 99t-82 77t-101 49.5t-111.5 17.5q-65 0 -122.5 -19.5t-106.5 -58.5q-47 -37 -79 -86.5t-52 -102.5l90 -65q31 -24 31 -64v-476q0 -43 -16.5 -82.5t-46 -70t-70.5 -48.5t-90 -18q-45 0 -84.5 17.5
t-69 47t-47 69.5t-17.5 85q0 44 17 84.5t46.5 71t69.5 49t85 18.5q28 0 60 -9v220l-95 67l1 -1q-20 14 -28.5 34.5t-1.5 48.5q14 60 37 111.5t49 92.5t51.5 70t45.5 46q18 15 47.5 36.5t72.5 41.5t98.5 34.5t124.5 14.5q85 0 161.5 -24.5t141 -69t115 -108t82.5 -141.5z
M294 289q31 0 54.5 21t23.5 53t-23 55t-55 23t-53 -23t-21 -55t21 -53t53 -21zM728 -288l-44 44q-19 20 -44 20q-26 0 -44.5 -18.5t-18.5 -44.5q0 -27 18 -45t45 -18q12 0 23.5 4t24.5 15zM1077 -559q45 0 85.5 -17t70.5 -46t47.5 -68.5t17.5 -85.5v-542h-162v330
q-32 -9 -59 -9q-45 0 -85 17.5t-69.5 47.5t-46.5 70.5t-17 85.5t17.5 84.5t47 69t69 46.5t84.5 17zM1077 -853q32 0 54.5 22.5t22.5 54.5t-22.5 53t-54.5 21t-53 -21t-21 -53t21 -54.5t53 -22.5z" />
    <glyph glyph-name="topataksarauthai" unicode="&#xe0f;&#xe38;" horiz-adv-x="1499" 
d="M1257 1048q20 -51 30.5 -104.5t10.5 -110.5v-1091l-272 -266l-98 94l-101 -100l-132 138l-52 -51l1 2q-11 -14 -27.5 -24t-35.5 -17t-39 -10.5t-38 -3.5q-42 0 -80 16.5t-66.5 44.5t-45 65.5t-16.5 80.5t16.5 81t44.5 66t66 44t81 16q42 0 80.5 -17.5t66.5 -45.5h-1
q7 -8 12 -13l9.5 -9.5l9.5 -9.5t13 -12q23 24 51 53t48 50l105 -104l-104 -99l34 -34l25 25l26 26t25.5 25t23.5 22l97 -98l109 104v1052q0 41 -5.5 81.5t-20.5 75.5q-29 75 -81 127q-53 56 -122.5 86t-147.5 30q-65 0 -123 -19t-106 -59q-47 -38 -79.5 -87.5t-52.5 -101.5
q22 -15 44.5 -32t45.5 -33q17 -13 24 -29.5t7 -34.5v-476q0 -43 -16.5 -82.5t-46 -69.5t-70 -48t-89.5 -18q-45 0 -84.5 17t-69.5 47t-47 69.5t-17 84.5t17 85t46.5 71t69.5 49t85 18q28 0 60 -9v220l-95 66q-20 14 -28 35t-2 48q15 55 38 106t49 93t51.5 73t45.5 48
q18 15 49 37t74.5 42t98.5 34t121 14q54 0 107 -11.5t103 -32.5t95 -51.5t81 -68.5q70 -76 114 -178v-1zM295 287q31 0 54.5 21t23.5 53t-23 55t-55 23t-53.5 -23t-21.5 -55t21.5 -53t53.5 -21zM591 -290l-44 44q-20 21 -43 21q-26 0 -44.5 -19t-18.5 -45q0 -28 17.5 -45.5
t45.5 -17.5q12 0 23 4t24 15zM1077 -559q45 0 85.5 -17t70.5 -46t47.5 -68.5t17.5 -85.5v-542h-162v330q-32 -9 -59 -9q-45 0 -85 17.5t-69.5 47.5t-46.5 70.5t-17 85.5t17.5 84.5t47 69t69 46.5t84.5 17zM1077 -853q32 0 54.5 22.5t22.5 54.5t-22.5 53t-54.5 21t-53 -21
t-21 -53t21 -54.5t53 -22.5z" />
    <glyph glyph-name="fongmanfunnuthai" unicode="&#xe4f;&#x22;" horiz-adv-x="1677" 
d="M1544 717q0 -143 -52.5 -275t-152.5 -232q-49 -49 -107.5 -88t-124 -66t-135.5 -41t-141 -14q-144 0 -274.5 55.5t-230.5 153.5q-101 100 -154.5 232t-53.5 275q0 72 13.5 142t40 135t65.5 124t89 109q101 97 230.5 153t274.5 56q71 0 141 -14.5t135 -41.5t124 -65.5
t108 -87.5q101 -101 153 -233t52 -277zM1382 715q0 54 -11 107t-31.5 103.5t-50.5 95.5t-68 83q-77 77 -179 119t-211 42q-112 0 -211.5 -42t-176.5 -119q-38 -38 -68.5 -83.5t-51.5 -95.5t-32 -103t-11 -107q0 -112 42.5 -212t120.5 -178q77 -78 176.5 -119.5t211.5 -41.5
q109 0 210.5 41.5t179.5 119.5q77 79 119 178.5t42 211.5zM1200 717q0 -74 -30 -140.5t-80.5 -117t-117.5 -80.5t-141 -30q-76 0 -142 30t-114.5 80.5t-76.5 117t-28 140.5q0 77 27.5 143.5t76 116t114.5 78t143 28.5q76 0 143.5 -28t117.5 -77.5t79 -116t29 -144.5z
M1041 717q0 43 -17 80.5t-45.5 65t-66.5 43t-81 15.5q-41 0 -78 -16t-64.5 -43.5t-43.5 -64.5t-16 -80q0 -41 16 -77.5t44 -64t64.5 -43.5t77.5 -16q42 0 80 15.5t67 42.5t46 64t17 79zM791 1512h-162l-28 447h217zM1034 1512h-157l-28 447h214z" />
    <glyph glyph-name="lessequal" unicode="&#x3c;&#x3d;" horiz-adv-x="1279" 
d="M334 769q212 -100 427 -202t426 -201v-195l-1106 523v149l1106 523v-191zM80 378l1104 -523v180q-129 60 -269 125.5t-282.5 132.5t-283 133t-269.5 126v-174z" />
    <glyph glyph-name="greaterequal" unicode="&#x3e;&#x3d;" horiz-adv-x="1270" 
d="M77 1176v191l1106 -523v-149l-1106 -523v195l853 403zM1183 551l-1104 -514v-197q127 60 267.5 127t284 134.5t284 134t268.5 126.5v189z" />
    <glyph glyph-name="plusminus" unicode="&#x2b;&#x2d;" horiz-adv-x="1288" 
d="M88 67v186h1102v-186h-1102zM1189 815h-456v-456h-189v456h-455v188h455v456h189v-456h456v-188z" />
    <glyph glyph-name="dochadasarauuthai" unicode="&#xe0e;&#xe39;" horiz-adv-x="1499" 
d="M1143 1229q75 -78 114.5 -180.5t39.5 -213.5v-1025l-333 -338l-133 138l-52 -52q-26 -24 -62 -38t-76 -14q-41 0 -78.5 16t-66 43.5t-45.5 65.5t-17 82q0 88 60 147h-1q60 60 148 60q41 0 80.5 -18.5t69.5 -48.5l40 -39q23 25 50.5 53t48.5 49l103 -104l-102 -99l33 -33
l170 170v985q0 76 -25 150t-82 134q-53 54 -123 85t-148 31q-65 0 -122.5 -19.5t-106.5 -58.5q-47 -37 -79 -86.5t-52 -102.5l90 -65q31 -24 31 -64v-476q0 -45 -17.5 -85t-47.5 -69.5t-71 -47t-87 -17.5q-43 0 -82.5 17t-69.5 47t-48 70t-18 85q0 44 17 84.5t47 71t69.5 49
t84.5 18.5q28 0 60 -9v220l-95 67l1 -1q-20 14 -28.5 34.5t-1.5 48.5q14 60 37 111.5t49 92.5t51.5 70t45.5 46q18 15 48 36.5t72.5 41.5t98 34.5t124.5 14.5q111 0 211 -42t176 -122zM295 289q15 0 29 5.5t25 15.5t17.5 23.5t6.5 29.5t-6.5 30t-17 24.5t-25 17t-30.5 6.5
q-32 0 -53 -23t-21 -55t21.5 -52t53.5 -22zM729 -288l-45 44q-19 20 -43 20q-25 0 -44.5 -18.5t-19.5 -44.5t18 -44.5t46 -18.5q11 0 22.5 4t24.5 15zM1297 -559v-760h-474v328q-13 -3 -27.5 -5t-27.5 -2q-44 0 -83.5 17t-70.5 46.5t-49 69t-18 84.5t17.5 85.5t48 71
t70.5 48t85 17.5t84.5 -17.5t69.5 -48t47 -71t17 -85.5v-376h147v598h164zM768 -854q32 0 52.5 20.5t20.5 52.5t-20.5 55t-52.5 23q-16 0 -30 -6t-24.5 -16.5t-17 -25t-6.5 -30.5q0 -31 23 -52t55 -21z" />
    <glyph glyph-name="topataksarauuthai" unicode="&#xe0f;&#xe39;" horiz-adv-x="1499" 
d="M1143 1229q75 -78 114 -180.5t39 -213.5v-1091l-271 -266l-98 94l-101 -100l-132 138l-51 -51q-25 -25 -63.5 -39t-76.5 -14q-41 0 -78.5 16t-66 43.5t-45.5 65.5t-17 82q0 42 16 79.5t43.5 66t65.5 45t82 16.5q40 0 79 -17t68 -46h-1q7 -8 12 -13l9.5 -9.5l9.5 -9.5
t13 -12q23 24 51 53t48 50l104 -104l-103 -99l34 -34q24 23 52 50.5t48 47.5l97 -98q29 26 55 51t55 53v1052q0 81 -26.5 154t-80.5 130q-52 55 -123 85.5t-149 30.5q-64 0 -121.5 -19.5t-106.5 -58.5q-47 -37 -79 -86.5t-52 -102.5l90 -65q14 -12 22.5 -29t8.5 -35v-476
q0 -44 -17.5 -83.5t-47.5 -69.5t-71 -48t-87 -18q-44 0 -83.5 17t-69.5 46.5t-47.5 69.5t-17.5 86q0 45 17 85t46.5 71t69.5 49t85 18q15 0 29 -2t30 -7v220l-94 67l1 -1q-20 14 -28.5 34.5t-1.5 48.5q14 60 37 111.5t49 92.5t51.5 70t45.5 46q18 15 47.5 36.5t72.5 41.5
t98 34.5t124 14.5q109 0 209.5 -41.5t178.5 -122.5zM294 289q31 0 54.5 21t23.5 53q0 15 -6 29.5t-16.5 25t-25 17t-30.5 6.5q-32 0 -53.5 -23t-21.5 -55q0 -30 21.5 -52t53.5 -22zM591 -288l-44 44q-20 20 -44 20q-25 0 -44 -18.5t-19 -44.5t17.5 -44.5t45.5 -18.5
q12 0 23 4t24 15zM1297 -559v-760h-474v328q-13 -3 -27.5 -5t-27.5 -2q-44 0 -83.5 17t-70.5 46.5t-49 69t-18 84.5t17.5 85.5t48 71t70.5 48t85 17.5t84.5 -17.5t69.5 -48t47 -71t17 -85.5v-376h147v598h164zM768 -854q32 0 52.5 20.5t20.5 52.5t-20.5 55t-52.5 23
q-16 0 -30 -6t-24.5 -16.5t-17 -25t-6.5 -30.5q0 -31 23 -52t55 -21z" />
    <glyph glyph-name=".notdef" horiz-adv-x="1696" 
d="M728 676v203h75q42 0 59.5 -19t17.5 -47q0 -8 -1 -14.5t-3 -11.5q6 -7 9.5 -16.5t3.5 -23.5q0 -20 -6.5 -34t-17 -22t-24 -11.5t-28.5 -3.5h-85zM775 739l-2 49q4 0 8.5 -1t9.5 -5q13 -10 13 -29v-4h4q3 0 3 -2q0 -5 -8 -5zM788 806h-9l4 4l-4 5h9l16 16v-41zM803 582
q-41 0 -76.5 15t-61.5 41.5t-41.5 61.5t-15.5 76t15.5 77t41.5 62.5t61.5 41.5t76.5 15q40 0 76 -15t63 -41.5t42.5 -62.5t15.5 -77t-15.5 -76t-42.5 -61.5t-63 -41.5t-76 -15zM803 878q-21 0 -39 -8t-31.5 -22t-21.5 -32.5t-8 -39.5t8 -39t21.5 -32t31.5 -22t39 -8t39.5 8
t32 22t21.5 32t8 39t-8 39.5t-21.5 32.5t-32 22t-39.5 8z" />
    <glyph glyph-name=".null" 
 />
    <glyph glyph-name="nonmarkingreturn" horiz-adv-x="1159" 
 />
    <glyph glyph-name="space" unicode=" " horiz-adv-x="1024" 
 />
    <glyph glyph-name="yoyingnobasethai" unicode="&#xf70f;" horiz-adv-x="1864" 
d="M1681 1390v-1390h-742v877q0 36 -7.5 71.5t-20.5 67.5q-21 48 -56 89t-79 70.5t-94.5 46t-103.5 16.5q-60 0 -116.5 -20.5t-103.5 -57t-81 -86.5t-49 -108q24 -17 46 -33.5t46 -33.5q17 -12 24.5 -28.5t7.5 -35.5v-412q13 3 26.5 4t29.5 1q45 0 85 -17t70.5 -46.5
t48 -69.5t17.5 -85q0 -47 -17 -87.5t-47 -70.5t-70.5 -47t-86.5 -17q-45 0 -85 17.5t-70 47.5t-47 70.5t-17 86.5v581l-99 77q-20 14 -29 33t-3 43q5 46 19.5 91.5t37.5 87.5q46 83 115.5 144.5t158.5 96.5h-1q89 37 190 37q107 0 202 -42q94 -42 166 -113.5t114 -166.5
q20 -46 30.5 -98.5t10.5 -103.5v-715h417v1228h163zM408 284q-32 0 -53 -21t-21 -53t20.5 -54.5t53.5 -22.5q32 0 54.5 22.5t22.5 54.5t-23 53t-54 21z" />
    <glyph glyph-name="quoteleft" unicode="&#x2018;" horiz-adv-x="568" 
d="M204 1082l-29 457h218l-29 -457h-160z" />
    <glyph glyph-name="quoteright" unicode="&#x2019;" horiz-adv-x="576" 
d="M364 1082h-160l-29 457h218z" />
    <glyph glyph-name="quotedblleft" unicode="&#x201c;" horiz-adv-x="806" 
d="M360 1082h-161l-28 457h218zM604 1082h-156l-29 457h213z" />
    <glyph glyph-name="quotedblright" unicode="&#x201d;" horiz-adv-x="809" 
d="M360 1082h-161l-28 457h218zM604 1082h-156l-29 457h213z" />
    <glyph glyph-name="bullet" unicode="&#x2022;" horiz-adv-x="1283" 
d="M1048 651q0 -85 -33 -160.5t-89.5 -132.5t-131.5 -90t-160 -33t-160.5 33t-132 90t-89.5 132.5t-33 160.5q0 84 33 159.5t89.5 131.5t132 89t160.5 33q84 0 159.5 -33t132 -89t89.5 -131t33 -160z" />
    <glyph glyph-name="endash" unicode="&#x2013;" horiz-adv-x="1942" 
d="M37 539v183h1852v-183h-1852z" />
    <glyph glyph-name="emdash" unicode="&#x2014;" horiz-adv-x="4121" 
d="M46 539v183h3981v-183h-3981z" />
    <glyph glyph-name="uni00A0" unicode="&#xa0;" horiz-adv-x="1024" 
 />
    <glyph glyph-name="kokaithai" unicode="&#xe01;" horiz-adv-x="1368" 
d="M1140 1057q41 -105 41 -218v-839h-164v839q0 42 -5.5 82t-21.5 76q-58 147 -201 213q-35 17 -74.5 24.5t-77.5 7.5q-66 0 -124 -19t-107 -59q-47 -38 -79.5 -87.5t-52.5 -102.5l90 -66q32 -26 32 -65v-843h-164v800l-96 69l1 -1q-20 14 -28.5 34.5t-1.5 48.5
q14 61 37 112.5t49 93t52.5 71t46.5 46.5q18 15 48 36.5t73 41.5t99 34.5t125 14.5q112 0 212.5 -42t176.5 -123q36 -38 64.5 -83t49.5 -96z" />
    <glyph glyph-name="khokhaithai" unicode="&#xe02;" horiz-adv-x="1339" 
d="M1153 0h-590v1056q0 38 -14.5 71.5t-39 58t-58 39t-71.5 14.5q-28 0 -51 -10q56 -14 102 -57q60 -65 60 -154q0 -46 -16 -86.5t-44.5 -70.5t-68 -47t-85.5 -17q-53 0 -95.5 22t-71.5 58.5t-43.5 83.5t-11.5 97q5 72 32.5 136t83.5 118q49 45 106 67.5t129 22.5
q67 0 125.5 -31t101.5 -80.5t68 -111t25 -123.5v-896q75 -1 134 -1h49h42.5h29.5t10 1v1231h162v-1391zM277 1092q-34 0 -55.5 -22t-21.5 -52q0 -32 21.5 -52.5t55.5 -20.5q32 0 53 21.5t21 51.5q0 28 -21 51t-53 23z" />
    <glyph glyph-name="khokhuatthai" unicode="&#xe03;" horiz-adv-x="1331" 
d="M1145 1385v-1385h-590v907l161 161q-21 124 -89 166q-11 -1 -37 -16l-121 -66q-51 29 -87.5 50t-59.5 29q-23 -11 -39.5 -29.5t-28.5 -42.5q6 1 10.5 1h9.5q45 0 85 -16t72 -48q64 -64 64 -158q0 -45 -17.5 -85t-48 -69.5t-70.5 -46.5t-85 -17t-84.5 17.5t-69.5 47
t-47.5 69t-17.5 84.5q0 176 55 288t161 163q18 10 60 10q24 0 58.5 -14t85.5 -43q33 17 62.5 28.5t54.5 19.5q14 4 25.5 6t23.5 2q30 0 53 -15l-1 1q62 -33 103 -92t62.5 -133t26.5 -152l-167 -171v-676q-3 0 16.5 0.5t49.5 0.5h65.5h65.5t49.5 -0.5t17.5 -0.5v1225h163z
M274 1015q-32 0 -53.5 -22.5t-21.5 -54.5t21.5 -53t53.5 -21q31 0 54 21t23 53t-22.5 54.5t-54.5 22.5z" />
    <glyph glyph-name="khokhwaithai" unicode="&#xe04;" horiz-adv-x="1446" 
d="M1217 1053q21 -52 31 -106.5t10 -111.5v-835h-162l-1 835q1 39 -7 78t-23 75t-36 69t-48 61q-50 55 -118 85.5t-143 30.5t-145 -31t-122 -85q-51 -55 -78 -130t-28 -153v-401l165 410q13 30 35 54t48.5 41t57 26t60.5 9q45 0 85.5 -17.5t70.5 -48t47.5 -71t17.5 -85.5
t-18 -84.5t-48.5 -69t-70.5 -46.5t-84 -17q-78 0 -132 42q-59 -143 -120.5 -289t-121.5 -288h-154v835q0 54 10.5 108.5t30.5 105.5t49 98t66 86q74 75 173.5 119.5t205.5 44.5q82 0 158 -25t141 -70t116 -108.5t82 -140.5zM713 830q-15 0 -29.5 -6t-25 -16.5t-17 -25
t-6.5 -30.5q0 -31 23 -52.5t55 -21.5q31 0 52.5 21.5t21.5 52.5q0 32 -21.5 55t-52.5 23z" />
    <glyph glyph-name="khokhonthai" unicode="&#xe05;" horiz-adv-x="1514" 
d="M1325 2h-164v864q0 292 -166 369q-8 1 -24.5 -3.5t-45.5 -16.5h1l-171 -73q-48 24 -85.5 41t-66.5 30q-21 9 -37.5 14.5t-23.5 5.5q-187 -71 -187 -367v-435q42 99 82 196t80 196q14 32 34.5 59t47 46.5t57 30.5t65.5 11q47 0 87.5 -17t70 -47t46.5 -70.5t17 -86.5
q0 -45 -17.5 -85t-47.5 -69t-70 -46t-86 -17q-38 0 -71.5 10t-60.5 32l-241 -572h-155v864q0 406 296 523h-1q11 5 23.5 7.5t26.5 2.5q36 0 86 -18l-1 1q71 -25 136 -61q35 15 70.5 29t75.5 28l-1 -1q52 20 93 20q17 0 32 -3.5t27 -8.5q269 -120 269 -519v-864zM721 827
q-32 0 -53 -23.5t-21 -54.5t21.5 -52.5t52.5 -21.5t54.5 21.5t23.5 52.5q0 32 -23.5 55t-54.5 23z" />
    <glyph glyph-name="khorakhangthai" unicode="&#xe06;" horiz-adv-x="1622" 
d="M1406 1388v-1388h-149q-119 96 -254 156.5t-286 88.5v-35q0 -41 -11 -76q-12 -32 -33.5 -58.5t-49 -45.5t-59 -30t-64.5 -11q-47 0 -87 17t-70 47t-47 70t-17 87q0 46 17 85.5t47 69t70.5 46.5t86.5 17h55v480l161 161q-11 63 -32 103.5t-55 62.5l-16.5 -5.5t-23.5 -10.5
l-121 -66l-40 25t-28 17t-21 11.5l-17 8.5l1 -1l-23 11l-17 8q-38 -23 -66 -72h16q93 0 157 -64t64 -158q0 -45 -17.5 -85t-47.5 -69.5t-70.5 -46.5t-85.5 -17t-84.5 17.5t-69 47t-47 69t-17.5 84.5q0 176 55 288t161 163q9 4 25.5 6.5t36.5 2.5q46 0 141 -57q38 18 66 29.5
t53 19.5q25 7 48 7q30 0 55 -13q119 -63 164 -224l7 -29q7 -29 13 -59t8 -65l-171 -171v-423q146 -23 275.5 -72.5t250.5 -130.5v1177h163zM273 1016q-33 0 -53.5 -22.5t-20.5 -54.5q0 -31 21.5 -52.5t52.5 -21.5q30 0 53.5 21.5t23.5 52.5q0 32 -22.5 54.5t-54.5 22.5z
M500 133q31 0 52 22.5t21 54.5t-21 53t-52 21q-32 0 -55 -21t-23 -53t23 -54.5t55 -22.5z" />
    <glyph glyph-name="ngonguthai" unicode="&#xe07;" horiz-adv-x="1073" 
d="M675 1402q45 0 84.5 -17.5t69 -47.5t47 -69.5t17.5 -83.5v-938q0 -50 -10 -87.5t-28 -63.5q-36 -52 -85 -74t-111 -20h-149l-405 988h170l351 -829h34q37 0 58 31q12 16 12 55v729q-30 -8 -55 -8q-45 0 -84.5 17t-69.5 46.5t-47 69t-17 84.5t17 84.5t47 69.5t69.5 47
t84.5 17zM675 1111q31 0 52 21t21 52q0 32 -21 53t-52 21q-32 0 -53 -21t-21 -53q0 -31 21 -52t53 -21z" />
    <glyph glyph-name="chochanthai" unicode="&#xe08;" horiz-adv-x="1359" 
d="M624 1397q118 0 221 -44q103 -45 180 -121t120 -179q44 -105 44 -221l-74 -832h-156l-239 566q-30 -23 -63 -33t-72 -10q-45 0 -85 17.5t-69 47.5t-46 70t-17 86q0 45 17 84.5t46.5 69t69 46.5t84.5 17q68 0 119.5 -34t80.5 -94l197 -476q11 121 23.5 239t23.5 239
q0 41 -9 80t-26 75q-32 72 -87.5 126.5t-128.5 85.5q-36 17 -74.5 24.5t-79.5 7.5q-79 0 -153.5 -32.5t-130.5 -84.5q-26 -27 -48.5 -62t-38 -75t-24.5 -83t-8 -87h-164q0 61 11 120.5t32 113.5t52 102t70 87q80 80 183 122t219 42zM585 666q16 0 30.5 6.5t25 17t16.5 24.5
t6 30q0 32 -23 53t-55 21q-31 0 -52 -21.5t-21 -52.5q0 -32 21 -55t52 -23z" />
    <glyph glyph-name="chochingthai" unicode="&#xe09;" horiz-adv-x="1355" 
d="M880 206l-1 -1q0 -2 1 0v1zM1182 409q31 -12 56 -33t43 -48t28 -58.5t10 -64.5q0 -45 -17 -85.5t-46.5 -70.5t-69 -47.5t-85.5 -17.5q-47 0 -87 17t-70 47t-47 70.5t-17 86.5v1q0 6 -0.5 3.5t-0.5 -4.5q-76 -35 -150.5 -87.5t-135.5 -117.5h-153v435q-13 -4 -26 -5
t-28 -1q-47 0 -87.5 17t-70.5 47t-47 70t-17 87q0 46 17.5 85.5t47.5 69t70.5 46.5t86.5 17q45 0 84.5 -17.5t69 -47.5t46.5 -69.5t17 -83.5v-420q93 70 197 116.5t219 69.5v419q0 80 -31 154t-89 129q-55 57 -129.5 88.5t-153.5 31.5q-81 0 -154 -31.5t-130 -88.5
q-55 -54 -87 -135t-32 -172h-162q-2 127 41 236.5t123 189.5q80 81 183 123t218 42q116 0 219 -42t183 -123q80 -80 122 -183t42 -219v-426zM386 572q31 0 52.5 23.5t21.5 54.5q0 32 -21 52.5t-53 20.5t-54.5 -20.5t-22.5 -52.5q0 -16 6 -30.5t16.5 -25t24.5 -16.5t30 -6z
M1101 128q31 0 53 23.5t22 53.5q0 32 -22 53.5t-53 21.5q-30 0 -55 -22q-23 -21 -23 -53q0 -16 6.5 -30t17.5 -24.5t25 -16.5t29 -6z" />
    <glyph glyph-name="chochangthai" unicode="&#xe0a;" horiz-adv-x="1312" 
d="M1158 0h-590v1053q0 72 -57 129q-51 54 -131 54q-23 0 -45 -11q27 -8 52 -22t45 -34q63 -63 63 -154q0 -44 -16.5 -84t-45.5 -70.5t-67.5 -48.5t-83.5 -18q-56 0 -98.5 22t-71 58t-41.5 83t-10 98q5 75 32.5 138.5t83.5 115.5q45 42 103.5 66.5t126.5 24.5
q63 0 113.5 -25.5t92.5 -63.5q56 -53 86.5 -118t30.5 -140v-898h265v769q0 39 -17.5 69t-48 51t-72 33t-89.5 15l396 389l99 -99l-213 -213l25 -22q50 -44 66.5 -102.5t16.5 -120.5v-924zM282 1089q-33 0 -55.5 -21t-22.5 -53q0 -33 22 -53.5t56 -20.5q32 0 51 21t19 53
t-19 53t-51 21z" />
    <glyph glyph-name="sosothai" unicode="&#xe0b;" horiz-adv-x="1312" 
d="M1261 1376l-215 -215q39 -30 68 -77q38 -58 38 -132v-952h-591v906l161 161q-21 126 -88 171q-12 -3 -40 -19l-118 -68q-23 15 -40 25.5t-29.5 18t-22 12.5t-18.5 10l1 -1q-13 7 -22 11t-17 6q-20 -11 -36 -29t-29 -42q5 1 8.5 1h8.5q45 0 84.5 -18.5t69 -49t46.5 -71
t17 -83.5q0 -44 -17 -83.5t-46.5 -69.5t-69 -47.5t-84.5 -17.5t-85.5 17t-71 46.5t-48 69t-17.5 85.5q0 176 54.5 287.5t160.5 159.5q10 5 25.5 7t38.5 2t59 -13.5t85 -42.5q109 57 171 57q26 0 48 -11q61 -34 103 -94v1q13 -17 28.5 -48.5t27.5 -65.5l299 299zM280 1018
q-16 0 -30 -6t-24.5 -16.5t-17 -24.5t-6.5 -30q0 -32 23 -53t55 -21q31 0 52.5 21t21.5 53t-21 54.5t-53 22.5zM989 952q0 33 -22 60q-20 23 -42 30l-201 -202v-682h265v794z" />
    <glyph glyph-name="chochoethai" unicode="&#xe0c;" horiz-adv-x="1873" 
d="M1681 1390v-1404h-148q-50 47 -106 86.5t-111 69.5q-103 53 -214 83v-29q0 -47 -17 -87.5t-47 -70.5t-70.5 -47t-86.5 -17t-85.5 17.5t-69 47.5t-46.5 70.5t-17 86.5q0 45 17 84.5t47 69t69.5 47t84.5 17.5h58v463q0 72 -27.5 137.5t-79.5 116.5q-50 52 -116 79.5
t-137 27.5q-61 0 -118 -20.5t-103.5 -56.5t-80 -85.5t-48.5 -108.5q23 -16 46 -33.5t45 -34.5q17 -14 24.5 -29.5t7.5 -34.5v-427q25 6 56 6q45 0 85.5 -17.5t70.5 -47t48 -69t18 -84.5q0 -46 -17.5 -86.5t-47.5 -70.5t-70.5 -47.5t-86.5 -17.5q-45 0 -85 17.5t-69.5 47.5
t-46.5 70.5t-17 86.5v596l-100 77q-20 14 -28 34t-3 43l-1 -1q12 92 58 178q47 83 115.5 144.5t157.5 97.5q90 36 190 36q103 0 199.5 -41t169.5 -114q72 -73 113 -168.5t41 -200.5v-484q65 -14 121 -33t111 -45h-1q49 -23 95 -49.5t90 -56.5v1181h163zM408 269
q-32 0 -53 -21t-21 -52q0 -32 21 -55t53 -23q16 0 30 6t24.5 16.5t16.5 25t6 30.5q0 32 -22.5 52.5t-54.5 20.5zM881 118q16 0 30 6t24.5 16.5t17 25t6.5 30.5q0 32 -23.5 52.5t-54.5 20.5t-52.5 -20.5t-21.5 -52.5t21.5 -55t52.5 -23z" />
    <glyph glyph-name="dochadathai" unicode="&#xe0e;" horiz-adv-x="1499" 
d="M1261 1058q21 -52 31 -106.5t10 -111.5v-1199l-335 -339l-133 139l-54 -53q-25 -22 -64 -36.5t-74 -14.5q-44 0 -82 16t-66.5 44.5t-44.5 66t-16 81.5q0 43 16 81t44.5 66.5t66.5 44.5t82 16q45 0 83 -18.5t68 -49.5l41 -40l99 104l103 -104l-102 -100l33 -33l171 171
v1157q0 80 -28 154.5t-79 131.5q-54 55 -124.5 86t-148.5 31q-66 0 -123.5 -19t-107.5 -59q-47 -38 -79.5 -87.5t-52.5 -102.5l91 -66q31 -27 31 -65v-644q0 -48 -17.5 -88.5t-48 -70t-71.5 -46t-87 -16.5q-45 0 -85 17.5t-70 48t-47.5 70.5t-17.5 85q0 44 17.5 84.5
t47.5 71.5t70 49.5t85 18.5q14 0 29 -2.5t31 -7.5v387l-95 69l1 -1q-44 30 -31 83q14 61 37 112.5t49.5 93t52.5 71t46 46.5q18 15 48 36.5t73 41.5t99 34.5t125 14.5q112 0 212.5 -42t176.5 -123q73 -78 114 -179zM293 124q30 0 54.5 21.5t24.5 54.5q0 32 -23.5 55
t-55.5 23t-53.5 -23t-21.5 -55t21.5 -54t53.5 -22zM730 -455l-22.5 22.5l-22.5 22.5v-1q-20 20 -43 20q-28 0 -46 -19t-18 -45q0 -28 18 -46t46 -18q23 0 47 20z" />
    <glyph glyph-name="topatakthai" unicode="&#xe0f;" horiz-adv-x="1499" 
d="M1261 1058q21 -52 31 -106.5t10 -111.5v-1264l-273 -269l-99 96q-24 -24 -52 -51.5t-48 -49.5l-135 139l-52 -53q-13 -11 -29.5 -20.5t-35.5 -16t-38 -10.5t-37 -4q-44 0 -81.5 16.5t-66 44.5t-44.5 66t-16 81t16 81t44.5 66t66 44.5t81.5 16.5q46 0 80.5 -17.5
t67.5 -45.5l44 -45l99 104l104 -104l-102 -100l34 -33l99 99l99 -100l110 106v1223q0 42 -5.5 82t-20.5 76q-21 55 -57 100t-83 77.5t-101.5 50t-112.5 17.5q-66 0 -123.5 -19t-107.5 -59q-47 -38 -79.5 -87.5t-52.5 -102.5l91 -66q31 -27 31 -65v-644q0 -48 -17.5 -88.5
t-48 -70t-71.5 -46t-87 -16.5q-45 0 -85 17.5t-70 48t-47.5 70.5t-17.5 85q0 44 17.5 84.5t47.5 71.5t70 49.5t85 18.5q14 0 29 -2.5t31 -7.5v387l-95 69l1 -1q-44 30 -31 83q14 61 37 112.5t49.5 93t52.5 71t46 46.5q18 15 48 36.5t73 41.5t99 34.5t125 14.5
q112 0 212.5 -42t176.5 -123q73 -78 114 -179zM349 146q23 23 23 54q0 32 -23.5 55t-55.5 23t-53.5 -23t-21.5 -55t21.5 -54t53.5 -22q17 0 30.5 5.5t25.5 16.5zM592 -456l-45 45q-20 20 -44 20q-26 0 -44.5 -19t-18.5 -45q0 -27 18 -45.5t45 -18.5q25 0 48 20z" />
    <glyph glyph-name="thothanthai" unicode="&#xe10;" horiz-adv-x="1234" 
d="M769 -29q43 0 81 -16t66 -44t44 -65.5t16 -80.5v-315l-270 -186l-96 95l-97 -97l-137 132q-19 -20 -32.5 -32.5t-22.5 -20.5t-14.5 -12t-9.5 -7q2 1 -4.5 -3.5t-9.5 -6.5q-47 -22 -96 -22q-43 0 -80.5 16.5t-65.5 44.5t-44.5 65.5t-16.5 80.5t16 80t44 65t66 44t81 16
q40 0 81 -16.5t66 -49.5q13 -12 20 -18t21 -19l102 97l105 -97l-102 -102l32 -33l98 98l102 -102l119 80v29q-27 -10 -62 -10q-43 0 -80.5 16t-65.5 44t-44 65.5t-16 80.5t16 80.5t44 65.5t65.5 44t80.5 16zM276 -503l-43 42l3 -2q-28 22 -49 22q-24 0 -43.5 -19t-19.5 -43
q0 -27 18.5 -45t44.5 -18t42 16zM629 1402q86 0 168.5 -29t151 -81.5t118.5 -126.5t72 -164l-156 -44q-17 63 -52 115t-82.5 89t-104 57.5t-115.5 20.5q-126 0 -221 -76q-87 -67 -118 -165l637 -55v-944h-145q-107 64 -166 135q-31 37 -54.5 82t-38.5 96q-3 9 -4.5 14.5
t-3 10.5t-3.5 11t-5 17q-27 -19 -55.5 -26t-61.5 -7q-46 0 -86 17t-70 46t-47 69t-17 85q0 46 17 86.5t47 70.5t70 47.5t86 17.5q35 0 67.5 -11.5t59.5 -31.5t48 -47.5t32 -59.5l82 -265q13 -48 32 -81.5t53 -60.5v581l-659 56v27q0 54 13 115q20 90 67.5 165t115 129.5
t151.5 84.5t177 30zM390 476q32 0 53.5 21t21.5 52q0 32 -21.5 55t-53.5 23q-31 0 -54 -23t-23 -55q0 -30 23 -51.5t54 -21.5zM769 -298q28 0 45 18.5t17 44.5t-18 44.5t-44 18.5q-24 0 -43 -19t-19 -44q0 -26 18 -44.5t44 -18.5z" />
    <glyph glyph-name="thonangmonthothai" unicode="&#xe11;" horiz-adv-x="1683" 
d="M720 446l342 826q58 120 184 132h25q48 0 90 -17.5t73 -48.5t48.5 -73t17.5 -90v-1175h-163v1175q0 31 -17.5 48.5t-48.5 17.5q-20 0 -34.5 -9.5t-22.5 -24.5l-502 -1207h-155v917l161 157q-11 57 -32.5 98.5t-51.5 62.5q-29 -8 -61 -22t-60 -29l-41 -21l-39 21
q-11 7 -24.5 15.5t-27.5 16t-28 14t-25 9.5q-18 -11 -35.5 -28.5t-30.5 -40.5h17q45 0 85 -17.5t69.5 -48t46.5 -71t17 -86.5q0 -44 -17.5 -83.5t-47.5 -69t-69.5 -47t-83.5 -17.5q-45 0 -85.5 17t-70.5 46.5t-47.5 69t-17.5 84.5q0 353 215 452q22 5 63 5q46 0 140 -57
q49 26 91 39t75 13t58 -13q122 -68 164 -219l5 -20l-1 2q8 -31 14.5 -62.5t8.5 -72.5l-171 -169v-399zM279 1025q-16 0 -30 -6t-24.5 -16.5t-17 -25t-6.5 -30.5q0 -30 24 -51.5t54 -21.5t52 21t22 52q0 32 -21 55t-53 23z" />
    <glyph glyph-name="thophuthaothai" unicode="&#xe12;" horiz-adv-x="2071" 
d="M1864 1388v-1388h-147q-47 42 -101.5 83t-112.5 74q-48 25 -100 45.5t-106 35.5v-28q3 -45 -14.5 -84.5t-48.5 -69.5t-71 -47.5t-83 -17.5q-94 0 -158 64t-64 153t64 156q63 66 158 66h19.5t19.5 -1q6 -1 4.5 -1t7.5 0v417q0 303 -164 388q-17 0 -45 -9t-57.5 -21.5
t-56.5 -26t-41 -22.5l-36 -14l-37 15q-43 30 -91 48.5t-88 28.5q-179 -85 -179 -387v-597q39 41 74.5 77t70 71.5t70 72.5t76.5 79q-29 13 -53.5 33.5t-42 46.5t-27.5 56.5t-10 64.5q0 45 17.5 85t47.5 70t70 47t86 17q45 0 84.5 -17t69.5 -47t47 -70t17 -85v-11.5
t-0.5 -15.5t-1.5 -15.5t-2 -11.5l1 1q-16 -80 -71 -141l-534 -556h-148v853q0 421 288 538h-1q25 11 54 11q33 0 81 -14q35 -11 66.5 -26.5t66.5 -32.5l4 -2q14 5 26.5 11t25.5 11q38 17 80 33t85 19q17 1 37 -1t38 -9q265 -129 265 -538v-445q127 -31 232 -77
q60 -31 112 -62h-1q17 -9 33.5 -19t32.5 -21v1160h162zM639 750q0 -30 21.5 -52t52.5 -22q30 0 51.5 22t21.5 52q0 31 -21.5 52.5t-51.5 21.5q-31 0 -52.5 -21.5t-21.5 -52.5zM1132 157q21 21 21 51q0 32 -20.5 55.5t-52.5 23.5q-16 0 -30 -6.5t-24.5 -17t-17 -25
t-6.5 -30.5q0 -31 23.5 -51.5t54.5 -20.5q30 0 52 20v1z" />
    <glyph glyph-name="nonenthai" unicode="&#xe13;" horiz-adv-x="1942" 
d="M1750 410q61 -30 93 -80q35 -52 35 -120q0 -47 -17.5 -87t-47.5 -70t-70.5 -47t-86.5 -17q-90 0 -154 63q-64 64 -64 158q0 6 -1 6q0 1 0.5 1t0.5 1q-45 -14 -86 -33t-81 -44q-48 -30 -92.5 -64.5t-88.5 -76.5h-147v878q0 72 -28 137.5t-79 116.5t-118.5 79t-140.5 28
q-128 0 -224 -81q-91 -75 -123 -190q22 -16 45.5 -33.5t44.5 -33.5q36 -27 36 -65v-413q13 3 26.5 4t28.5 1q93 0 158 -63q63 -64 63 -155q0 -95 -63 -158q-65 -63 -158 -63q-90 0 -154 63q-31 32 -47.5 71t-16.5 87v583l-99 76l1 -1q-23 16 -31 35t-3 43q6 45 21 91t37 87
q48 86 114 145q69 60 158 96h-1q87 37 187 37q106 0 203.5 -40.5t170.5 -114.5q73 -73 113.5 -168t40.5 -201v-653q85 59 182 104h-1q55 26 111.5 45.5t120.5 33.5v983h162v-963h7q19 -4 33.5 -8t27.5 -9zM411 284q-31 0 -52 -21t-21 -53q0 -31 20.5 -54t52.5 -23t55 22.5
t23 54.5t-23 53t-55 21zM1656 133q32 0 54.5 22.5t22.5 54.5t-22.5 53t-54.5 21q-31 0 -52.5 -21.5t-21.5 -52.5t21.5 -54t52.5 -23z" />
    <glyph glyph-name="dodekthai" unicode="&#xe14;" horiz-adv-x="1430" 
d="M1208 1052q19 -49 29.5 -104.5t11.5 -119.5v-1v-3v-824h-163v834q0 41 -7.5 80.5t-22.5 75.5q-30 68 -82 124t-118 88v-1q-35 17 -71 24.5t-74 7.5t-75 -7.5t-72 -24.5q-70 -31 -120.5 -85.5t-80.5 -125.5q-15 -36 -19.5 -75t-4.5 -81v-26.5t-0.5 -67t-0.5 -94v-107.5
v-292l288 291q-60 29 -94 81.5t-34 116.5q0 45 16.5 84.5t46 69t69 46.5t85.5 17q92 0 146 -57q25 -26 39.5 -53t22 -50t9 -38.5t1.5 -18.5v-41q-5 -25 -11 -45t-15 -38t-21.5 -35t-28.5 -35l-532 -542h-149v834q0 113 41 218q41 99 115.5 177t170.5 123q44 17 101 31
t107 14q57 0 109 -11.5t102 -33.5q100 -44 172 -122t114 -178zM659 683q24 -21 56 -21h16q10 2 19.5 8.5t17.5 15.5t12.5 19.5t4.5 21.5q2 13 -3 27.5t-14.5 27t-23 20.5t-29.5 8q-15 0 -29 -6t-25 -16.5t-17.5 -23.5t-6.5 -28q0 -30 24 -54z" />
    <glyph glyph-name="totaothai" unicode="&#xe15;" horiz-adv-x="1454" 
d="M998 1390q125 -66 188 -199t63 -338v-853h-162v849q-1 151 -37 246.5t-113 137.5q-8 0 -28 -5t-41 -12q-20 -8 -47 -21t-52 -25q-29 -14 -60 -30q-32 17 -60 32q-24 13 -48 24.5t-37 15.5q-31 11 -43.5 16t-19.5 5q-85 -42 -125.5 -137t-40.5 -247v-602l289 302
q-29 13 -52.5 33.5t-41 46.5t-27 56.5t-9.5 63.5q0 46 17 86t47 69.5t70 46.5t85 17q46 0 86 -17t69.5 -46.5t46.5 -69.5t17 -86q0 -54 -19.5 -104.5t-54.5 -88.5q-131 -137 -267 -278t-267 -278h-148v849q0 424 277 542q11 5 24 7.5t28 2.5q17 0 36.5 -3t42.5 -11h-1
q32 -9 59.5 -23t54.5 -28l17 -8q21 11 54 23t67 22t62 16t40 5l-16 6q20 3 38 0.5t35 -8.5zM638 751q0 -30 21.5 -52t52.5 -22q30 0 52 22t22 52t-22 52t-52 22q-31 0 -52.5 -22t-21.5 -52z" />
    <glyph glyph-name="thothungthai" unicode="&#xe16;" horiz-adv-x="1338" 
d="M1093 1058q21 -52 31 -106.5t10 -111.5v-840h-164v840q0 42 -5.5 82t-20.5 76q-14 37 -35.5 70.5t-45.5 57.5q-54 55 -124.5 86t-148.5 31q-66 0 -123.5 -19t-107.5 -59q-47 -38 -79.5 -87.5t-52.5 -102.5l91 -66q31 -27 31 -65v-417q17 4 31 6.5t29 2.5q45 0 85 -18.5
t70 -49.5t47.5 -71.5t17.5 -84.5q0 -45 -17.5 -85t-47.5 -70t-70 -47.5t-85 -17.5q-47 0 -88 16.5t-71 46t-47.5 70t-17.5 87.5v589l-95 69l1 -1q-44 30 -31 83q14 61 37.5 112.5t49.5 93t52 71t46 46.5q18 15 48 36.5t73 41.5t99 34.5t125 14.5q112 0 212.5 -42t176.5 -123
q73 -78 114 -179zM354 267q-24 -23 -24 -55t23.5 -53.5t55.5 -21.5t53.5 22t21.5 53q0 32 -21.5 55.5t-53.5 23.5q-31 0 -55 -24z" />
    <glyph glyph-name="thothahanthai" unicode="&#xe17;" horiz-adv-x="1475" 
d="M1045 1402q92 0 161 -66q68 -68 68 -163l-4 -1173h-162v1176q2 13 -3 24.5t-14 19.5t-21.5 13t-24.5 5q-43 0 -60 -39v1l-499 -1200h-159v969q-12 -3 -26 -5t-28 -2q-44 0 -84 17t-70.5 46.5t-48.5 69t-18 84.5q0 46 17.5 86.5t47.5 71t70 48t86 17.5q43 0 83.5 -18
t71.5 -48.5t49 -71t17 -85.5v-731l339 817q29 64 84.5 100.5t127.5 36.5zM273 1106q31 0 52.5 21t21.5 52q0 32 -21 55t-53 23t-55 -22.5t-23 -55.5q0 -32 23 -52.5t55 -20.5z" />
    <glyph glyph-name="thothongthai" unicode="&#xe18;" horiz-adv-x="1130" 
d="M559 1243q-122 0 -212 -84q-81 -75 -99 -175l616 -53v-931h-707v781h163v-619h382v617l-619 53q-3 28 -5 51t-2 40q0 35 4.5 69.5t15.5 68.5q32 101 99 177q68 77 161 122q94 45 203 45q88 0 166 -28t143 -80q63 -53 106 -128t65 -168l-158 -44q-28 139 -114 213
q-86 73 -208 73z" />
    <glyph glyph-name="nonuthai" unicode="&#xe19;" horiz-adv-x="1415" 
d="M1152 427q40 -4 76 -23.5t63 -49t43 -67t16 -77.5q0 -47 -17.5 -87.5t-47.5 -70.5t-71 -47t-87 -17q-45 0 -85 17.5t-69 47.5t-46 70.5t-17 86.5v11.5t1 13.5q-110 -28 -215 -83q-59 -29 -113.5 -67t-107.5 -85h-148v971q-30 -9 -59 -9q-45 0 -85 17.5t-69 48t-46 71
t-17 85.5q0 44 17.5 83.5t47 69.5t69 47.5t83.5 17.5q46 0 86.5 -17t70.5 -46.5t47.5 -69t17.5 -85.5v-965q51 34 108.5 65.5t113.5 55.5q64 26 135 46t143 31v977h162v-967zM268 1107q16 0 30.5 6t25 16.5t16.5 24.5t6 30q0 32 -23 53t-55 21q-31 0 -52 -21t-21 -53
t20.5 -54.5t52.5 -22.5zM1127 133q16 0 30.5 6t25 16.5t16.5 24.5t6 30q0 32 -23 53t-55 21q-31 0 -52 -21t-21 -53t20.5 -54.5t52.5 -22.5z" />
    <glyph glyph-name="bobaimaithai" unicode="&#xe1a;" horiz-adv-x="1475" 
d="M1308 1394v-1394h-980v971q-30 -9 -58 -9q-46 0 -85.5 17.5t-69 47.5t-46.5 70t-17 86q0 45 17 84.5t47 69.5t69.5 47.5t84.5 17.5q46 0 86 -17t70 -47t47.5 -70t17.5 -85v-1021h655v1232h162zM270 1106q16 0 30 6.5t24.5 17t17 24.5t6.5 29q0 32 -23 53t-55 21t-53 -21
t-21 -53q0 -31 21 -54t53 -23z" />
    <glyph glyph-name="poplathai" unicode="&#xe1b;" horiz-adv-x="1475" 
d="M1309 2083v-2083h-980v971q-30 -9 -59 -9q-45 0 -84.5 17.5t-69 47t-46.5 69t-17 84.5t17 85.5t46 70.5t69 48t85 18q46 0 86.5 -17.5t70.5 -47.5t47.5 -70.5t17.5 -86.5v-1018h655v1921h162zM270 1106q32 0 55 21t23 53t-23 54.5t-55 22.5q-31 0 -52 -22.5t-21 -54.5
q0 -31 21 -52.5t52 -21.5z" />
    <glyph glyph-name="phophungthai" unicode="&#xe1c;" horiz-adv-x="1428" 
d="M1240 1391v-1391h-149l-386 385l-381 -385h-149v1180q0 46 16.5 86.5t46 70.5t69 47.5t85.5 17.5q47 0 87.5 -17t70.5 -47t47 -70.5t17 -87.5q0 -89 -64 -154q-33 -31 -71.5 -47t-86.5 -16q-25 0 -55 8v-730l368 372l372 -372v1150h163zM319 1180q0 -31 21 -52t52 -21
q32 0 55 21t23 52q0 16 -6.5 30.5t-17 25t-24.5 16.5t-30 6q-32 0 -52.5 -23t-20.5 -55z" />
    <glyph glyph-name="fofathai" unicode="&#xe1d;" horiz-adv-x="1428" 
d="M1242 2084v-2084h-150l-385 385l-381 -385h-150v1180q0 46 17 86.5t46.5 70.5t69 47.5t85.5 17.5q47 0 87.5 -17.5t70.5 -47.5t47 -70.5t17 -86.5q0 -45 -17.5 -84.5t-47.5 -69t-70.5 -46.5t-86.5 -17q-30 0 -55 7v-729l368 372l371 -372v1843h164zM321 1180
q0 -32 20.5 -52.5t52.5 -20.5t55 21t23 52q0 16 -6.5 30.5t-17 25t-24.5 16.5t-30 6q-32 0 -52.5 -23t-20.5 -55z" />
    <glyph glyph-name="phophanthai" unicode="&#xe1e;" horiz-adv-x="1565" 
d="M1391 1394v-1394h-154l-379 993q-92 -248 -187 -498t-187 -495h-154v971q-32 -9 -59 -9q-45 0 -85 17.5t-70 47.5t-47 70.5t-17 85.5q0 44 17.5 83.5t47.5 69.5t69.5 48t84.5 18q46 0 86 -17t70 -47t47.5 -70t17.5 -85v-721q44 117 91 240.5t94 247.5t93 245t88 234
l371 -973v938h162zM325 1129q23 25 23 54q0 32 -23 53t-54 21q-32 0 -53 -21t-21 -53q0 -31 21 -54t53 -23q29 0 54 23z" />
    <glyph glyph-name="fofanthai" unicode="&#xe1f;" horiz-adv-x="1565" 
d="M1392 2087v-2087h-155l-379 994q-92 -248 -186.5 -498t-186.5 -496h-155v972q-32 -9 -59 -9q-45 0 -85 17.5t-69.5 47.5t-46.5 70.5t-17 85.5q0 90 64 155q66 64 154 64q45 0 85.5 -17t71 -47t48 -70t17.5 -85v-722l365 968l371 -973v1630h163zM325 1130q23 25 23 54
q0 32 -22.5 53t-54.5 21t-53 -21t-21 -53q0 -31 21 -54t53 -23q30 0 54 22v1z" />
    <glyph glyph-name="phosamphaothai" unicode="&#xe20;" horiz-adv-x="1499" 
d="M1263 1058q21 -52 31 -106.5t10 -111.5v-840h-164v840q0 80 -28 154.5t-79 131.5q-54 55 -124.5 86t-148.5 31q-66 0 -123.5 -19t-107.5 -59q-47 -38 -79.5 -87.5t-52.5 -102.5l91 -66q31 -27 31 -65v-632q0 -48 -17.5 -88.5t-48 -69.5t-71.5 -45.5t-87 -16.5
q-45 0 -85 17.5t-70 47.5t-47.5 70t-17.5 85t17.5 85.5t47.5 71t70 49t85 18.5q14 0 29 -2.5t31 -6.5v374l-95 69l1 -1q-44 30 -31 83q14 61 37 112.5t49.5 93t52.5 71t46 46.5q18 15 48 36.5t73 41.5t99 34.5t125 14.5q112 0 212.5 -42t176.5 -123q73 -78 114 -179z
M351 159q23 23 23 53q0 16 -6.5 30.5t-17.5 25t-25 17t-30 6.5q-32 0 -53.5 -23.5t-21.5 -55.5q0 -31 21.5 -53t53.5 -22q33 0 56 22z" />
    <glyph glyph-name="momathai" unicode="&#xe21;" horiz-adv-x="1458" 
d="M1253 1389v-1389h-148q-64 51 -130.5 90.5t-137.5 70.5q-63 29 -132.5 49.5t-140.5 32.5v-37q0 -45 -17 -84.5t-46.5 -69t-69 -46.5t-84.5 -17q-46 0 -86.5 17t-70.5 46t-47.5 69t-17.5 85q0 46 17.5 86.5t47.5 70.5t70.5 47.5t86.5 17.5h21t23 -1q8 -2 10 -2v544
q-29 -8 -54 -8q-46 0 -86.5 17t-70.5 46.5t-47.5 69.5t-17.5 85q0 46 17 86.5t47 70.5t70.5 47.5t87.5 17.5q45 0 84.5 -18t69 -48t46.5 -70.5t17 -85.5v-769q73 -11 147.5 -32t140.5 -47q63 -24 123.5 -54.5t114.5 -65.5v1178h163zM347 1105q31 0 52 22t21 52q0 31 -21 54
t-52 23q-32 0 -55.5 -22.5t-23.5 -54.5t23.5 -53t55.5 -21zM347 133q30 0 51.5 21.5t21.5 51.5q0 32 -20.5 55t-52.5 23q-16 0 -30 -6t-25 -16.5t-17.5 -25t-6.5 -30.5q0 -31 23.5 -52t55.5 -21z" />
    <glyph glyph-name="yoyakthai" unicode="&#xe22;" horiz-adv-x="1350" 
d="M1156 1390v-1390h-977v533q0 64 33 115l-1 -1q6 11 14 22t18 21q-35 26 -61 56t-47 67q-50 88 -50 192q0 42 8 79.5t22 74.5q30 72 85 126t125 86q35 15 72.5 23t79.5 8q46 0 86.5 -17.5t70.5 -47.5t47 -70.5t17 -87.5q0 -45 -17.5 -84.5t-47.5 -69t-70.5 -46.5
t-85.5 -17q-33 0 -65.5 11t-60 31t-48.5 47t-32 59q-23 -47 -23 -105q0 -95 67 -162t162 -67h221v-166l-290 -1q-8 0 -19 -4.5t-21.5 -14.5t-18 -26t-7.5 -38v-364h651v1228h163zM424 1234q-21 -21 -21 -55q0 -32 21 -52.5t53 -20.5q31 0 54.5 21t23.5 52q0 16 -6.5 30.5
t-17 25t-25 17t-29.5 6.5q-31 0 -53 -24z" />
    <glyph glyph-name="roruathai" unicode="&#xe23;" horiz-adv-x="1085" 
d="M538 1405q85 0 164 -30t143 -84t109 -128t63 -162l-159 -45q-10 63 -40 115.5t-73 91t-96.5 59.5t-110.5 21q-55 0 -107 -21.5t-94.5 -57.5t-73 -83.5t-42.5 -100.5q135 -11 277.5 -23.5t276.5 -22.5v-728q0 -44 -17.5 -84.5t-47 -71t-69 -48.5t-84.5 -18q-46 0 -86 18
t-70 48t-47.5 70.5t-17.5 85.5t17.5 85.5t47.5 70.5t70 48t86 18q26 0 55 -8v367q-134 11 -273.5 22.5t-273.5 21.5q-5 23 -7 35.5t-2 20.5v59q2 48 12.5 92.5t30.5 87.5q41 84 106.5 146t151.5 97q43 19 88 27.5t93 8.5zM557 129q31 0 52.5 22.5t21.5 54.5t-21.5 55
t-52.5 23q-16 0 -30 -6t-24.5 -16.5t-17 -25t-6.5 -30.5q0 -32 23 -54.5t55 -22.5z" />
    <glyph glyph-name="ruthai" unicode="&#xe24;" horiz-adv-x="1350" 
d="M1093 1058q21 -52 31 -106.5t10 -111.5v-1523h-164v1523q0 80 -28 154.5t-79 131.5q-54 55 -124.5 86t-148.5 31q-66 0 -123.5 -19t-107.5 -59q-47 -38 -79.5 -87.5t-52.5 -102.5l91 -66q31 -27 31 -65v-426q17 5 31 7.5t29 2.5q45 0 85 -18.5t70 -49.5t47.5 -72
t17.5 -85q0 -45 -17.5 -85t-47.5 -70t-70 -47.5t-85 -17.5q-47 0 -87.5 16.5t-71 45.5t-48 69.5t-17.5 88.5v598l-95 69l1 -1q-44 30 -31 83q14 61 37.5 112.5t49.5 93t52 71t46 46.5q18 15 48 36.5t73 41.5t99 34.5t125 14.5q112 0 212.5 -42t176.5 -123q73 -78 114 -179z
M354 258q-24 -23 -24 -55t23.5 -53.5t55.5 -21.5q31 0 53.5 22t22.5 53q0 16 -6 30.5t-16.5 25t-24 17t-29.5 6.5q-31 0 -55 -24z" />
    <glyph glyph-name="lolingthai" unicode="&#xe25;" horiz-adv-x="1352" 
d="M609 1402q112 0 215 -40q104 -42 180 -112.5t120 -175.5q21 -54 32 -111.5t11 -123.5v-840h-162v699h-343q-68 0 -124 -25q-59 -24 -101 -68t-66 -103q-10 -21 -15.5 -38t-7.5 -37q11 2 24.5 2.5t27.5 0.5q46 0 86.5 -17t71 -46.5t48 -69t17.5 -85.5q0 -47 -17.5 -87
t-47.5 -70t-70.5 -47t-87.5 -17q-45 0 -85 17.5t-70 47.5t-47.5 70t-17.5 86v179q0 50 9 91.5t29 85.5q38 86 103 152t153 103q45 18 91.5 28t96.5 10h344v6q0 27 -6.5 58.5t-15.5 58.5q-29 72 -84 130.5t-126 90.5q-76 34 -165 34q-42 0 -81 -7.5t-74 -24.5
q-69 -32 -118.5 -88.5t-78.5 -126.5q-14 -36 -21 -81.5t-7 -98.5h-163q0 70 10.5 131.5t30.5 113.5q19 48 48 93t65.5 84t79.5 71t91 53q100 44 218 44zM400 286q-32 0 -52 -21t-20 -53q0 -31 20 -54t52 -23q16 0 30.5 6t25 16.5t17 24.5t6.5 30q0 32 -23.5 53t-55.5 21z
" />
    <glyph glyph-name="luthai" unicode="&#xe26;" horiz-adv-x="1499" 
d="M1264 1058q21 -52 31 -106.5t10 -111.5v-1522h-164v1522q0 42 -5.5 82t-20.5 76q-29 74 -80.5 127.5t-122.5 85.5q-35 17 -74.5 24.5t-76.5 7.5q-65 0 -123 -19t-109 -60v1q-45 -38 -78 -87.5t-53 -102.5l90 -66q32 -25 32 -65v-640q0 -47 -17.5 -87.5t-48 -70t-71.5 -46
t-87 -16.5t-86 17.5t-70 47.5t-47 70t-17 85t17 85.5t47 71.5t70 49.5t86 18.5q15 0 29 -2t30 -7v381l-94 69l1 -1q-44 30 -31 83q14 61 37.5 112.5t49.5 93t51.5 71t45.5 46.5q18 15 48 36.5t73 41.5t99.5 34.5t125.5 14.5q53 0 111.5 -12.5t106.5 -32.5q98 -43 171.5 -122
t113.5 -176v-1zM351 151q24 24 24 53q0 16 -6.5 30.5t-17.5 25t-25 17t-30 6.5t-29.5 -6.5t-24 -17t-16.5 -25t-6 -30.5q0 -31 22.5 -53t53.5 -22q17 0 30.5 5.5t25.5 16.5h-1z" />
    <glyph glyph-name="wowaenthai" unicode="&#xe27;" horiz-adv-x="1225" 
d="M538 1402q97 0 186.5 -38t157.5 -104q68 -67 105 -157.5t37 -187.5v-710q0 -45 -17.5 -85t-47.5 -70.5t-70 -48t-86 -17.5q-45 0 -84.5 18t-69 48.5t-46.5 70.5t-17 84t17 84.5t46.5 71t69 49t84.5 18.5q27 0 59 -9v496q0 65 -24.5 125t-69.5 105t-105 69t-125 24
t-123.5 -24t-103.5 -69t-69.5 -111.5t-23.5 -143.5h-162q-1 54 8.5 106t27.5 99.5t44.5 89.5t59.5 75q69 66 156.5 104t185.5 38zM803 129q32 0 54.5 22t22.5 54t-23 53.5t-54 21.5t-52.5 -21.5t-21.5 -53.5q0 -31 21 -53.5t53 -22.5z" />
    <glyph glyph-name="sosalathai" unicode="&#xe28;" horiz-adv-x="1514" 
d="M1222 1147q44 -66 68.5 -147t24.5 -169v-831h-163v831q0 83 -32 156q-32 71 -88 128q-57 57 -129.5 88t-153.5 31q-40 0 -79.5 -7.5t-75.5 -23.5q-72 -32 -128 -88.5t-88 -127.5t-32 -156v-397q41 99 81 196t80 196l-1 -1q25 67 80 107.5t126 40.5q46 0 86.5 -17
t70.5 -47t47 -70t17 -86t-17.5 -85.5t-47.5 -69t-70.5 -46.5t-85.5 -17q-80 0 -132 41q-60 -143 -121.5 -289t-120.5 -287h-154v831q0 119 43 223q22 49 53 94t69 84t83 70t96 52t106 32.5t115 11.5q95 0 183.5 -32.5t160.5 -86.5q6 -4 8.5 -5.5t4.5 -2.5t4.5 -3t7.5 -7
l119 212h171zM712 830q-32 0 -53 -23t-21 -54q0 -32 20.5 -53.5t53.5 -21.5q31 0 54 21.5t23 53.5q0 15 -6.5 29t-17 24.5t-24.5 17t-29 6.5z" />
    <glyph glyph-name="sorusithai" unicode="&#xe29;" horiz-adv-x="1495" 
d="M1536 535h-227v-535h-980v967q-14 -4 -29.5 -6.5t-28.5 -2.5q-45 0 -84.5 18t-69 48.5t-47 70.5t-17.5 84t17.5 84.5t47 71t69 49t84.5 18.5q44 0 84 -18.5t70.5 -49t48.5 -71t18 -84.5v-1017h655v373h-327q-47 0 -87.5 17t-70 47t-46.5 70.5t-17 87.5q0 45 17.5 85
t47.5 69t70 46t86 17q45 0 84.5 -17.5t69 -47.5t46.5 -69.5t17 -82.5q0 -44 -12 -78h122v711h162v-711h227v-144zM271 1102q31 0 54.5 23t23.5 54q0 32 -23 53.5t-55 21.5t-52.5 -21.5t-20.5 -53.5q0 -31 21 -54t52 -23zM820 679q32 0 52.5 23t20.5 55q0 30 -21.5 51.5
t-51.5 21.5q-32 0 -55 -21t-23 -52q0 -16 6 -30t16.5 -24.5t25 -17t30.5 -6.5z" />
    <glyph glyph-name="sosuathai" unicode="&#xe2a;" horiz-adv-x="1352" 
d="M1070 1152q91 -132 97 -313v-839h-162v698h-343q-65 0 -122.5 -24t-101.5 -69q-35 -35 -57.5 -82t-30.5 -96q19 4 51 4q46 0 86.5 -17t70.5 -46.5t47.5 -69.5t17.5 -85q0 -47 -17.5 -87t-47.5 -70t-70.5 -47t-86.5 -17q-45 0 -85 17.5t-70.5 47.5t-48 70t-17.5 86v179
q0 93 38.5 177.5t102.5 148.5v-1q67 69 156 106.5t185 37.5h344v5q0 29 -5.5 58.5t-18.5 58.5q-30 75 -84 132q-55 59 -131 91.5t-158 32.5q-42 0 -80.5 -7.5t-73.5 -24.5q-69 -31 -119 -89t-79 -126q-14 -36 -21 -82t-7 -98h-162q0 141 39 245q19 49 48 94t65.5 83t80 69
t91.5 54q48 20 104.5 32.5t113.5 12.5q104 0 192.5 -37.5t164.5 -97.5q29 53 61 108t60 106h170zM401 287q-31 0 -52.5 -21t-21.5 -53q0 -31 21.5 -54t52.5 -23q32 0 54.5 22.5t22.5 54.5t-22.5 53t-54.5 21z" />
    <glyph glyph-name="hohipthai" unicode="&#xe2b;" horiz-adv-x="1475" 
d="M1310 1179q0 -83 -52 -141q47 -61 52 -138v-900h-163v896q0 27 -19 45q-8 8 -21 13.5t-27 7.5q-25 -1 -51 -24l-550 -938h-154v965q-24 -7 -55 -7q-45 0 -85 18t-70 48t-47.5 70t-17.5 85t17 85.5t47 71t70 48.5t86 18q45 0 84.5 -18.5t69.5 -49t47 -71t17 -84.5v-836
q106 179 209.5 354.5t209.5 356.5q-17 28 -26.5 59.5t-9.5 65.5q0 44 17 84.5t46.5 71t69 49t84.5 18.5q46 0 86.5 -17.5t70.5 -48t47.5 -71t17.5 -86.5zM270 1102q32 0 53.5 23t21.5 54q0 32 -21.5 53.5t-53.5 21.5q-31 0 -53.5 -21.5t-22.5 -53.5q0 -31 22.5 -54t53.5 -23
zM1088 1254q-31 0 -52.5 -21.5t-21.5 -53.5q0 -30 22 -53.5t52 -23.5q32 0 55 22.5t23 54.5t-23 53.5t-55 21.5z" />
    <glyph glyph-name="lochulathai" unicode="&#xe2c;" horiz-adv-x="1713" 
d="M1685 1295h-227v-1295h-155l-411 995q-101 -248 -204.5 -498.5t-203.5 -496.5h-154v967q-14 -4 -29.5 -6.5t-28.5 -2.5q-45 0 -84.5 18t-69 48.5t-47 70.5t-17.5 84t17 84.5t47 71t69.5 49t84.5 18.5q46 0 86 -18t70 -48.5t47.5 -71t17.5 -85.5v-727q49 118 99.5 242
t101.5 248t101 246t97 237l403 -975v845h-59q-45 0 -84.5 17.5t-69 47.5t-46.5 69.5t-17 84.5t16.5 85t46 70t69 47.5t85.5 17.5t86.5 -17t70.5 -47t47.5 -70t17.5 -86v-75h227v-144zM272 1106q31 0 54.5 21t23.5 52q0 16 -6.5 30.5t-17 25t-24.5 16.5t-30 6
q-32 0 -53.5 -23t-21.5 -55q0 -31 22 -52t53 -21zM1162 1514q0 -32 21.5 -53.5t52.5 -21.5q32 0 55 21.5t23 53.5q0 31 -23 53.5t-55 22.5q-30 0 -52 -22.5t-22 -53.5z" />
    <glyph glyph-name="oangthai" unicode="&#xe2d;" horiz-adv-x="1381" 
d="M617 1399q118 0 222 -45q101 -42 178.5 -120.5t121.5 -178.5q20 -50 32 -107t12 -112v-836h-957v681q0 46 16.5 86.5t46 70.5t69 47t85.5 17t86 -17t70 -47t47.5 -70.5t17.5 -86.5q0 -45 -18 -84.5t-48.5 -69t-70.5 -46.5t-84 -17q-26 0 -55 8v-310h632v674q0 41 -7.5 80
t-24.5 76q-31 72 -88 126t-128 86q-73 32 -155 32q-41 0 -79.5 -7.5t-75.5 -24.5q-74 -32 -127 -85.5t-85 -126.5q-17 -37 -24.5 -82t-7.5 -98h-164q0 71 11.5 131t33.5 112q42 101 120.5 178t178.5 121q50 20 107.5 32.5t111.5 12.5zM443 759q-32 0 -53 -23t-21 -55
q0 -30 21 -52t53 -22q31 0 54 21.5t23 52.5q0 32 -22.5 55t-54.5 23z" />
    <glyph glyph-name="honokhukthai" unicode="&#xe2e;" horiz-adv-x="1484" 
d="M1177 1152q97 -138 97 -320v-832h-961v681q0 45 17.5 85t47.5 69t70 46t86 17q45 0 84.5 -17t69.5 -46.5t47 -69t17 -84.5q0 -46 -17 -86t-46.5 -70t-69.5 -47.5t-85 -17.5q-25 0 -59 9v-307h636v670q0 82 -31 156q-31 69 -89 127t-127 89q-37 16 -76.5 23.5t-79.5 7.5
t-79 -7.5t-75 -23.5q-71 -32 -127.5 -88.5t-88.5 -127.5q-16 -37 -24.5 -81.5t-8.5 -98.5h-162q0 72 11 133.5t32 113.5q44 102 121 179.5t180 120.5q52 21 107 32.5t114 11.5q70 0 133 -21h-1q66 -20 124 -46t109 -67q30 53 62 109.5t62 107.5h172zM534 755q-31 0 -54 -21
t-23 -53t22.5 -55t54.5 -23t53 23t21 55t-21 53t-53 21z" />
    <glyph glyph-name="paiyannoithai" unicode="&#xe2f;" horiz-adv-x="1253" 
d="M875 916q-56 -55 -131 -81t-151 -26q-169 0 -296 87q-66 45 -103.5 114.5t-45.5 172.5q-2 44 16.5 83.5t49.5 69t71 46.5t81 17q43 0 83 -16.5t71 -45t49 -68t18 -84.5q0 -29 -9 -56.5t-25 -52.5t-38 -45.5t-48 -35.5q29 -11 63.5 -17.5t62.5 -6.5q113 0 197 81h-1
q82 81 82 193v139h170v-1384h-170zM447 1186q1 16 -5.5 30t-17.5 24.5t-25.5 16.5t-29.5 6q-31 0 -54 -23t-23 -55t23 -54.5t54 -22.5q32 0 55 22.5t23 54.5v1z" />
    <glyph glyph-name="saraathai" unicode="&#xe30;" horiz-adv-x="1225" 
d="M1045 546q2 -24 2.5 -35t0.5 -21q0 -45 -9 -89t-26 -86q-29 -66 -76 -121t-106.5 -94t-127.5 -60.5t-140 -21.5h-15.5t-15.5 1q-39 4 -82 16.5t-85.5 32.5t-82 48t-69 62t-48 74.5t-18.5 86.5q4 45 24.5 83.5t52.5 66.5t72.5 43.5t83.5 13.5q45 -2 83 -22.5t66 -52.5
t43 -73t13 -84q-2 -39 -15 -71.5t-37 -60.5q7 -1 14 -1h14q34 0 77 8l-1 -1q37 7 71.5 24.5t64.5 43t52.5 57t35.5 66.5q27 69 21 167h163zM318 383q-26 -25 -28 -55q-2 -15 3.5 -28t16 -23t24.5 -17t29 -8q32 -3 53.5 19t25.5 53v-1q1 15 -4.5 29t-15.5 25t-23.5 18
t-28.5 8q-32 2 -52 -20zM1045 1380q2 -25 2.5 -35.5t0.5 -20.5q0 -45 -9 -89.5t-26 -86.5q-29 -66 -76 -121t-106.5 -94t-127.5 -60.5t-140 -21.5h-15.5t-15.5 1q-40 4 -84.5 16t-88 31.5t-83 47t-69 61.5t-46.5 75.5t-14 89.5q3 92 72 152q73 58 161 55q45 -3 83 -23
t66 -52.5t43 -73.5t13 -84q-1 -29 -15 -66t-37 -66q7 -1 14.5 -1h13.5q34 0 77 8l-1 -1q37 7 71.5 25t64.5 43t52.5 56.5t35.5 67.5q27 68 21 167h163zM318 1217q-27 -27 -28 -55q-2 -15 3.5 -28.5t16 -23.5t24.5 -17t29 -8q32 -3 53.5 19.5t25.5 53.5v-1q1 15 -4.5 29
t-15.5 24.5t-23.5 17.5t-28.5 8q-33 2 -52 -19z" />
    <glyph glyph-name="maihanakatthai" unicode="&#xe31;" 
d="M0 2117q2 -18 3 -33.5t1 -25.5q0 -43 -9.5 -85.5t-26.5 -84.5v1q-26 -65 -72 -120t-105 -95.5t-127 -63.5t-138 -23q-9 0 -19.5 0.5t-18.5 1.5q-44 2 -90.5 14.5t-88.5 30.5q-37 18 -74 47t-66.5 65.5t-48 79t-18.5 86.5q3 42 24.5 80t54 66.5t73.5 44t83 14.5
q43 -1 81.5 -22t66 -54t43 -74.5t12.5 -83.5q-1 -38 -14.5 -70.5t-37.5 -60.5q8 -1 15 -1h15q19 0 38 1.5t36 5.5q36 7 70 25.5t64 44.5t53.5 57.5t37.5 64.5q12 33 17.5 76t2.5 91h163zM-729 1952q-21 -20 -26 -51q-2 -31 20.5 -53.5t53.5 -26.5q15 -2 28.5 4t24.5 16.5
t17.5 24t7.5 28.5q2 15 -4 28.5t-16.5 24.5t-24 18t-28.5 8q-29 3 -51 -20z" />
    <glyph glyph-name="saraaathai" unicode="&#xe32;" horiz-adv-x="1135" 
d="M1018 0h-163v918q0 65 -24 123t-70 104q-45 45 -105 69t-125 24t-123.5 -27t-102.5 -74t-69.5 -110t-22.5 -134h-164q0 123 38 213q39 88 104 153t153 103q88 39 187 39q47 0 94.5 -9.5t92 -28t84.5 -45t73 -59.5q69 -66 106 -155.5t37 -185.5v-918z" />
    <glyph glyph-name="saraamthai" unicode="&#xe33;" horiz-adv-x="1135" 
d="M-220 1585q-45 0 -84.5 17.5t-69 47t-47 69t-17.5 84.5t17 85.5t46.5 70.5t69 47.5t85.5 17.5t86.5 -17t70.5 -47t47.5 -70.5t17.5 -86.5q0 -45 -17.5 -85t-48 -69.5t-71 -46.5t-85.5 -17zM-220 1880q-32 0 -52.5 -23t-20.5 -54q0 -32 21 -53t52 -21q32 0 54.5 21
t22.5 53t-22.5 54.5t-54.5 22.5zM1016 0h-163v919q0 65 -24.5 123.5t-69.5 104.5v-1q-45 45 -105 69t-125 24t-123.5 -27t-103 -74t-69.5 -109.5t-22 -134.5h-164q0 127 38 213q36 88 102.5 154t154.5 102q88 39 187 39q48 0 95.5 -9.5t92 -28t84.5 -45t73 -60.5v1
q67 -66 104.5 -155t37.5 -186v-919z" />
    <glyph glyph-name="saraithai" unicode="&#xe34;" 
d="M-134 1744q11 -29 23 -66.5t23 -81.5h-1118q20 103 73 190.5t128 151t166.5 99.5t190.5 36q83 0 161 -23.5t145 -66t120.5 -103.5t87.5 -136zM-332 1758q-28 35 -64 63.5t-77 48t-85.5 30t-89.5 10.5q-93 0 -175.5 -40t-138.5 -112h630z" />
    <glyph glyph-name="saraiithai" unicode="&#xe35;" 
d="M-92 2174v-586h-1111q10 40 18 67.5t15 44.5l13 35q33 75 86 135t120 102.5t145 65.5t160 23q117 0 223.5 -46t186.5 -128v287h144zM-331 1750q-29 34 -65 61.5t-76.5 46.5t-84.5 29.5t-89 10.5q-91 0 -173 -39.5t-139 -108.5h627z" />
    <glyph glyph-name="sarauethai" unicode="&#xe36;" 
d="M-89 2021q0 -57 -26 -106t-74 -78q38 -52 63 -112t42 -138h-1117q6 26 12.5 50.5t13.5 41.5l-1 -1q29 90 90 166t139 129q136 91 307 91q58 0 114 -13q5 39 25 74t50 61t67.5 41t76.5 15q45 0 85 -17.5t69.5 -47.5t46.5 -70.5t17 -85.5zM-327 1749q-56 72 -138 112
t-175 40q-91 0 -173.5 -41t-139.5 -111h626zM-307 1946q31 0 52.5 21.5t21.5 53.5q0 31 -22 53.5t-52 22.5q-31 0 -54.5 -22.5t-23.5 -53.5q0 -32 23 -53.5t55 -21.5z" />
    <glyph glyph-name="saraueethai" unicode="&#xe37;" 
d="M-93 2176v-586h-1112q6 24 11.5 42t10.5 32.5t9 26.5t9 23q2 5 4 11l4 12q33 76 86.5 136.5t120.5 102.5t145.5 64.5t161.5 22.5q60 0 113.5 -10t104.5 -32v155h143v-245l15 -13.5t9 -8t8.5 -8.5t12.5 -15v290h144zM-332 1752q-57 69 -138.5 109t-172.5 40
q-93 0 -175.5 -40t-139.5 -109h626z" />
    <glyph glyph-name="sarauthai" unicode="&#xe38;" 
d="M-407 -104q45 0 85.5 -17t70.5 -46t47.5 -69t17.5 -85v-543h-162v330q-32 -9 -59 -9q-45 0 -85 17.5t-69.5 48t-46.5 71t-17 85.5t17.5 84.5t47 69t69 46.5t84.5 17zM-407 -399q16 0 30 6t24.5 16.5t16.5 25t6 30.5q0 31 -22.5 52t-54.5 21t-53 -21t-21 -52q0 -32 21 -55
t53 -23z" />
    <glyph glyph-name="sarauuthai" unicode="&#xe39;" 
d="M-211 -105v-761h-474v328q-13 -3 -27.5 -5t-27.5 -2q-44 0 -83.5 17.5t-70.5 47t-49 69t-18 84.5t17.5 85.5t48 71t70.5 48t85 17.5t84.5 -17.5t69.5 -48t47 -71t17 -85.5v-377h147v599h164zM-740 -401q32 0 52.5 21t20.5 53t-20.5 54.5t-52.5 22.5t-55 -22.5t-23 -54.5
t23 -53t55 -21z" />
    <glyph glyph-name="phinthuthai" unicode="&#xe3a;" 
d="M-118 -246q0 -52 -37 -89q-20 -18 -41.5 -28t-47.5 -10q-27 0 -49 10t-41 28q-38 36 -38 89q0 28 9.5 49.5t28.5 40.5q37 37 90 37q52 0 90 -37q36 -38 36 -90z" />
    <glyph glyph-name="PUCR2005" unicode="&#xe3e;" 
 />
    <glyph glyph-name="bahtthai" unicode="&#xe3f;" horiz-adv-x="1176" 
d="M1043 1016q0 -95 -42 -172t-115 -131q73 -56 115 -138.5t42 -175.5q0 -59 -17.5 -115.5t-49.5 -104.5t-76.5 -86.5t-99.5 -61.5q-32 -13 -63.5 -21t-68.5 -10v-215h-163v215h-371v1401h371v215h163v-215q78 -3 141.5 -31t117.5 -79q116 -110 116 -275zM297 794h208v443
h-208v-443zM505 163v469h-208v-469h208zM668 794q45 3 83.5 20.5t67 47t45 69t16.5 85.5q0 47 -16.5 86t-45 67.5t-67 45.5t-83.5 21v-442zM668 631q-5 0 -10.5 0.5t-10.5 0.5h-4l25 25v-26zM643 163h12.5t12.5 1v-25zM880 399q0 45 -16.5 85.5t-45 71.5t-67 51t-83.5 24
v-467q45 5 83.5 25t67 51.5t45 72t16.5 86.5z" />
    <glyph glyph-name="saraethai" unicode="&#xe40;" horiz-adv-x="696" 
d="M405 425q46 0 86.5 -17.5t70.5 -47.5t47 -70.5t17 -86.5q0 -45 -17.5 -84.5t-47.5 -69.5t-70.5 -47t-85.5 -17t-84.5 17.5t-69 47.5t-47 69.5t-17.5 83.5v1184h162v-970q30 8 56 8zM405 130q32 0 54.5 20.5t22.5 52.5t-22.5 54.5t-54.5 22.5t-53 -22.5t-21 -54.5
t21 -52.5t53 -20.5z" />
    <glyph glyph-name="saraaethai" unicode="&#xe41;" horiz-adv-x="1266" 
d="M412 424q46 0 86 -17.5t70 -48t47.5 -71t17.5 -86.5q0 -45 -18 -84.5t-48.5 -69t-70.5 -46.5t-84 -17t-83.5 17.5t-70.5 47t-49 69t-18 83.5v1186h162v-972q31 9 59 9zM412 128q31 0 52.5 21t21.5 52q0 32 -21 55.5t-53 23.5q-16 0 -30 -6.5t-24.5 -17t-17 -25
t-6.5 -30.5q0 -31 23 -52t55 -21zM976 424q46 0 85.5 -18t68.5 -48.5t46 -71t17 -85.5q0 -44 -17 -83.5t-46.5 -69t-69 -47t-84.5 -17.5q-46 0 -86 17t-70 46t-47.5 69t-17.5 85v1186h162v-972q31 9 59 9zM976 128q31 0 52.5 21t21.5 52q0 32 -21 55.5t-53 23.5
q-16 0 -30 -6.5t-24.5 -17t-17 -25t-6.5 -30.5q0 -31 23 -52t55 -21z" />
    <glyph glyph-name="saraothai" unicode="&#xe42;" horiz-adv-x="815" 
d="M566 424q46 0 86.5 -17.5t70.5 -47.5t47.5 -70.5t17.5 -86.5q0 -45 -18 -85t-48 -69.5t-70.5 -46.5t-85.5 -17t-84.5 17.5t-69 47.5t-47 69.5t-17.5 83.5v1404l-295 25l-139 8l-5 139q7 94 49 174.5t107 139t149.5 92t177.5 33.5q47 0 94 -9.5t91.5 -27.5t85 -44.5
t73.5 -59.5q68 -67 105 -164.5t37 -205.5h-162q0 75 -24.5 142.5t-69.5 112.5q-45 46 -105.5 69.5t-124.5 23.5q-55 0 -107 -21t-95 -57t-73.5 -83.5t-42.5 -100.5q106 -9 219 -19.5t218 -19.5v-1337q29 8 55 8zM566 129q32 0 54.5 20.5t22.5 52.5t-22.5 54.5t-54.5 22.5
t-53 -22.5t-21 -54.5t21 -52.5t53 -20.5z" />
    <glyph glyph-name="saraaimaimuanthai" unicode="&#xe43;" horiz-adv-x="946" 
d="M669 423q46 0 85.5 -17.5t69 -48t46.5 -71t17 -85.5t-17 -84.5t-47 -69t-69.5 -47t-84.5 -17.5q-46 0 -86 17t-70 46.5t-47.5 69.5t-17.5 85v1664q0 40 -14 72.5t-40 60.5q-56 55 -134 55q-33 0 -66 -14q34 -10 62.5 -31t49 -49t32 -61.5t11.5 -69.5q0 -44 -17 -84
t-47 -70.5t-69.5 -48.5t-84.5 -18q-44 0 -84 18t-70.5 48.5t-48.5 70.5t-18 84v37q0 53 15.5 102t44 91t67.5 75t86 55q63 28 137 28q72 0 135 -27.5t113 -75.5q50 -49 76.5 -112.5t26.5 -135.5v-1451q30 9 58 9zM206 1828q0 32 -22 55t-53 23t-53.5 -23t-22.5 -55
q0 -31 22.5 -52.5t53.5 -21.5t53 21.5t22 52.5zM669 127q30 0 52.5 22t22.5 52q0 32 -22 54.5t-53 22.5t-54.5 -22.5t-23.5 -54.5q0 -31 24 -52.5t54 -21.5z" />
    <glyph glyph-name="saraaimaimalaithai" unicode="&#xe44;" horiz-adv-x="946" 
d="M618 423q45 0 84.5 -17.5t69.5 -47t47.5 -69.5t17.5 -85t-17 -85t-47 -70.5t-70 -48t-85 -17.5q-46 0 -86.5 17.5t-70.5 47.5t-47 70t-17 86v1557l-75 -188h-159l-267 639h176l168 -402q19 47 40.5 99l43 104t43 103t39.5 96h153v-1798q31 9 59 9zM618 128q32 0 53 22.5
t21 53.5q0 32 -21 53.5t-53 21.5q-31 0 -54 -21.5t-23 -53.5q0 -31 23 -53.5t54 -22.5z" />
    <glyph glyph-name="lakkhangyaothai" unicode="&#xe45;" horiz-adv-x="1135" 
d="M1017 -659h-162v1576q0 65 -24.5 123t-69.5 103q-45 46 -105.5 70t-125.5 24q-64 0 -123 -27.5t-103 -74.5t-69.5 -109.5t-22.5 -133.5h-163q0 124 37 213q30 66 75.5 120.5t103 93.5t125 60t140.5 21q97 0 188 -37.5t157 -103.5q68 -67 105 -155t37 -187v-1576z" />
    <glyph glyph-name="maiyamokthai" unicode="&#xe46;" horiz-adv-x="1696" 
d="M1240 1395q241 -118 241 -507v-1569h-163v1569q0 287 -142 357q-15 0 -60 -18q-26 -12 -57 -26t-56 -28l-38 -22q-53 31 -84.5 46.5t-56.5 25.5h1q-44 17 -58 18q-84 -35 -122 -133q7 1 12 1h12q46 0 85.5 -17.5t69 -47.5t46.5 -70.5t17 -85.5t-17.5 -84.5t-47 -69
t-69 -47t-84.5 -17.5t-85.5 17t-70.5 46.5t-47.5 69.5t-17.5 85q0 197 70 324.5t199 182.5q21 8 44 8q69 0 208 -67q29 14 61.5 27t66.5 26q49 17 86 17q16 0 30.5 -2.5t27.5 -9.5zM744 888q0 32 -22 54.5t-53 22.5t-54.5 -22.5t-23.5 -54.5t24 -53t54 -21q31 0 53 21t22 53
z" />
    <glyph glyph-name="maitaikhuthai" unicode="&#xe47;" 
d="M-226 2282q2 -47 -11 -89t-36.5 -74.5t-56 -53.5t-68.5 -25h-412q-35 0 -66 -9t-54.5 -27.5t-37.5 -46t-14 -63.5q0 -42 13.5 -70t38.5 -44q10 -5 15.5 -8t10.5 -5l63 69q11 18 29 19.5t33 -0.5l90 -30q4 36 20 66.5t40.5 52.5t56.5 34t69 12q38 0 72 -14.5t59.5 -40
t40.5 -59t15 -72.5q0 -38 -15.5 -71.5t-41.5 -58.5t-59.5 -39.5t-70.5 -14.5q-21 0 -39.5 3.5t-36.5 9.5l-187 65q-19 -23 -34.5 -39.5t-23.5 -24.5l-8 -9q-11 -9 -23.5 -12.5t-26.5 -3.5t-27 3t-25 7q-37 11 -77 38q-27 23 -49 48t-38.5 53.5t-25.5 61.5t-9 74q0 61 24 113
t64.5 90.5t94 62t112.5 26.5q106 0 176.5 -0.5t115.5 -0.5q30 0 49.5 -0.5t33.5 -0.5q17 0 24.5 0.5t13.5 1.5h-2q58 10 58 96h143zM-503 1859q-21 0 -36 -17.5t-15 -37.5t15.5 -34t35.5 -14t35.5 14t15.5 34t-15.5 37.5t-35.5 17.5z" />
    <glyph glyph-name="maiekthai" unicode="&#xe48;" 
d="M-184 2962v-563h-145v563h145z" />
    <glyph glyph-name="maithothai" unicode="&#xe49;" 
d="M163 2970q0 -83 -23 -161t-64 -146t-98 -122.5t-125 -89.5q-60 -29 -124 -45t-132 -16q-43 0 -82 6v188q-10 -2 -20 -3.5t-23 -1.5q-43 0 -80.5 16t-65.5 44t-44.5 65.5t-16.5 80.5t16.5 80.5t44.5 65.5t65.5 44.5t80.5 16.5t80.5 -16.5t65.5 -44.5t44 -65.5t16 -80.5
v-225q70 12 128.5 49t101.5 90.5t67 119.5t24 136v42zM-528 2724q26 0 44.5 18t18.5 43q0 28 -18.5 45t-44.5 17q-28 0 -45.5 -17t-17.5 -45q0 -26 18 -43.5t45 -17.5z" />
    <glyph glyph-name="maitrithai" unicode="&#xe4a;" 
d="M37 3109v-384q0 -39 -8.5 -80.5t-25.5 -81t-41.5 -75.5t-57.5 -63h-135v354q0 25 -21 39.5t-49 14.5q-29 0 -50 -25t-19 -66h-153q1 21 -5 37.5t-16.5 28.5t-24 18.5t-27.5 6.5q-29 0 -50 -19t-21 -47v-12q5 1 12 1.5t13 0.5q36 0 68 -14t56 -38t38 -56t14 -68
q0 -34 -16 -63t-41 -50.5t-56.5 -34t-62.5 -12.5q-36 0 -68 13t-55.5 36.5t-37.5 55t-14 67.5v174q0 88 63 153q68 64 158 64q46 0 83.5 -13.5t66.5 -38.5q27 24 64 38t81 14q38 0 72.5 -10.5t62.5 -32.5q31 -25 53 -60v256zM-685 2593q0 -16 13.5 -28.5t29.5 -12.5t28 11
t12 30q0 20 -10.5 31.5t-29.5 11.5q-18 0 -30.5 -13.5t-12.5 -29.5z" />
    <glyph glyph-name="maichattawathai" unicode="&#xe4b;" 
d="M229 2712h-307v-307h-143v307h-307v143h307v307h143v-307h307v-143z" />
    <glyph glyph-name="thanthakhatthai" unicode="&#xe4c;" 
d="M-206 2695q8 -10 14 -19.5t13 -18.5l8 -12q8 -21 12 -42.5t4 -44.5q0 -17 -2.5 -34.5t-9.5 -37.5q-12 -31 -32 -55.5t-46 -41.5t-56 -26t-62 -9q-17 0 -34.5 2.5t-34.5 8.5q-82 28 -117 112q-17 40 -17 81q0 29 8 57.5t23 53t37 45t51 33.5l492 218l58 -132zM-333 2506
q16 5 24.5 21t8.5 33q0 5 -0.5 10.5t-2.5 10.5q-10 19 -23 30t-30 11q-12 0 -28 -7q-17 -10 -28.5 -23t-11.5 -30q0 -13 6 -28q10 -16 24.5 -26t29.5 -10q14 0 28 7z" />
    <glyph glyph-name="nikhahitthai" unicode="&#xe4d;" 
d="M-262 1608q-45 0 -84.5 17t-69 46.5t-46.5 69t-17 84.5q0 46 16.5 86.5t46 70.5t69 47.5t85.5 17.5q47 0 87.5 -17.5t70 -47.5t46.5 -70.5t17 -86.5q0 -45 -17.5 -85t-47.5 -69t-70.5 -46t-85.5 -17zM-262 1904q-31 0 -52 -24t-21 -55t21 -52.5t52 -21.5q32 0 55 21.5
t23 52.5q0 32 -23 55.5t-55 23.5z" />
    <glyph glyph-name="yamakkanthai" unicode="&#xe4e;" 
d="M-192 2368q-38 7 -52 7q-38 0 -57 -22t-19 -49q0 -29 25.5 -55t78.5 -33l-24 -142q-28 5 -53 -4.5t-43.5 -29t-29 -45t-10.5 -51.5q0 -19 7 -37t22.5 -33.5t40.5 -26.5t60 -17l-14 -144q-63 12 -112.5 36t-83.5 58.5t-52 77.5t-18 93q0 22 3 45q6 34 16.5 61.5t23.5 49
t27 37.5t26 28q-23 32 -34 66t-11 69q0 42 16 81.5t46.5 69.5t74 48t98.5 18q28 0 72 -6z" />
    <glyph glyph-name="fongmanthai" unicode="&#xe4f;" horiz-adv-x="1638" 
d="M1544 715q0 -99 -25.5 -190.5t-71.5 -171t-111 -145t-144.5 -112.5t-170.5 -72.5t-190 -25.5t-190 26t-170 73t-144 112.5t-111.5 145.5t-72 171t-25.5 189t25.5 189t71.5 170.5t111 145.5t144.5 113t170.5 73t190 26t190.5 -25.5t170.5 -72.5t144 -112.5t111 -145.5
t71.5 -171t25.5 -190zM1382 711q0 113 -44 213t-119 175t-175 119t-213 44t-213.5 -44t-175.5 -119t-118.5 -175.5t-43.5 -212.5q0 -113 44 -213t119 -175t175 -119t213 -44t213.5 44t175.5 119t118.5 175t43.5 213zM1199 715q0 -75 -29.5 -142t-80 -117.5t-117.5 -80
t-141 -29.5q-76 0 -142 29.5t-115 80t-77 117.5t-28 142q0 76 27.5 142.5t76 116t115 78t143.5 28.5q76 0 143.5 -28t117 -77.5t78.5 -116t29 -143.5zM1041 715q0 43 -17 80t-45.5 64t-66.5 42.5t-81 15.5q-41 0 -78 -15.5t-65 -43t-44 -64.5t-16 -79t16.5 -78.5t44 -64.5
t64.5 -44t78 -16q42 0 80 16t67 43.5t46 64.5t17 79z" />
    <glyph glyph-name="zerothai" unicode="&#xe50;" horiz-adv-x="1266" 
d="M646 -7q-80 0 -158.5 21.5t-147 61.5t-124.5 97.5t-91 130.5q-20 45 -32 98t-12 104q0 108 44 200q35 73 90.5 130.5t124.5 97.5t147 60.5t159 20.5q79 0 157.5 -21.5t147.5 -61t125.5 -97t91.5 -129.5q21 -45 33 -95.5t12 -104.5q0 -55 -11.5 -104.5t-33.5 -97.5
q-35 -74 -90.5 -132t-124 -98t-147.5 -60.5t-160 -20.5zM646 852q-57 0 -112.5 -14t-104.5 -41.5t-89 -67t-65 -90.5q-32 -62 -32 -133q0 -69 32 -133q25 -51 65 -91.5t89 -68.5t104.5 -42.5t112.5 -14.5q58 0 113.5 15t104 43.5t88.5 68.5t67 90q15 31 22.5 64.5t7.5 68.5
t-7 68.5t-23 64.5v-1q-27 51 -67 91t-88.5 67.5t-104 41.5t-113.5 14z" />
    <glyph glyph-name="onethai" unicode="&#xe51;" horiz-adv-x="1352" 
d="M1234 528q21 -78 21 -152q0 -159 -91 -302q-138 -216 -405 -285l-44 157q213 55 308 214q68 109 68 222q0 26 -3.5 52t-9.5 52v-1q-18 63 -55 117t-87 94.5t-110.5 66t-125.5 33.5q-15 2 -29 3t-28 1q-51 0 -102 -12.5t-97.5 -36.5t-86 -58.5t-68.5 -77.5
q-25 -41 -36 -86.5t-11 -92.5q0 -25 2 -48.5t6 -46.5q7 -38 25.5 -70.5t45 -58t59 -43.5t67.5 -27q-10 14 -18 34t-13 37q-7 27 -7 53q0 37 11.5 72t33.5 64.5t52 50t68 28.5h-1q14 4 27.5 5t26.5 1q37 0 72 -11.5t64 -32.5t49.5 -52t28.5 -70q2 -13 3.5 -26t1.5 -23
q0 -33 -8 -69.5t-25 -68.5q-24 -43 -56.5 -72t-72.5 -47t-87.5 -25.5t-101.5 -7.5q-22 0 -47.5 3.5t-51 10t-49.5 16t-42 20.5l1 -1q-38 21 -72 51.5t-62.5 68t-49 81.5t-30.5 92q-12 60 -12 120q0 67 17.5 130.5t55.5 126.5q40 63 94.5 112t118 82.5t134.5 51t144 17.5
q19 0 38 -1.5t37 -3.5q90 -12 172.5 -47t150.5 -90.5t118 -129.5t74 -163v-1zM600 343q-25 -6 -40 -26t-15 -46q0 -6 1 -11.5t3 -11.5q8 -33 33 -46t61 -7q24 3 37.5 21t18.5 44v-1q3 19 -6 36.5t-24 29.5t-33.5 17.5t-34.5 0.5h-1z" />
    <glyph glyph-name="twothai" unicode="&#xe52;" horiz-adv-x="1487" 
d="M1192 1000q121 -59 181 -184t60 -323v-493h-1291v1355l163 -6v-1187h966v331q0 281 -146 359q-6 0 -21.5 -5.5t-38.5 -14.5h2l-154 -74q-50 27 -81 43.5t-59 27.5q-17 7 -31.5 11.5t-22.5 6.5q-41 -17 -70.5 -50.5t-49.5 -81.5q5 1 9 1h9q47 0 87.5 -17.5t70.5 -47.5
t47 -70.5t17 -87.5q0 -45 -17.5 -85t-47.5 -69t-70.5 -46t-86.5 -17q-45 0 -84.5 17.5t-69 47t-46.5 69t-17 83.5q0 405 269 511q10 3 20 5t21 2q73 0 208 -69q31 14 62.5 26.5t67.5 26.5q23 8 44 13t40 5q17 0 31.5 -3.5t28.5 -8.5v-1zM696 493q0 16 -6.5 30.5t-17.5 25
t-25 16.5t-30 6q-32 0 -53 -23t-21 -55q0 -31 21.5 -52t52.5 -21t55 21t24 52z" />
    <glyph glyph-name="threethai" unicode="&#xe53;" horiz-adv-x="1540" 
d="M1018 1010q76 0 142 -27.5t115.5 -75.5t78 -113t28.5 -141v-653h-162v653q0 41 -16 76.5t-44 62t-64.5 41.5t-77.5 15t-78 -15t-64.5 -41.5t-44 -62t-16.5 -76.5v-653h-163v653q0 41 -16 76.5t-43.5 62t-64 41.5t-77.5 15t-78 -15t-65 -41.5t-44.5 -62t-16.5 -76.5v-230
q16 5 30.5 6.5t28.5 1.5q44 0 83.5 -18t69.5 -49t47.5 -71t17.5 -83q0 -44 -17.5 -84t-47 -70.5t-69 -48.5t-84.5 -18q-46 0 -86.5 17.5t-70.5 47.5t-47 70.5t-17 85.5v443q0 76 28.5 141t78 113t116.5 75.5t143 27.5q80 0 156 -34t127 -96q50 65 125.5 97.5t158.5 32.5z
M306 283q-32 0 -55 -20.5t-23 -52.5t23 -54.5t55 -22.5t53 22.5t21 54.5t-21 52.5t-53 20.5z" />
    <glyph glyph-name="fourthai" unicode="&#xe54;" horiz-adv-x="1548" 
d="M593 848q-72 0 -135.5 -26t-111 -71.5t-75.5 -107.5t-28 -134q0 -69 28.5 -133.5t76.5 -113.5q48 -48 112 -73.5t133 -25.5q41 0 78 15t64.5 41t44 62t16.5 77v151q0 46 17 86t46.5 70t69.5 47.5t85 17.5q46 0 86.5 -17t70.5 -47t47 -70.5t17 -86.5q0 -45 -17.5 -85
t-47.5 -69t-70.5 -46t-85.5 -17q-11 0 -23.5 0.5t-23.5 2.5q10 -30 29.5 -54.5t45 -41.5t56 -26.5t63.5 -9.5h282v-163h-282q-95 0 -174 43h1q-34 18 -61.5 39t-49.5 49q-52 -64 -127 -97.5t-157 -33.5q-103 0 -197.5 38.5t-166.5 109.5q-72 74 -110 165t-38 196
q0 76 23 146.5t64.5 131t99 108t125.5 77.5q46 18 97.5 28t102.5 10h621q39 0 73 16t59.5 44.5t40.5 66.5t14 82h162q1 -77 -26.5 -144.5t-75.5 -118t-112 -79.5t-135 -29h-621zM1014 587q-32 0 -53 -23.5t-21 -54.5t21 -52.5t53 -21.5q31 0 54 21.5t23 52.5t-23 54.5
t-54 23.5z" />
    <glyph glyph-name="fivethai" unicode="&#xe55;" horiz-adv-x="1573" 
d="M593 848q-148 0 -250 -97q-100 -97 -100 -242t101 -246q102 -100 249 -100q41 0 77.5 15t64.5 41t44 62t16 77v151q0 44 17.5 84t47 70.5t69 48.5t84.5 18t85.5 -17.5t71 -47.5t48 -70t17.5 -86t-17.5 -86t-48 -70t-71 -47.5t-85.5 -17.5q-22 0 -46 6q10 -29 30 -53.5
t45.5 -41.5t55.5 -26.5t62 -9.5h283v-163h-283q-39 0 -79 9t-77 25.5t-69.5 41t-57.5 55.5q-51 -66 -126 -98.5t-158 -32.5q-103 0 -197 38t-167 110q-72 74 -110 165t-38 196q0 175 104 306q95 114 236 167q-7 17 -11 38.5t-4 44.5q0 46 17 86.5t46 70.5t69 47.5t85 17.5
q46 0 86.5 -17.5t70.5 -47.5t47 -70.5t17 -86.5q0 -28 -7 -55h376q36 0 70.5 16t60 43.5t40 66t11.5 83.5h164q2 -79 -25 -147t-74.5 -117.5t-112 -78t-137.5 -28.5h-617zM623 1143q-31 0 -52 -23t-21 -55q0 -31 21 -52t52 -21q32 0 55 21t23 52q0 32 -23 55t-55 23z
M1013 587q-32 0 -52.5 -23.5t-20.5 -54.5t20.5 -52.5t52.5 -21.5q31 0 54.5 21.5t23.5 52.5t-23 54.5t-55 23.5z" />
    <glyph glyph-name="sixthai" unicode="&#xe56;" horiz-adv-x="1217" 
d="M479 998q100 0 195 -39t165 -111v1q71 -71 110 -163t39 -194q0 -104 -40.5 -196.5t-110 -161.5t-162 -109.5t-196.5 -40.5q-124 0 -234 58q-105 59 -172 149q-24 30 -37 63t-13 76q0 46 17 85.5t46.5 69t69 46t84.5 16.5q46 0 86 -17t70 -46t47.5 -69t17.5 -85
q0 -48 -19.5 -92.5t-55.5 -75.5q21 -7 45 -11.5t48 -4.5q72 0 134.5 27.5t108.5 74.5t72.5 110t26.5 134q0 145 -99 244t-243 99h-362l-87 488l163 27l60 -352h226zM240 253q16 0 30.5 6.5t25 17t16.5 24.5t6 29q0 32 -23 53t-55 21q-31 0 -52 -21t-21 -53q0 -31 21 -54
t52 -23z" />
    <glyph glyph-name="seventhai" unicode="&#xe57;" horiz-adv-x="1548" 
d="M1492 1324v-982q0 -54 -10 -100.5t-30 -88.5v1q-37 -83 -102 -154h-149v653q0 42 -16 78t-44 62t-65 40.5t-79 14.5q-41 0 -77.5 -15.5t-64 -41.5t-44 -62t-16.5 -76v-289h-162v289q0 42 -16 77.5t-44 61.5t-64.5 41t-78.5 15q-41 0 -78 -15.5t-64.5 -41.5t-43.5 -62
t-16 -76v-229q15 5 29.5 6t29.5 1q91 0 155 -64q29 -37 45.5 -74.5t16.5 -82.5q0 -44 -17.5 -84t-47.5 -70.5t-69.5 -48.5t-82.5 -18q-93 0 -158 68v-1q-64 63 -64 154v443q0 76 28.5 141.5t78 113.5t116 75t142.5 27q88 0 159.5 -31t123.5 -98q51 66 125.5 97.5t158.5 31.5
q56 0 106.5 -14.5t93.5 -40.5t76.5 -63t55.5 -83v515h163zM209 210q0 -15 6.5 -28.5t17.5 -24.5t25 -17.5t29 -6.5q31 0 52.5 22.5t21.5 54.5q0 35 -20 54t-54 19q-32 0 -55 -20.5t-23 -52.5z" />
    <glyph glyph-name="eightthai" unicode="&#xe58;" horiz-adv-x="1597" 
d="M1305 657q46 0 86.5 -17.5t70.5 -47.5t47.5 -70.5t17.5 -86.5v-91q0 -75 -29 -141t-79 -114.5t-116.5 -77t-141.5 -28.5q-84 0 -158.5 35.5t-125.5 99.5q-53 -63 -126 -99t-157 -36q-106 0 -202 41q-71 30 -128 78.5t-97.5 110t-62.5 134t-22 149.5q0 106 41 197t111 158
t163 105t197 38h620q38 0 72 17t59 46t39 67.5t13 81.5h163q3 -78 -24.5 -146.5t-76.5 -119t-113.5 -80t-134.5 -29.5h-617q-72 0 -136 -25t-111.5 -69.5t-75 -106t-27.5 -134.5q0 -74 27 -138t74 -111t111 -74t138 -27q42 0 78.5 15t64 42t43.5 63t16 78v116h163v-116
q0 -42 16 -78t43.5 -63t64 -42t78.5 -15q46 0 87.5 19t69.5 53h-13q-44 0 -83.5 17t-69 46.5t-47 69t-17.5 84.5t17 85.5t46.5 71t69 48t84.5 17.5zM1232 435q0 -32 20.5 -52.5t52.5 -20.5t55 20.5t23 52.5t-23 55t-55 23t-52.5 -23t-20.5 -55z" />
    <glyph glyph-name="ninethai" unicode="&#xe59;" horiz-adv-x="1731" 
d="M1472 0h-179l-389 836h-314q-69 0 -133.5 -25.5t-112.5 -73.5q-100 -97 -100 -240q0 -73 28.5 -136t75.5 -109.5t109 -73.5t130 -27q24 0 47.5 3t48.5 11q-36 31 -56 76t-20 94q0 45 17.5 84.5t47 69t69 46.5t83.5 17q46 0 86 -17.5t70 -47t47.5 -69t17.5 -83.5
q0 -42 -13 -75t-36 -65q-67 -90 -175 -149q-54 -29 -114.5 -43.5t-123.5 -14.5q-48 0 -98 11.5t-93 29.5q-89 40 -160 110t-111 160q-40 94 -40 198q0 101 39 193t111 162t165.5 108.5t193.5 38.5h417l57 -119q74 119 245 119h123q14 85 30.5 178.5t30.5 176.5l159 -26
l-83 -492h-260q-94 0 -129 -52q-10 -14 -15.5 -31t-5.5 -36q0 -29 14 -68l-1 2zM752 335q0 -32 20 -55t52 -23q16 0 30.5 6.5t25 17t16.5 24.5t6 30q0 31 -23 52.5t-55 21.5q-31 0 -51.5 -21.5t-20.5 -52.5z" />
    <glyph glyph-name="angkhankhuthai" unicode="&#xe5a;" horiz-adv-x="1622" 
d="M871 0v914q-55 -53 -129 -78.5t-149 -25.5q-85 0 -158.5 21t-137.5 66q-132 88 -150 273v16q0 44 18 83t48 68t69.5 46t82.5 17t83.5 -16.5t71 -45t49 -68t18.5 -84.5q0 -26 -9.5 -53.5t-25.5 -53t-37.5 -47t-46.5 -36.5q29 -11 62.5 -17.5t62.5 -6.5q56 0 106.5 21.5
t88.5 58.5t60.5 87t22.5 107v139h170v-1385h-170zM447 1186q0 32 -23.5 55t-55.5 23q-31 0 -53.5 -23t-22.5 -55t22.5 -54.5t53.5 -22.5q16 0 30.5 6t25 16.5t17 24.5t6.5 30zM1245 0v1385h170v-1385h-170z" />
    <glyph glyph-name="khomutthai" unicode="&#xe5b;" horiz-adv-x="3482" 
d="M2746 572l-146 145l-387 -386l-450 451l-527 -526q-86 -77 -190.5 -118.5t-229.5 -41.5q-131 0 -245 49.5t-199.5 134.5t-134.5 199.5t-49 245.5q0 122 46.5 232t127.5 193t190.5 132t235.5 49h17.5t16.5 -1q46 -5 91 -25t81.5 -53t61.5 -78.5t31 -103.5v1q1 -9 1.5 -19
t0.5 -21q0 -41 -13.5 -74.5t-38.5 -68.5q-38 -51 -91.5 -77t-110.5 -26q-37 0 -73 11t-68 34q-48 34 -73.5 84.5t-25.5 110.5q0 27 5 51.5t16 50.5q-57 -27 -104.5 -68t-81.5 -92.5t-53 -113t-19 -128.5q0 -98 35.5 -183t97 -148t144.5 -99.5t177 -36.5q90 0 167 32t139 87
l645 645l450 -451l387 386l216 -215h512v-170h-582zM910 986q15 21 15 47q0 21 -9.5 41t-29.5 34l1 -1q-20 13 -49 13q-23 0 -43.5 -9t-35.5 -27l1 3q-14 -22 -14 -49q0 -20 10 -40.5t25 -34.5q11 -5 26 -9.5t27 -4.5q22 0 42 9.5t34 27.5z" />
    <glyph glyph-name="saraulowthai" unicode="&#xf718;" 
d="M-406 -774q45 0 85.5 -17t70.5 -46t47.5 -68.5t17.5 -85.5v-542h-162v330q-32 -9 -59 -9q-45 0 -85 17.5t-69.5 47.5t-46.5 70.5t-17 85.5t17.5 84.5t47 69t69 46.5t84.5 17zM-406 -1068q32 0 54.5 22.5t22.5 54.5t-22.5 53t-54.5 21t-53 -21t-21 -53t21 -54.5t53 -22.5z
" />
    <glyph glyph-name="sarauulowthai" unicode="&#xf719;" 
d="M-209 -773v-760h-474v328q-13 -3 -27.5 -5t-27.5 -2q-44 0 -83.5 17t-70.5 46.5t-49 69t-18 84.5t17.5 85.5t48 71t70.5 48t85 17.5t84.5 -17.5t69.5 -48t47 -71t17 -85.5v-376h147v598h164zM-738 -1068q32 0 52.5 20.5t20.5 52.5t-20.5 55t-52.5 23q-16 0 -30 -6
t-24.5 -16.5t-17 -25t-6.5 -30.5q0 -31 23 -52t55 -21z" />
    <glyph glyph-name="phinthulowthai" unicode="&#xf71a;" 
d="M-183 -859q0 -53 -37 -89q-19 -18 -40.5 -28t-47.5 -10q-28 0 -49.5 10t-41.5 28q-37 37 -37 89t37 89q38 38 91 38q52 0 89 -38q36 -35 36 -89z" />
    <glyph glyph-name="rulakkhangyao" unicode="&#xf881;" horiz-adv-x="2126" 
d="M1800 1260q68 -66 105.5 -154.5t37.5 -186.5v-1573h-163v1573q0 64 -24 122.5t-69 103.5t-105.5 69t-125.5 24q-133 0 -226 -93q-92 -92 -92 -226v-1603h-163v1523q0 81 -28.5 155t-79.5 131q-53 54 -124 85.5t-149 31.5q-65 0 -123 -19t-108 -61q-48 -38 -79.5 -87
t-51.5 -102q23 -17 45.5 -33t44.5 -33q32 -24 32 -64v-426q15 5 30.5 7t29.5 2q45 0 85 -18.5t69.5 -49t47 -71t17.5 -85.5t-17.5 -85t-47 -70t-69.5 -47.5t-85 -17.5q-47 0 -88 16.5t-71 46t-47.5 70t-17.5 87.5v599l-96 67l1 -1q-20 14 -29 35t-2 49q14 61 37.5 112.5
t49.5 93t52 71t46 46.5q18 14 48 35.5t73 42t99 35t125 14.5q112 0 212 -42t177 -123q18 -19 31.5 -35.5t27.5 -37.5q15 26 34 50.5t39 45.5q69 68 157 105t184 37q98 0 188 -37t157 -104h-1zM414 282q-16 0 -30.5 -6.5t-25.5 -17t-17.5 -25.5t-6.5 -31q0 -32 24 -53t56 -21
q31 0 52.5 21t21.5 53t-21.5 56t-52.5 24z" />
    <glyph glyph-name="lulakkhangyao" unicode="&#xf882;" horiz-adv-x="2278" 
d="M1953 1261q67 -65 105 -154.5t38 -186.5v-1573h-163v1573q0 64 -24.5 122.5t-69.5 103.5t-105 69t-125 24q-133 0 -226 -93q-92 -92 -92 -226v-1603h-164v1523q0 41 -6 81.5t-21 76.5q-14 37 -35.5 69.5t-44.5 58.5q-52 55 -124.5 86t-149.5 31q-64 0 -122.5 -19
t-108.5 -60q-48 -38 -79.5 -87t-51.5 -103q23 -17 45.5 -33t44.5 -33q15 -12 24 -28t9 -36v-641q0 -45 -17.5 -85t-48 -70t-71.5 -47.5t-88 -17.5q-44 0 -83.5 17t-70.5 47t-49 70t-18 86q0 45 17.5 85.5t48 71t70.5 49t85 18.5q28 0 60 -9v384l-96 67l1 -1
q-20 14 -28.5 35.5t-1.5 48.5q14 61 37 112.5t49 93t52 71t46 46.5q18 14 48.5 35.5t73 42t98.5 35t125 14.5q112 0 213 -42t177 -123q31 -34 58 -72q29 51 74 96q68 67 156 104t185 37t187.5 -37t157.5 -104h-1zM282 129q15 0 29 5.5t25.5 15.5t18 23.5t6.5 29.5t-6.5 30.5
t-17.5 25.5t-25 17.5t-30 6.5t-30 -6.5t-24 -17.5t-15.5 -25.5t-5.5 -30.5q0 -30 21 -52t54 -22z" />
    <glyph glyph-name="lochula.short" unicode="&#xf71d;" horiz-adv-x="1573" 
d="M1685 1295h-227v-1295h-155l-411 995q-101 -248 -204.5 -498.5t-203.5 -496.5h-154v967q-14 -4 -29.5 -6.5t-28.5 -2.5q-45 0 -84.5 18t-69 48.5t-47 70.5t-17.5 84t17 84.5t47 71t69.5 49t84.5 18.5q46 0 86 -18t70 -48.5t47.5 -71t17.5 -85.5v-727q49 118 99.5 242
t101.5 248t101 246t97 237l403 -975v845h-59q-45 0 -84.5 17.5t-69 47.5t-46.5 69.5t-17 84.5t16.5 85t46 70t69 47.5t85.5 17.5t86.5 -17t70.5 -47t47.5 -70t17.5 -86v-75h227v-144zM272 1106q31 0 54.5 21t23.5 52q0 16 -6.5 30.5t-17 25t-24.5 16.5t-30 6
q-32 0 -53.5 -23t-21.5 -55q0 -31 22 -52t53 -21zM1162 1514q0 -32 21.5 -53.5t52.5 -21.5q32 0 55 21.5t23 53.5q0 31 -23 53.5t-55 22.5q-30 0 -52 -22.5t-22 -53.5z" />
    <glyph glyph-name="uni25CC" unicode="&#x25cc;" horiz-adv-x="2744" 
d="M821 647l101 280q40 -57 85.5 -103t100.5 -88zM1360 1922l131 -262q-29 4 -48.5 6.5t-34 3.5t-24.5 1h-20q-19 0 -57 -4.5t-81 -9.5zM1361 427l-128 256q38 -5 74.5 -9.5t56.5 -4.5q19 0 52 5t68 11zM2110 1170l-258 -115q6 35 10.5 67.5t4.5 49.5q0 19 -4.5 56t-9.5 76z
M614 1180l266 130q-5 -43 -9.5 -81.5t-4.5 -56.5q0 -22 4.5 -56.5t9.5 -71.5zM853 1709l274 -95q-60 -38 -107 -83t-88 -99zM1867 649l-256 79q54 38 99 81t83 96zM1900 1709l-101 -279q-38 53 -84 98t-109 87z" />
    <glyph glyph-name="yamakkanleftthai" 
d="M-475 2352q-41 6 -52 6q-38 0 -57 -21.5t-19 -48.5q0 -28 25.5 -54t78.5 -33l-24 -142q-27 4 -52 -5.5t-43.5 -28t-29.5 -43.5t-11 -51q0 -38 30 -70.5t100 -42.5l-12 -140q-67 2 -116.5 25.5t-81.5 60.5t-48 83.5t-16 94.5q0 63 22.5 120.5t67.5 96.5q-24 32 -33.5 64.5
t-9.5 67.5q0 42 16 81t46 69t73.5 48t98.5 18q10 0 27.5 -1.5t43.5 -5.5z" />
    <glyph glyph-name="copyright" unicode="&#xa9;" horiz-adv-x="1929" 
d="M1858 884q0 -90 -18.5 -177.5t-53 -169t-84 -155t-112.5 -135.5t-137 -111t-155.5 -83t-168.5 -52t-177 -18q-89 0 -176 18t-169 52t-156 83t-138 111q-63 62 -112 135.5t-83 154.5t-52 169t-18 178t18 178t52 169.5t83 155t112 136.5q128 126 292 195.5t347 69.5
q91 0 178.5 -18t169 -52t155 -83t136.5 -112t112.5 -136.5t84 -155t52.5 -169t18 -178.5zM1686 884q0 72 -14.5 143t-42 138t-67.5 127t-91 111q-50 51 -110.5 91t-127 67.5t-138 41.5t-143.5 14q-149 0 -282.5 -55.5t-236.5 -158.5t-158 -238t-55 -281q0 -72 15 -143.5
t42.5 -138t67 -127t88.5 -111.5q51 -49 111.5 -88.5t127 -67t137.5 -42.5t143 -15q146 0 281 55t238 158q104 104 159.5 237.5t55.5 282.5zM796 1249q80 78 189 78q69 0 129 -33q29 -16 54.5 -42.5t50.5 -62.5l88 84q-61 85 -141 130q-82 44 -181 44q-39 0 -77 -8t-73 -22
q-71 -31 -124 -84q-26 -26 -46 -57t-37 -66q-30 -71 -30 -151v-347q0 -39 7.5 -77.5t22.5 -73.5q16 -35 36.5 -65.5t46.5 -56.5t57 -47.5t67 -35.5q35 -16 73 -23.5t77 -7.5q98 0 181 44q40 23 75.5 55t65.5 75l-88 83q-24 -35 -50 -61.5t-55 -42.5q-60 -33 -129 -33
q-111 0 -189 78q-78 76 -78 189v347q0 112 78 190z" />
    <glyph glyph-name="registered" unicode="&#xae;" horiz-adv-x="1810" 
d="M1803 875q0 -90 -18 -178t-52.5 -169t-83.5 -154.5t-112 -135.5t-136.5 -111t-155.5 -83t-169.5 -52t-177.5 -18t-177 18t-168.5 52t-156 83t-137.5 111t-112 135.5t-83.5 154.5t-52.5 169t-18 178q0 91 18 178.5t52.5 169t83.5 155t112 136.5t137 112t155 83t168.5 52
t178.5 18q183 0 347.5 -69t291.5 -196q63 -63 112 -136.5t83.5 -155t52.5 -169t18 -178.5zM1631 875q0 146 -55.5 281t-158.5 238q-50 51 -110 91t-127 67t-138 41.5t-144 14.5q-149 0 -282 -55.5t-237 -158.5q-103 -103 -158.5 -238t-55.5 -281q0 -72 15 -143.5t43 -138
t67.5 -127t88.5 -111.5q52 -49 112.5 -88.5t127 -67t137 -42.5t142.5 -15q73 0 144 14t137.5 41.5t126.5 67t111 90.5q104 104 159 237t55 283zM993 1420h-472v-1088h120v467h283l237 -467h133q-57 112 -119 235.5t-119 238.5q26 4 46.5 12t41.5 20h-1q26 14 47 31t40 38
q19 20 33 44t25 51q19 53 19 113q0 130 -91 218q-93 87 -223 87zM1130 978q-58 -58 -137 -58h-352v380h352q79 0 137 -53q29 -26 43 -59.5t14 -72.5q0 -80 -57 -137z" />
    <glyph glyph-name="trademark" unicode="&#x2122;" horiz-adv-x="1812" 
d="M779 1577h-303v-965h-137v965h-304v137h744v-137zM1701 1714v-1102h-138v842q-59 -93 -120.5 -188t-118.5 -186h-132l-240 375v-843h-138v1102h135l307 -483l310 483h135z" />
    <glyph glyph-name="multiply" unicode="&#xd7;" horiz-adv-x="1177" 
d="M716 694l312 -312l-133 -130l-311 309l-311 -309l-133 130l312 312l-316 315l131 132l317 -314l320 319l131 -134z" />
    <glyph glyph-name="divide" unicode="&#xf7;" horiz-adv-x="1241" 
d="M90 543v179h1059v-179h-1059zM737 959q0 -54 -35 -87q-33 -35 -87 -35q-52 0 -87 35h1q-35 33 -35 87q0 50 34 86q35 35 87 35q54 0 87 -35v1q35 -35 35 -87zM737 298q0 -23 -9 -45t-29 -40q-35 -36 -84 -36q-24 0 -46 8.5t-40 28.5l2 -1q-37 36 -37 85q0 24 9.5 44.5
t26.5 39.5q18 20 40 29t45 9q49 0 85 -38q18 -19 27.5 -39.5t9.5 -44.5z" />
    <glyph glyph-name="ZWSP" unicode="&#x200b;" 
 />
    <glyph glyph-name="yoyingthai" unicode="&#xe0d;" horiz-adv-x="1872" 
d="M1686 1393v-1393h-741v880q0 35 -7.5 71t-20.5 68q-23 48 -57.5 88.5t-78 70t-93.5 46.5t-104 17q-60 0 -116.5 -20.5t-103.5 -57t-81 -86t-49 -107.5l89 -65q35 -29 35 -67v-415q13 3 26.5 4t28.5 1q46 0 86.5 -17t70.5 -46.5t47.5 -69.5t17.5 -85q0 -47 -17 -87
t-47 -70t-70.5 -47t-87.5 -17q-45 0 -85 17t-69 47t-46 70.5t-17 86.5v586q-25 20 -50 37.5t-50 37.5l1 -1q-44 29 -33 77q5 45 20 91.5t38 87.5q34 61 83.5 112.5t110 88t129 57t139.5 20.5q79 0 152.5 -23.5t136 -66t112 -101.5t81.5 -130q41 -94 41 -203v-717h417v1230
h162zM413 284q-31 0 -52 -21t-21 -53q0 -31 20.5 -54t52.5 -23t55 22.5t23 54.5t-23 53t-55 21zM1686 -310v-144h-538q-43 0 -80.5 16t-65.5 44t-44.5 65.5t-16.5 80.5t16.5 80.5t44.5 65.5t65.5 44.5t80.5 16.5t80.5 -16.5t65.5 -44.5t44 -65.5t16 -80.5q0 -16 -2.5 -32
t-7.5 -30h342zM1085 -248q0 -26 18.5 -44t44.5 -18q27 0 44.5 17.5t17.5 44.5q0 26 -18 44.5t-44 18.5q-25 0 -44 -19t-19 -44z" />
    <glyph glyph-name="sterling" unicode="&#xa3;" horiz-adv-x="1171" 
d="M868 1022q5 68 -15.5 131t-59.5 111t-92.5 76.5t-115.5 28.5q-54 0 -104.5 -20t-88.5 -55.5t-61 -85t-23 -108.5q0 -60 22.5 -120t50.5 -122q15 -32 29.5 -63t29.5 -74h354v-181h-295q18 -75 30.5 -161t20.5 -197h486v-182h-943v182h264q-8 113 -22.5 198.5t-34.5 159.5
h-166v181h99l-31 67q-17 36 -32.5 70.5t-27 70t-18.5 73.5t-7 81q0 101 35 189t96 152.5t144.5 101.5t180.5 37q61 0 120.5 -17t112.5 -47.5t98 -73.5t78 -95.5t51.5 -113t18.5 -125.5v-69h-184z" />
    <glyph glyph-name="yen" unicode="&#xa5;" horiz-adv-x="1290" 
d="M915 862h331v-186h-425q-10 -20 -18 -34.5t-15.5 -28t-15.5 -29t-19 -36.5h493v-185h-507v-363h-199v363h-503v185h487l-66 128h-421v186h322l-350 677h221l407 -808q49 97 101.5 199.5t105 205.5t104.5 204.5t101 198.5h217z" />
    <glyph glyph-name="cent" unicode="&#xa2;" horiz-adv-x="1159" 
d="M1070 612q-32 -69 -74 -125.5t-92.5 -98.5t-107.5 -69.5t-119 -37.5v-172h-169v172q-91 15 -168.5 57.5t-134 106t-88.5 145.5t-32 176q0 95 33.5 176.5t91 144.5t134.5 105t164 57v169h169v-168q62 -11 121 -39t110 -71t91.5 -100t66.5 -126h-190q-33 60 -86 100
t-113 58v-610q119 32 200 150h193zM508 1072q-51 -14 -95.5 -42.5t-77.5 -67.5t-52.5 -88t-19.5 -104q0 -56 19.5 -107t52.5 -92t77.5 -70.5t95.5 -42.5v614z" />
    <glyph glyph-name="Euro" unicode="&#x20ac;" horiz-adv-x="1901" 
d="M1826 439q-53 -106 -131 -192.5t-171.5 -147.5t-200 -94.5t-216.5 -33.5q-136 0 -258 40.5t-222 113.5t-173.5 174.5t-113.5 223.5h-272v187h235q-1 15 -1 31.5v32.5q0 21 -1 31.5t2 31.5h-235v186h271q41 120 114.5 219.5t171.5 170.5t217 110.5t253 39.5
q100 0 207.5 -29.5t206.5 -87t181.5 -142.5t130.5 -197h-217q-42 65 -99.5 114t-124 82t-138.5 49.5t-143 16.5q-88 0 -169.5 -26t-151.5 -72.5t-126.5 -109.5t-93.5 -138h719v-186h-772q-2 -16 -3.5 -32.5t-1.5 -30.5t1.5 -31.5t3.5 -32.5h772v-187h-720q36 -81 92 -147
t127.5 -112.5t155.5 -72t175 -25.5q74 0 145.5 19.5t136.5 55t121 86t99 112.5h217z" />
    <glyph glyph-name="onequarter" unicode="&#xbc;" horiz-adv-x="1556" 
d="M1377 1544l-1003 -1543h-197l1008 1543h192zM195 623v763h-139v159h300v-922h-161zM1496 335v-159h-85v-175h-158v175h-386v128l395 620h149v-589h85zM1253 335v278l-177 -278h177z" />
    <glyph glyph-name="onehalf" unicode="&#xbd;" horiz-adv-x="1663" 
d="M1375 1543l-1002 -1543h-198l1009 1543h191zM1176 227q-7 -14 -12 -31t-10 -37h436v-159h-607l1 83q5 55 16 110.5t29 95.5q28 62 66.5 108.5t92.5 80.5q9 5 19 11t29 16t48.5 25.5t77.5 40.5q12 6 24.5 13.5t23 17.5t17 21.5t6.5 23.5q0 24 -10 44.5t-27 35t-39 23
t-45 8.5h-68q-39 0 -67 -18q-28 -17 -44 -46q-1 -3 -5 -11t-8.5 -16t-9 -15.5t-5.5 -10.5l-117 117l19 32q19 29 44 52t55 40h-1q59 34 139 34h68q58 0 108 -21t88 -56.5t61 -86.5v1q11 -25 16 -51.5t5 -54.5q0 -27 -5 -50.5t-19 -46.5l1 1q-20 -38 -53 -66.5t-71 -48.5h1
l-47 -23q-29 -15 -63.5 -33t-60.5 -35q-32 -19 -56 -49t-41 -69zM195 622v763h-140v159h299v-922h-159z" />
    <glyph glyph-name="threequarters" unicode="&#xbe;" horiz-adv-x="1634" 
d="M517 693q-81 -78 -191 -78h-64q-72 0 -133 35q-29 16 -52.5 39.5t-42.5 53.5l1 -2l-21 31l120 119l28 -57q12 -26 40 -43q25 -17 60 -17h64q25 0 44 7.5t35 24.5q32 32 32 79q0 50 -32 82t-79 32h-162v158h162q49 0 79 31q32 31 32 80q0 48 -32 79q-32 33 -79 33h-64
q-33 0 -60 -18q-27 -16 -40 -44l-28 -56l-120 120l21 31l-1 -2q37 60 95 93q62 34 133 34h64q110 0 191 -78q39 -40 59 -87.5t20 -104.5q0 -71 -35 -132q-9 -15 -20 -30.5t-24 -28.5q14 -13 23.5 -28t20.5 -34v2q35 -58 35 -132q0 -110 -78 -191zM1464 1544l-1002 -1543
h-198l1010 1543h190zM1583 335v-159h-83v-175h-159v175h-387v128l395 620h151v-589h83zM1341 335v278l-177 -278h177z" />
    <glyph glyph-name="saraamleft" horiz-adv-x="1212" 
d="M-725 1575q-44 0 -83.5 17t-69 46t-47 68.5t-17.5 83.5q0 45 17 85t46 70t69 47.5t85 17.5q46 0 86 -17t70 -47t47 -70t17 -86q0 -45 -17.5 -84t-47.5 -68.5t-70 -46t-85 -16.5zM-725 1867q-32 0 -52.5 -23t-20.5 -54t21 -52t52 -21t53.5 21t22.5 52q0 32 -22.5 54.5
t-53.5 22.5zM997 0h-162v913q0 65 -24 123t-69 103v-1q-45 45 -104.5 69t-123.5 24t-122.5 -27t-102.5 -73.5t-69 -109t-22 -133.5h-164q0 124 39 211q35 87 101 153t153 102q90 38 187 38q95 0 185.5 -37t156.5 -105v1q66 -66 103.5 -153.5t37.5 -184.5v-913z" />
    <glyph glyph-name="uni0E33.alt1" horiz-adv-x="1212" 
d="M-725 1575q-44 0 -83.5 17t-69 46t-47 68.5t-17.5 83.5q0 45 17 85t46 70t69 47.5t85 17.5q46 0 86 -17t70 -47t47 -70t17 -86q0 -45 -17.5 -84t-47.5 -68.5t-70 -46t-85 -16.5zM-725 1867q-32 0 -52.5 -23t-20.5 -54t21 -52t52 -21t53.5 21t22.5 52q0 32 -22.5 54.5
t-53.5 22.5zM997 0h-162v913q0 65 -24 123t-69 103v-1q-45 45 -104.5 69t-123.5 24t-122.5 -27t-102.5 -73.5t-69 -109t-22 -133.5h-164q0 124 39 211q35 87 101 153t153 102q90 38 187 38q95 0 185.5 -37t156.5 -105v1q66 -66 103.5 -153.5t37.5 -184.5v-913z" />
    <glyph glyph-name="guillemotleft" unicode="&#xab;" horiz-adv-x="872" 
d="M658 198l-253 434l252 431l167 -82l-203 -349l203 -348zM312 197l-257 435l257 431l160 -82l-202 -349l203 -347z" />
    <glyph glyph-name="guillemotright" unicode="&#xbb;" horiz-adv-x="872" 
d="M553 197l-161 87l202 348l-202 349l161 82l258 -431zM203 197l-161 87l202 349q-48 84 -101 175t-101 173l161 82l257 -431z" />
    <glyph glyph-name="thothannobasethai" unicode="&#xf700;" horiz-adv-x="1176" 
d="M590 1402q86 0 168.5 -29t151 -81.5t118.5 -126.5t72 -164l-156 -44q-17 63 -52.5 115t-82.5 89t-103.5 57.5t-115.5 20.5q-56 0 -110 -17.5t-99.5 -49.5t-80 -76.5t-50.5 -97.5l638 -55v-944h-145q-106 62 -166 135q-31 37 -54.5 82t-38.5 96q-3 9 -4.5 14.5t-3 10.5
t-3.5 11t-5 17q-27 -19 -55.5 -26t-61.5 -7q-46 0 -86 17t-70 46t-47 69t-17 85q0 46 17 86.5t47 70.5t70 47.5t86 17.5q36 0 73.5 -15t64.5 -37q47 -39 68 -98l83 -265q13 -48 32 -81.5t52 -60.5v581q-130 11 -258.5 22t-259.5 21q-15 1 -33.5 3t-37.5 3.5t-37 3.5t-32 3
v27q0 54 13 115q20 90 67.5 165t115 129.5t151.5 84.5t177 30zM351 476q32 0 53.5 21t21.5 52q0 32 -21.5 55t-53.5 23q-31 0 -54 -23t-23 -55q0 -30 23 -51.5t54 -21.5z" />
    <glyph glyph-name="exclam" unicode="!" horiz-adv-x="615" 
d="M203 0v272h192v-272h-192zM203 396v1143h192v-1143h-192z" />
    <glyph glyph-name="quotedbl" unicode="&#x22;" horiz-adv-x="720" 
d="M317 1034h-161l-27 504h215zM561 1034h-157l-27 504h212z" />
    <glyph glyph-name="numbersign" unicode="#" horiz-adv-x="1403" 
d="M983 415l-66 -416h-194l71 416h-337q-8 -49 -16.5 -102t-17.5 -107t-17.5 -106.5t-15.5 -100.5h-189l67 416h-244l27 188h242q9 57 18 110t17.5 105.5t17 105.5t18.5 110h-239l27 189h232l57 315h192l-50 -315h329l59 315h193l-50 -315h251l-27 -189h-254
q-9 -56 -17.5 -109t-17 -105.5t-17 -106t-17.5 -110.5h254l-34 -188h-252zM892 1034h-339q-9 -56 -17.5 -109t-16.5 -105.5t-16.5 -106t-17.5 -110.5h338z" />
    <glyph glyph-name="dollar" unicode="$" horiz-adv-x="1250" 
d="M1053 652q29 -38 45 -84.5t16 -101.5q0 -85 -41 -162q-20 -36 -45.5 -68.5t-59.5 -61.5q-32 -26 -73.5 -49t-83.5 -38q-47 -17 -99 -24v-172h-178v172q-24 4 -46.5 9.5t-44.5 13.5q-45 14 -82.5 34t-72.5 45q-33 26 -60.5 56.5t-48.5 66.5h1q-43 73 -47 153l-1 29l180 34
v-37q2 -48 24 -88.5t67 -72.5q58 -43 131 -59v469q-85 26 -154.5 61t-117.5 74q-58 51 -89.5 116t-31.5 139q0 83 40 160v-1q19 36 46 70t59 61q34 27 72.5 49t82.5 38l-1 -1q23 9 47 15t47 10v169h178v-169q23 -4 46 -9t45 -13q43 -15 81.5 -35.5t70.5 -46.5
q63 -55 104 -124q43 -74 46 -154l1 -29l-180 -30v40q0 45 -21.5 84.5t-63.5 72.5q-27 20 -62 36.5t-67 24.5v-470q7 -2 14.5 -4.5t14.5 -4.5l21 -6h-1q41 -11 80 -28t77 -40q77 -48 134 -118zM933 466q0 61 -57 112t-164 89v-421q37 8 71.5 23t63.5 37q86 64 86 160z
M321 1106q0 -64 53.5 -114.5t159.5 -87.5v420q-72 -16 -129 -61q-84 -66 -84 -157z" />
    <glyph glyph-name="percent" unicode="%" horiz-adv-x="1506" 
d="M1353 549q97 -96 97 -238q0 -141 -97 -238q-99 -99 -239 -99q-141 0 -241 99h1q-100 97 -100 238q0 142 100 238h-1q100 99 241 99q140 0 239 -99zM1233 192q50 50 50 119t-50 119t-119 50q-34 0 -65.5 -13.5t-57.5 -36.5q-24 -25 -37.5 -54.5t-13.5 -64.5t13.5 -64.5
t38.5 -54.5h-1q52 -49 123 -49q70 0 119 49zM343 894q-142 0 -238 97q-99 99 -99 239q0 142 99 238q96 98 238 98q139 0 240 -98h-1q101 -96 101 -238t-100 -239q-98 -97 -240 -97zM224 1349q-50 -50 -50 -119q0 -72 50 -120q48 -49 119 -49q72 0 122 50q51 47 51 119
q0 71 -51 119q-53 51 -122 51q-68 0 -119 -51zM1348 1544l-1002 -1543h-198l1010 1543h190z" />
    <glyph glyph-name="ampersand" unicode="&#x26;" horiz-adv-x="1406" 
d="M1351 72l-116 -116l-220 231q-41 -49 -91.5 -89t-108.5 -68t-120.5 -43.5t-127.5 -15.5q-71 0 -136.5 21t-122 58.5t-101.5 90.5t-74 117q-36 82 -36 180q0 75 21 138.5t59.5 115.5t91.5 93t117 71q-26 26 -50.5 52t-49.5 52q-49 56 -79.5 124t-30.5 148q0 76 31.5 148.5
t83.5 126.5q57 54 126 85t150 31q77 0 150 -31t127 -84q54 -54 84 -126.5t30 -149.5q0 -158 -90 -285v1q-76 -107 -188 -165l283 -296q3 24 3 55q0 47 -14 94t-34 92l-19 41l191 -2q48 -110 48 -225q0 -98 -38 -203zM564 912q87 25 154 110q73 93 73 210q0 90 -66 156
q-69 67 -158 67t-156 -67q-32 -32 -49.5 -71.5t-17.5 -84.5q0 -46 18 -85t47 -71zM564 143q49 0 96.5 11.5t90.5 33t79.5 53.5t63.5 73l-389 416q-50 -14 -93.5 -40t-76 -62t-51.5 -82t-19 -100q0 -30 6 -60t18 -58q18 -41 46 -75t64 -58.5t78 -38t87 -13.5zM900 315l3 12
l-9 -13l13 -14z" />
    <glyph glyph-name="quotesingle" unicode="'" horiz-adv-x="471" 
d="M315 1014h-161l-27 525h215z" />
    <glyph glyph-name="parenleft" unicode="(" horiz-adv-x="680" 
d="M192 1188q97 237 277 417l30 30l122 -139l-26 -27v1q-75 -77 -133.5 -165.5t-99.5 -188.5q-42 -102 -62 -210t-20 -222q0 -235 82 -429q83 -198 233 -357v1l26 -28l-123 -138l-30 31q-87 90 -154.5 193.5t-117.5 221.5q-101 235 -101 505t97 505v-1z" />
    <glyph glyph-name="parenright" unicode=")" horiz-adv-x="662" 
d="M468 1185q48 -117 73 -243.5t25 -260.5q0 -135 -25.5 -261.5t-75.5 -244.5q-50 -117 -118 -221t-155 -194l-30 -30l-123 138l27 28v-1q149 158 232 357q83 195 83 429q0 227 -83 431q-41 100 -99 188.5t-133 165.5v-1l-27 28l123 139l30 -31q90 -90 159 -193.5
t117 -223.5v1z" />
    <glyph glyph-name="asterisk" unicode="*" horiz-adv-x="1242" 
d="M751 1197l235 -325l-155 -94l-225 322l-217 -328l-145 110l220 318q-89 26 -184.5 55t-182.5 54l63 172l366 -115l-4 371h184l-5 -371q89 29 185 58.5t182 56.5l63 -172z" />
    <glyph glyph-name="plus" unicode="+" horiz-adv-x="1288" 
d="M1190 559h-456v-456h-188v456h-456v188h456v456h188v-456h456v-188z" />
    <glyph glyph-name="comma" unicode="," horiz-adv-x="613" 
d="M334 -154h-180l171 456h269z" />
    <glyph glyph-name="hyphen" unicode="-" horiz-adv-x="1224" 
d="M120 542v184h976v-184h-976z" />
    <glyph glyph-name="period" unicode="." horiz-adv-x="623" 
d="M184 0v259h260v-259h-260z" />
    <glyph glyph-name="slash" unicode="/" horiz-adv-x="897" 
d="M247 -257h-198l619 1876h192z" />
    <glyph glyph-name="zero" unicode="0" horiz-adv-x="1097" 
d="M543 -29q-101 0 -193.5 39t-161.5 108q-33 32 -60.5 73t-47.5 86q-19 45 -29.5 95t-10.5 102v507q0 100 39.5 191.5t108.5 160.5q70 70 161.5 109t193.5 39q49 0 98 -10t94.5 -29.5t87 -47t75.5 -61.5q70 -69 110 -161t40 -191v-507q0 -51 -11.5 -102t-29.5 -95
q-20 -45 -47.5 -85.5t-60.5 -73.5v1q-34 -35 -75.5 -62t-87.5 -46.5t-95 -29.5t-98 -10zM543 1311q-140 0 -237 -96q-96 -95 -96 -234v-507q0 -137 97 -236q97 -97 236 -97q141 0 234 96q48 49 72.5 107.5t24.5 129.5v507q0 137 -97 234q-96 96 -234 96z" />
    <glyph glyph-name="one" unicode="1" horiz-adv-x="1041" 
d="M694 0h-170v1316h-242v170h412v-1486z" />
    <glyph glyph-name="two" unicode="2" horiz-adv-x="1114" 
d="M476 597l1 1q-65 -41 -111.5 -98t-81.5 -135q-19 -40 -31.5 -89t-20.5 -106h776v-170h-958q0 48 1.5 81.5t6.5 66.5v-1q8 85 25 155.5t42 127.5q45 96 108.5 176t147.5 132q29 17 52 30t44 25q16 8 32 16.5t34 19.5q28 14 50 25.5t45 22.5v-1l48 23h-1q22 12 41 25t36 27
q32 26 54 57.5t22 70.5q0 107 -79 177q-81 73 -185 73h-121q-42 0 -77.5 -10t-67.5 -29q-31 -19 -58.5 -52t-53.5 -79l-127 127q35 51 78 91.5t91 67.5q47 26 101 40t114 14h121q45 0 86.5 -8.5t80.5 -24.5q79 -31 138 -89q32 -29 55.5 -63t40.5 -72q16 -38 24.5 -78.5
t8.5 -84.5q0 -75 -34 -137t-86 -109q-23 -21 -52 -40t-58 -35q-20 -11 -40 -20.5t-37 -18.5l-80 -42z" />
    <glyph glyph-name="three" unicode="3" horiz-adv-x="1064" 
d="M884 857q-45 -77 -114 -129q35 -27 63 -60t51 -72q53 -94 53 -206q0 -175 -122 -297q-124 -122 -297 -122h-113q-112 0 -205 54q-96 55 -160 160l127 129q23 -48 48.5 -81.5t56.5 -52.5q58 -38 133 -38h113q108 0 177 72q72 74 72 176q0 106 -72 181q-70 73 -177 73h-230
v170h230q106 0 177 72q72 72 72 176q0 106 -72 178q-71 72 -177 72h-113q-72 0 -133 -38q-60 -38 -105 -134l-127 128q33 55 72.5 94.5t86.5 66.5q94 53 206 53h113q175 0 297 -122q122 -121 122 -298q0 -111 -53 -205z" />
    <glyph glyph-name="four" unicode="4" horiz-adv-x="1052" 
d="M986 472v-170h-144v-302h-170v302h-669v152l660 1036h179v-1018h144zM672 472v715q-58 -91 -114.5 -179t-112.5 -176t-112.5 -177.5t-115.5 -182.5h455z" />
    <glyph glyph-name="five" unicode="5" horiz-adv-x="1026" 
d="M469 979q218 0 362 -130q142 -131 142 -334v-40q0 -103 -40 -195q-20 -47 -47 -87t-61 -74q-33 -33 -73 -60t-85 -47q-93 -41 -198 -41q-139 0 -255 73q-58 36 -106.5 87t-82.5 115l127 130q29 -61 62.5 -106t73.5 -73q39 -29 84.5 -42t96.5 -13q139 0 236 97
q98 98 98 236v40q0 131 -90 212v-1q-94 83 -244 83h-399v665h842v-170h-672v-325h229z" />
    <glyph glyph-name="six" unicode="6" horiz-adv-x="1090" 
d="M536 1018q100 0 191.5 -39.5t160.5 -108.5q71 -71 109.5 -162t38.5 -194v-40q0 -100 -39.5 -193.5t-108.5 -162.5t-160.5 -108t-191.5 -39t-193 38.5t-162 109.5v-1q-69 69 -109 162.5t-40 193.5v471q0 107 42 207.5t116 174.5q77 76 174.5 117t208.5 41q56 0 112.5 -13
t109.5 -37.5t101 -61t88 -83.5l-118 -123q-63 69 -137 108.5t-156 39.5q-155 0 -263 -108q-108 -110 -108 -262v-55q70 63 153.5 95.5t180.5 32.5zM866 514q0 138 -96 236q-97 98 -234 98q-138 0 -236 -98q-48 -49 -73 -108t-25 -128v-40q0 -70 25 -128.5t73 -107.5
q97 -97 236 -97q138 0 234 97t96 236v40z" />
    <glyph glyph-name="seven" unicode="7" horiz-adv-x="1135" 
d="M1046 1490l-445 -1490h-177l395 1321h-717v169h944z" />
    <glyph glyph-name="eight" unicode="8" horiz-adv-x="1170" 
d="M1037 1062q0 -101 -45.5 -182t-121.5 -141q45 -26 83 -59.5t67 -71.5q35 -48 54.5 -101.5t19.5 -112.5v-4q0 -85 -41 -164q-42 -80 -115.5 -136t-158.5 -87q-45 -16 -95 -24t-102 -8q-107 0 -200 32q-42 14 -82.5 35.5t-76.5 50t-65.5 63t-50.5 75.5v-1q-41 79 -41 164v4
q0 59 19 112.5t55 101.5q30 40 67.5 73t82.5 59q-76 59 -121.5 140.5t-45.5 181.5v4q0 63 22.5 122t60.5 110t88.5 91.5t107.5 64.5q41 15 86.5 23.5t93.5 8.5q46 0 90.5 -8.5t85.5 -23.5q80 -32 143 -89.5t100 -133.5h-1q37 -80 37 -165v-4zM924 394q0 61 -32 107.5
t-81.5 78t-110 48t-118.5 16.5q-44 0 -91 -10t-90 -29.5t-79.5 -48.5t-59.5 -67q-12 -23 -19 -47t-7 -48v-4q0 -48 26 -94q22 -40 58 -69t79.5 -48t90.5 -28t92 -9q57 0 118 16t110.5 47.5t81.5 77.5t32 107v4zM292 1062q0 -104 85 -175q43 -38 94 -55.5t111 -17.5
q120 0 202 73q83 70 83 175v4q0 55 -24.5 100.5t-64.5 78t-91 50t-105 17.5t-106 -17.5t-93 -50t-66 -78t-25 -100.5v-4z" />
    <glyph glyph-name="nine" unicode="9" horiz-adv-x="1098" 
d="M532 437q-100 0 -191 39.5t-160 109.5h1q-72 70 -111 162t-39 194v40q0 49 10.5 99t29.5 95q30 67 78 123.5t108 97.5t130 64.5t144 23.5q75 0 145.5 -23t131 -64t108.5 -98t78 -124q20 -45 30.5 -95t10.5 -99v-472q0 -111 -43 -209t-116.5 -171.5t-171.5 -116
t-209 -42.5q-56 0 -112 13t-109.5 38t-101.5 61t-88 82l118 124q62 -70 136 -109t157 -39q76 0 143.5 29t118 79t79.5 117t29 144v55q-69 -60 -153.5 -94t-180.5 -34zM202 942q0 -66 26 -128.5t71 -107.5q47 -47 107 -73t126 -26q138 0 236 99q98 96 98 236v40
q0 69 -26.5 129.5t-71.5 105.5t-106 71.5t-130 26.5q-50 0 -96.5 -15t-86 -42t-70.5 -64.5t-50 -82.5q-27 -63 -27 -129v-40z" />
    <glyph glyph-name="colon" unicode=":" horiz-adv-x="630" 
d="M185 863v260h259v-260h-259zM185 0v258h259v-258h-259z" />
    <glyph glyph-name="semicolon" unicode=";" horiz-adv-x="595" 
d="M229 -137h-180l170 456h269zM211 864v260h259v-260h-259z" />
    <glyph glyph-name="less" unicode="&#x3c;" horiz-adv-x="1276" 
d="M334 661q212 -100 427 -201.5t426 -201.5v-193l-1106 522v149l1106 523v-191z" />
    <glyph glyph-name="equal" unicode="=" horiz-adv-x="1157" 
d="M85 676v184h975v-184h-975zM85 334v184h975v-184h-975z" />
    <glyph glyph-name="greater" unicode="&#x3e;" horiz-adv-x="1273" 
d="M77 1064v191l1106 -523v-149l-1106 -522v194l853 403z" />
    <glyph glyph-name="question" unicode="?" horiz-adv-x="1042" 
d="M368 250h180v-250h-180v250zM891 1326q31 -71 31 -153q0 -143 -84 -245q-42 -48 -82 -90t-80 -76q-47 -37 -88 -111q-40 -75 -40 -183v-116h-180v116q0 46 5.5 88.5t16.5 77.5q10 34 24 66t31 59q34 54 73 90q17 18 34.5 33.5t31.5 29.5q36 32 66 64.5t53 64.5
q44 56 44 132q0 93 -67 154q-69 63 -164 63h-49q-67 0 -123 -34q-29 -17 -51.5 -41t-37.5 -53l-21 -32l-126 126l14 30q53 77 144 130q91 50 201 50h49q80 0 156 -31q37 -15 69.5 -35.5t61.5 -47.5q54 -55 88 -125v-1z" />
    <glyph glyph-name="at" unicode="@" horiz-adv-x="1878" 
d="M1513 1422q52 -49 93 -108t68.5 -125t42 -137.5t14.5 -145.5q0 -98 -19 -200t-65 -188q-45 -84 -113.5 -134.5t-168.5 -50.5q-26 0 -55.5 9t-57 24.5t-51.5 37.5t-39 48q-54 -57 -123.5 -80.5t-150.5 -23.5q-94 0 -169 32t-127 89t-79.5 135t-27.5 170q0 94 32.5 182
t94.5 157q63 66 147.5 101t177.5 35q51 0 96 -9t82 -26q23 -11 47 -29t46 -42l13 90h181l-69 -563l-19 -117v1q-2 -13 4.5 -22t17 -15t24 -9t25.5 -3q18 0 34.5 11t31 27.5t27 36.5t21.5 38h-1q31 65 45.5 139t14.5 149q0 54 -12.5 108t-35 104.5t-53.5 96t-67 82.5
q-87 77 -200 116.5t-235 39.5q-65 0 -128.5 -12.5t-122.5 -37t-112.5 -60t-97.5 -81.5q-92 -93 -140.5 -213t-48.5 -253q0 -85 22.5 -170t61.5 -159q42 -75 102 -135t135 -100q75 -42 167.5 -63t204.5 -21q28 0 61.5 5t68 12.5t68 17t60.5 18.5l28 2l72 -172l-39 -2
q-74 -24 -156 -38.5t-163 -14.5q-188 0 -351 61q-157 60 -274.5 168t-183.5 262q-32 76 -48.5 159.5t-16.5 173.5q0 169 63 321t180 269q58 58 127 103t145.5 75t158.5 45.5t166 15.5q155 0 296 -52t253 -155zM896 520q54 0 107 26t88 68q20 22 35 48t29 56v-1q24 58 24 125
q0 104 -65 169q-64 65 -173 65q-117 0 -196 -84q-39 -43 -59.5 -97.5t-20.5 -120.5q0 -52 16.5 -98.5t46.5 -81t72.5 -54.5t95.5 -20z" />
    <glyph glyph-name="A" unicode="A" horiz-adv-x="1053" 
d="M605 1541l466 -1540h-182l-90 314h-555l-92 -314h-181l466 1540h168zM521 1208l-228 -744h456z" />
    <glyph glyph-name="B" unicode="B" horiz-adv-x="1159" 
d="M987 1421q127 -121 127 -302q0 -113 -58 -205q-52 -79 -120 -131q36 -29 66 -63t54 -72q58 -99 58 -211q0 -44 -9 -87t-24 -81q-17 -38 -40.5 -74t-52.5 -65t-64.5 -53.5t-73.5 -41.5q-39 -17 -82 -26t-86 -9h-564v1540h564q90 0 166 -30t139 -89zM944 437q0 107 -78 185
t-184 78h-394v-530h394q106 0 184 78t78 189zM867 941q77 71 77 178q0 113 -77 182v-1q-38 35 -85 52.5t-100 17.5h-394v-501h394q107 0 185 72z" />
    <glyph glyph-name="C" unicode="C" horiz-adv-x="1131" 
d="M337 1282q-111 -111 -111 -269v-492q0 -159 111 -268q111 -111 269 -111q100 0 182 47q41 23 78 60t71 87l125 -118q-85 -119 -200 -184q-59 -31 -122.5 -47t-133.5 -16q-112 0 -214 44q-51 21 -94.5 51t-80.5 67t-66 80.5t-52 93.5q-43 101 -43 214v492q0 113 43 214
q23 51 52.5 94.5t65.5 80.5q74 74 175 118q103 43 214 43q140 0 256 -63q113 -62 200 -184l-125 -119q-35 51 -71.5 88.5t-77.5 60.5q-85 47 -182 47q-156 0 -269 -111z" />
    <glyph glyph-name="D" unicode="D" horiz-adv-x="1214" 
d="M952 1378q36 -36 65.5 -81t51.5 -93q20 -49 32 -105t12 -110v-444q0 -53 -12 -108.5t-32 -102.5q-22 -48 -51.5 -92.5t-65.5 -80.5q-72 -72 -173 -118q-100 -43 -212 -43h-450v1539h450q112 0 212 -43q100 -45 173 -118zM943 989q0 80 -30 148q-14 35 -34.5 65t-46.5 56
t-56 46.5t-65 35.5q-70 29 -144 29h-280v-1199h280q75 0 144 30q35 14 65 34.5t56 46.5q52 52 81 119q30 66 30 145v444z" />
    <glyph glyph-name="E" unicode="E" horiz-adv-x="1217" 
d="M287 170h830v-170h-1000v1539h1000v-170h-830v-495h705l-33 -170h-672v-534z" />
    <glyph glyph-name="F" unicode="F" horiz-adv-x="1198" 
d="M963 691h-673v-691h-169v1539h995v-170h-826v-508h700z" />
    <glyph glyph-name="G" unicode="G" horiz-adv-x="1240" 
d="M1010 1400q38 -38 68 -83t52 -96q43 -104 43 -238h-174q0 184 -111 298q-110 112 -273 112q-81 0 -150 -28.5t-126 -84.5q-56 -57 -84.5 -125.5t-28.5 -150.5v-474q0 -81 28.5 -149.5t84.5 -124.5q57 -57 126.5 -85.5t149.5 -28.5q164 0 273 113q56 56 83.5 125t27.5 150
v71h-406v170h580v-241q0 -112 -43 -216q-21 -49 -53 -95.5t-68 -82.5q-38 -37 -83 -68.5t-95 -51.5q-51 -22 -105.5 -33.5t-110.5 -11.5q-57 0 -111.5 11.5t-105.5 33.5q-50 21 -95 51.5t-83 69.5v-1q-38 37 -68 82.5t-51 95.5q-20 48 -32.5 105t-12.5 111v474q0 115 45 217
q41 99 119 178q38 38 83 68t95 53q104 43 217 43q112 0 216 -43q104 -45 179 -120z" />
    <glyph glyph-name="H" unicode="H" horiz-adv-x="1368" 
d="M288 870h772v668h170v-1538h-170v700h-772v-700h-170v1538h170v-668z" />
    <glyph glyph-name="I" unicode="I" horiz-adv-x="428" 
d="M127 1539h170v-1539h-170v1539z" />
    <glyph glyph-name="J" unicode="J" horiz-adv-x="735" 
d="M102 196l25 -20q5 -2 8 -3t9 -6h2q14 -8 27 -12.5t27 -7.5h-4q1 -1 5 -1h6l14 -2q5 -1 9.5 -2t6.5 -1q84 0 143 57q58 56 58 139v1201h169v-1201q0 -151 -106 -259q-54 -53 -120 -80t-144 -27q-136 0 -254 106zM147 165q0 -1 1 -1l4 -2z" />
    <glyph glyph-name="K" unicode="K" horiz-adv-x="1223" 
d="M434 772l812 -772h-243l-715 681v-681h-170v1539h170v-677l648 677h232z" />
    <glyph glyph-name="L" unicode="L" horiz-adv-x="1125" 
d="M285 170h826v-170h-996v1539h170v-1369z" />
    <glyph glyph-name="M" unicode="M" horiz-adv-x="1481" 
d="M290 1539l445 -698l450 698h172v-1539h-169v1229l-365 -569h-170l-365 569v-1229h-170v1539h172z" />
    <glyph glyph-name="N" unicode="N" horiz-adv-x="1358" 
d="M289 1539l771 -1224v1224h170v-1539h-172l-771 1224v-1224h-170v1539h172z" />
    <glyph glyph-name="O" unicode="O" horiz-adv-x="1175" 
d="M945 1405q35 -35 63 -77t48 -90t31 -98.5t11 -102.5v-545q0 -54 -10.5 -105t-30.5 -98q-22 -48 -50 -89t-62 -76q-34 -33 -76 -61.5t-89 -49.5q-45 -20 -96 -31t-103 -11q-110 0 -203 42q-93 40 -165 111q-33 33 -61 75.5t-50 89.5q-20 46 -30.5 97.5t-10.5 105.5v545
q0 105 41 201q42 97 111 167q35 35 76.5 62.5t88.5 48.5q47 20 97.5 31t105.5 11q51 0 102.5 -11t96.5 -31q47 -22 89 -50t76 -61zM928 1037q0 146 -100 249v-1q-103 103 -247 103q-72 0 -134.5 -26t-113.5 -77q-103 -103 -103 -248v-545q0 -145 103 -248q102 -102 248 -102
q145 0 247 102v-1q100 103 100 249v545z" />
    <glyph glyph-name="P" unicode="P" horiz-adv-x="1287" 
d="M784 1539q185 0 315 -124t130 -308q0 -45 -9 -90t-26 -85q-17 -38 -41.5 -75t-53.5 -67q-30 -29 -65 -53t-76 -41t-84.5 -26.5t-89.5 -9.5h-497v-660h-170v1539h667zM978 912q81 81 81 195q0 57 -19.5 104t-60.5 83q-81 75 -195 75h-497v-538h497q111 0 194 81z" />
    <glyph glyph-name="Q" unicode="Q" horiz-adv-x="1159" 
d="M1094 490q0 -69 -18 -136t-54 -128l158 -154l-108 -102l-142 141q-61 -57 -151 -101q-101 -39 -201 -39q-110 0 -201 39q-51 21 -92.5 50t-74.5 64v-1q-35 35 -62 75.5t-47 85.5q-20 47 -32.5 100.5t-11.5 105.5v552q0 49 10.5 99t30.5 97.5t48 91t64 79.5
q71 73 166.5 113.5t201.5 40.5q100 0 194 -39t169 -114q36 -35 64 -77.5t47.5 -90t30 -98.5t11.5 -102v-552zM924 1042q0 150 -98 248q-100 103 -248 103q-145 0 -248 -103q-104 -102 -104 -248v-552q0 -72 26.5 -134t77.5 -113h-1q109 -102 249 -102q134 0 231 87l-180 179
l109 107l160 -161q26 63 26 137v552z" />
    <glyph glyph-name="R" unicode="R" horiz-adv-x="1290" 
d="M784 1539q183 0 315 -123q130 -124 130 -309q0 -85 -28 -160q-16 -38 -36 -71.5t-46 -62.5q-52 -59 -123 -98h1q-29 -17 -58.5 -28t-65.5 -17q40 -80 82.5 -165.5t85.5 -171t85.5 -170t82.5 -163.5h-187l-335 661h-400v-661h-170v1539h667zM978 913q81 81 81 194t-80 187
q-81 75 -195 75h-497v-538h497q112 0 194 82z" />
    <glyph glyph-name="S" unicode="S" horiz-adv-x="1096" 
d="M851 742q42 -25 78 -57t65 -69h-1q33 -40 48.5 -89t15.5 -106q0 -45 -10 -87.5t-32 -82.5v1q-43 -82 -112 -140q-35 -29 -76.5 -52.5t-89.5 -39.5q-95 -33 -200 -33q-104 0 -195 31q-44 14 -86 36t-78 49q-76 57 -117 130h1q-45 75 -51 181l170 33q6 -138 106 -212
q102 -78 250 -78q149 0 251 78q100 74 100 186q0 179 -373 267q-495 117 -495 432q0 90 44 170v-1q40 79 111 139q35 29 77.5 52.5t87.5 39.5t95 24t102 8q49 0 98 -7.5t93 -22.5q43 -14 85 -37.5t75 -50.5q34 -29 62.5 -62.5t49.5 -68.5h-1q23 -38 35.5 -83.5t15.5 -97.5
l-171 -29q-1 66 -25 119t-74 91q-100 80 -243 80q-148 0 -248 -80q-99 -78 -99 -183q0 -92 91.5 -159t273.5 -109l76 -21h-1q11 -2 24.5 -6t28.5 -8q85 -26 168 -75z" />
    <glyph glyph-name="T" unicode="T" horiz-adv-x="1038" 
d="M427 1369h-431v170h1038v-170h-437v-1369h-170v1369z" />
    <glyph glyph-name="U" unicode="U" horiz-adv-x="1293" 
d="M500 169q32 -14 65 -20.5t69 -6.5q145 0 248 103q102 102 102 247v1046h170v-1046q0 -107 -41 -203q-21 -48 -49 -89t-62 -75q-35 -35 -76 -63.5t-88 -48.5q-48 -20 -99 -31t-105 -11q-52 0 -102 11t-98 31q-47 20 -88 48.5t-76 63.5q-34 34 -62 75.5t-49 88.5
q-20 45 -30.5 98t-10.5 105v1046h170v-1046q0 -35 6.5 -69t20.5 -66t32.5 -60.5t42.5 -51.5q23 -24 51 -43t59 -33z" />
    <glyph glyph-name="V" unicode="V" horiz-adv-x="1090" 
d="M173 1539l363 -1208l366 1208h181l-462 -1539h-167l-462 1539h181z" />
    <glyph glyph-name="W" unicode="W" horiz-adv-x="1625" 
d="M884 969l187 -632q90 299 181 601t180 600h181l-466 -1538h-151l-197 654l-196 -654h-152l-466 1538h182l359 -1202l190 633h168z" />
    <glyph glyph-name="X" unicode="X" horiz-adv-x="1251" 
d="M178 1539l443 -626q109 155 220.5 313t220.5 313h202l-542 -771l543 -768h-203l-441 621l-442 -621h-209l544 768l-543 771h207z" />
    <glyph glyph-name="Y" unicode="Y" horiz-adv-x="1314" 
d="M216 1539l442 -629l438 629h208l-561 -804v-735h-169v736q-68 96 -139 197.5t-143 204.5t-143.5 204.5t-138.5 196.5h206z" />
    <glyph glyph-name="Z" unicode="Z" horiz-adv-x="1213" 
d="M9 125l945 1244h-895v170h1138v-130l-946 -1244h896v-165h-1138v125z" />
    <glyph glyph-name="bracketleft" unicode="[" horiz-adv-x="775" 
d="M206 -581v2443h496v-180h-308v-2079h308v-184h-496z" />
    <glyph glyph-name="backslash" unicode="\" horiz-adv-x="1140" 
d="M857 0h-197l-521 1605h200z" />
    <glyph glyph-name="bracketright" unicode="]" horiz-adv-x="769" 
d="M56 -581v184h307v2079h-307v180h495v-2443h-495z" />
    <glyph glyph-name="asciicircum" unicode="^" horiz-adv-x="1482" 
 />
    <glyph glyph-name="underscore" unicode="_" horiz-adv-x="1773" 
d="M-17 -415v201h1792v-201h-1792z" />
    <glyph glyph-name="grave" unicode="`" horiz-adv-x="884" 
d="M625 1226l-510 506l134 150l512 -515z" />
    <glyph glyph-name="a" unicode="a" horiz-adv-x="1106" 
d="M534 1167q95 0 178 -37q66 -28 125 -78v92h175v-1144h-175v84q-29 -23 -61.5 -43t-63.5 -34q-39 -18 -85 -27t-93 -9q-99 0 -185 40q-42 20 -79.5 47.5t-69.5 62.5q-31 34 -57.5 75t-44.5 85v-1q-19 46 -29 95.5t-10 103.5v178q0 54 10 104t29 95v-1q19 45 45 86t57 75
q32 34 69.5 62t79.5 48q45 20 90 30.5t95 10.5zM837 657q0 140 -91 237q-87 97 -212 97t-212 -97h1q-89 -98 -89 -237v-178q0 -138 89 -236q87 -98 211 -98t211 98q47 49 69.5 108t22.5 128v178z" />
    <glyph glyph-name="b" unicode="b" horiz-adv-x="1150" 
d="M912 1018q32 -35 57 -75t45 -86q38 -91 38 -198v-173q0 -106 -38 -200q-19 -47 -44.5 -88t-57.5 -75h1q-32 -35 -70.5 -63t-81.5 -47.5t-89.5 -30t-93.5 -10.5q-85 0 -162 31.5t-137 84.5v-101h-174v1602h174v-537q124 116 299 116q97 0 183 -40.5t151 -109.5zM878 659
q0 69 -22.5 128.5t-66.5 108.5h1q-88 97 -212 97q-123 0 -210 -97q-89 -100 -89 -237v-173q0 -140 89 -240q88 -99 210 -99t211 100v-1q89 101 89 240v173z" />
    <glyph glyph-name="c" unicode="c" horiz-adv-x="964" 
d="M321 895q-44 -49 -66.5 -108t-22.5 -128v-180q0 -69 22.5 -128t66.5 -108q87 -98 210 -98q81 0 146 43q31 20 60 52t55 77l129 -129q-38 -53 -83 -94.5t-90 -67.5q-49 -26 -104 -40.5t-113 -14.5q-48 0 -95 10.5t-89 30.5q-41 20 -79.5 47t-70.5 62q-64 70 -101 159
q-39 93 -39 199v180q0 108 39 198v-1q18 46 43.5 86t57.5 75q65 70 150 110q84 40 184 40q119 0 217 -55q94 -55 173 -162l-129 -123q-26 41 -55 72t-60 51q-65 43 -146 43q-124 0 -210 -98z" />
    <glyph glyph-name="d" unicode="d" horiz-adv-x="1116" 
d="M533 1168q84 0 159.5 -30.5t139.5 -83.5v535h175v-1602h-175v99q-65 -53 -139.5 -83.5t-159.5 -30.5q-47 0 -92.5 11t-88.5 31.5t-82 48t-71 60.5q-66 71 -103 165t-37 193v179q0 99 37 193t103 164q32 33 71 60.5t82 48t88.5 31.5t92.5 11zM832 660q0 138 -89 236h1
q-87 98 -211 98q-60 0 -113.5 -25t-96.5 -73q-42 -48 -65.5 -108.5t-23.5 -127.5v-179q0 -138 89 -236q43 -49 96.5 -73.5t113.5 -24.5q123 0 210 98q89 98 89 236v179z" />
    <glyph glyph-name="e" unicode="e" horiz-adv-x="1077" 
d="M533 1168q65 0 125.5 -18.5t113.5 -52t96.5 -80t74.5 -102t47.5 -118t15.5 -127.5v-162h-772v-29q0 -64 22 -124.5t62 -107t94.5 -74.5t120.5 -28q37 0 74 12.5t70.5 35t63 54t52.5 70.5l129 -129q-35 -50 -78.5 -90t-93.5 -68.5t-105 -43.5t-112 -15q-104 0 -187 41
q-68 33 -121.5 81.5t-90.5 109t-56.5 130.5t-19.5 146v181q0 99 35.5 190.5t99 162t150.5 113t190 42.5zM533 994q-61 0 -114.5 -26t-94 -69.5t-64.5 -100t-26 -116.5h596q-2 60 -26 116.5t-64 100t-93 69.5t-114 26z" />
    <glyph glyph-name="f" unicode="f" horiz-adv-x="748" 
d="M493 1453q-27 0 -51.5 -11t-43.5 -29.5t-30 -43t-11 -52.5v-146h282v-174h-282v-997h-176v997h-177v174h177v146q0 59 24 115t66 99.5t99 70t123 26.5q71 0 137 -38t124 -99l-130 -130q-57 92 -131 92z" />
    <glyph glyph-name="g" unicode="g" horiz-adv-x="1130" 
d="M196 1017q66 69 151.5 110t185.5 41q169 0 299 -116v101h175v-1168q0 -51 -11 -102.5t-31.5 -100.5t-50 -92.5t-65.5 -79.5h1q-75 -75 -171.5 -116.5t-205.5 -41.5q-96 0 -184 36t-172 99l123 129q54 -45 112.5 -67t120.5 -22q148 0 254 106q105 105 105 252v101
q-65 -53 -139.5 -83.5t-159.5 -30.5q-198 0 -337 148q-137 149 -137 361v179q0 101 33 193t104 164zM832 660q0 137 -89 235q-86 98 -210 98t-210 -98q-89 -98 -89 -235v-179q0 -138 89 -236q86 -98 210 -98q123 0 210 98q89 98 89 236v179z" />
    <glyph glyph-name="h" unicode="h" horiz-adv-x="1116" 
d="M553 1168q97 0 178.5 -33t147.5 -99q66 -67 99.5 -147t33.5 -175v-714h-176v714q0 113 -83 196t-200 83q-57 0 -105.5 -21t-90.5 -62q-84 -84 -84 -196v-714h-175v1599h175v-529q119 98 280 98z" />
    <glyph glyph-name="i" unicode="i" horiz-adv-x="458" 
d="M138 1144h175v-1144h-175v1144zM138 1550h175v-249h-175v249z" />
    <glyph glyph-name="j" unicode="j" horiz-adv-x="387" 
d="M-151 -321q17 -31 46.5 -46t67.5 -15q29 0 54 10.5t43 28.5t28 43t10 54v1390h175v-1390q0 -134 -91 -224q-90 -87 -219 -87q-156 0 -254 140l101 101zM98 1550h175v-249h-175v249z" />
    <glyph glyph-name="k" unicode="k" horiz-adv-x="1059" 
d="M99 1622h175v-1622h-175v1622zM493 561q69 -66 144 -137.5t151.5 -144t151 -143.5t142.5 -136h-246l-595 561l595 583h245z" />
    <glyph glyph-name="l" unicode="l" horiz-adv-x="375" 
d="M98 1628h175v-1628h-175v1628z" />
    <glyph glyph-name="m" unicode="m" horiz-adv-x="1751" 
d="M1205 1168q87 0 164 -34t135 -92.5t92 -135.5t34 -162v-744h-175v744q0 51 -20 96.5t-54 79.5t-79.5 53.5t-96.5 19.5q-52 0 -98.5 -19.5t-81 -53t-54.5 -79t-20 -97.5v-744h-174v744q0 52 -19.5 97.5t-53 79t-79.5 53t-98 19.5q-51 0 -96.5 -19.5t-79.5 -53.5t-54 -79.5
t-20 -96.5v-744h-175v1153h175v-70q54 38 117.5 61.5t132.5 23.5q100 0 189 -44t148 -125q29 41 67 72.5t82 53t92.5 32.5t99.5 11z" />
    <glyph glyph-name="n" unicode="n" horiz-adv-x="1125" 
d="M558 1167q190 0 321 -132q133 -133 133 -327v-708h-176v708q0 119 -83 201q-83 83 -195 83q-60 0 -109.5 -21t-91.5 -62q-83 -82 -83 -201v-708h-176v1152h176v-84q125 99 284 99z" />
    <glyph glyph-name="o" unicode="o" horiz-adv-x="1154" 
d="M567 1167q213 0 362 -147q147 -149 147 -361v-179q0 -214 -147 -361q-146 -147 -362 -147q-106 0 -196.5 36t-164.5 111q-147 146 -147 361v179q0 215 147 361q147 147 361 147zM901 659q0 139 -98 235q-99 99 -236 99q-138 0 -235 -99q-99 -97 -99 -235v-179
q0 -138 99 -235q99 -99 235 -99q137 0 236 99q98 96 98 235v179z" />
    <glyph glyph-name="p" unicode="p" horiz-adv-x="1114" 
d="M906 1015q67 -70 104 -163.5t37 -194.5v-178q0 -49 -9.5 -98.5t-28 -96.5t-44.5 -90t-59 -79q-65 -66 -152.5 -105t-181.5 -39q-174 0 -299 110v-532h-175v1603h175v-102q125 117 299 117q47 0 93.5 -10.5t89.5 -30.5t81.5 -48t70.5 -63h-1zM871 657q0 140 -88 237h1
q-88 97 -212 97q-60 0 -113 -24.5t-97 -72.5q-42 -48 -65.5 -108.5t-23.5 -128.5v-178q0 -69 22.5 -128t66.5 -108q87 -98 210 -98q122 0 211 98q88 97 88 236v178z" />
    <glyph glyph-name="q" unicode="q" horiz-adv-x="1126" 
d="M533 1167q84 0 159 -30.5t139 -83.5v104h176v-1607h-176v534q-63 -52 -138 -82t-160 -30q-101 0 -184.5 39t-152.5 111q-70 73 -103.5 164.5t-33.5 193.5v178q0 103 33.5 194.5t103.5 163.5q67 71 152 111t185 40zM831 658q0 140 -88 237h1q-87 97 -211 97
q-61 0 -114 -24t-96 -73q-89 -98 -89 -237v-178q0 -69 21.5 -128.5t66.5 -107.5q86 -98 211 -98q123 0 210 98q88 97 88 236v178z" />
    <glyph glyph-name="r" unicode="r" horiz-adv-x="801" 
d="M272 1087q106 80 245 80t284 -106l-130 -122q-72 53 -154 53q-102 0 -174 -70q-71 -71 -71 -174v-748h-175v1157h175v-70z" />
    <glyph glyph-name="s" unicode="s" horiz-adv-x="871" 
d="M434 656q387 -92 387 -340q0 -144 -119 -245q-117 -99 -291 -99q-81 0 -151 23t-127 68q-54 45 -86.5 105.5t-40.5 134.5l170 30q8 -88 70 -135q35 -25 77 -38.5t88 -13.5q48 0 89.5 13.5t76.5 38.5q33 24 51 54.5t18 63.5q0 3 -1.5 11t-3.5 20l1 -1q-2 8 -8.5 18.5
t-18.5 22.5h1q-24 21 -74 49h1q-53 27 -150 51q-89 24 -160.5 58t-121.5 77.5t-77 96t-27 113.5q0 139 121 240q121 100 283 100q163 0 278 -88q113 -90 129 -239l-176 -28q-3 43 -20 76.5t-48 54.5q-67 50 -163 50q-47 0 -88.5 -12.5t-74.5 -37.5q-66 -47 -66 -116
q0 -109 252 -176z" />
    <glyph glyph-name="t" unicode="t" horiz-adv-x="750" 
d="M388 184q40 -38 95 -38q38 0 70.5 23.5t62.5 68.5l127 -129q-24 -32 -55 -57.5t-64.5 -43t-69.5 -27t-71 -9.5q-130 0 -220 89q-91 93 -91 221v687h-177v175h177v293h176v-293h282v-175h-282v-687q0 -59 40 -98z" />
    <glyph glyph-name="u" unicode="u" horiz-adv-x="1124" 
d="M354 227q83 -81 198 -81q117 0 200 81q80 80 80 199v718h180v-1163h-180v83q-60 -46 -129 -69.5t-151 -23.5q-189 0 -321 132q-133 132 -133 323v718h175v-718q0 -121 80 -199h1z" />
    <glyph glyph-name="v" unicode="v" horiz-adv-x="1052" 
d="M518 218l347 926h187l-426 -1144h-212l-431 1144h186z" />
    <glyph glyph-name="w" unicode="w" horiz-adv-x="1461" 
d="M941 278l328 866h186l-424 -1131l-13 -13h-162l-138 380q-32 -88 -65 -178.5t-65 -179.5q0 -3 -0.5 -12t-0.5 -10h-176l-426 1144h186l323 -864l135 370h177z" />
    <glyph glyph-name="x" unicode="x" horiz-adv-x="924" 
d="M458 710l276 434h204l-375 -597l362 -547h-206l-261 406q-66 -104 -130.5 -203.5t-130.5 -202.5h-210l366 547l-379 597h208z" />
    <glyph glyph-name="y" unicode="y" horiz-adv-x="944" 
d="M462 253q74 222 150 446.5t148 444.5h187l-393 -1176l-79 -234l-97 -296h-186l182 533l-391 1173h182z" />
    <glyph glyph-name="z" unicode="z" horiz-adv-x="1136" 
d="M399 175h614v-175h-930l625 969h-613v175h930z" />
    <glyph glyph-name="braceleft" unicode="{" horiz-adv-x="721" 
d="M440 -603q-51 75 -90.5 148.5t-65.5 148.5l1 -1q-27 75 -41 153.5t-14 161.5v478l-158 153l158 158v474q0 164 50 311q24 71 62.5 144.5t89.5 145.5l133 -130q-77 -111 -112 -225q-34 -114 -34 -246v-515l-105 -116l105 -103v-529q0 -259 154 -484z" />
    <glyph glyph-name="bar" unicode="|" horiz-adv-x="1376" 
d="M595 1v1539h175v-1539h-175z" />
    <glyph glyph-name="braceright" unicode="}" horiz-adv-x="721" 
d="M62 -474q154 221 154 484v529l103 103q-25 29 -52 58.5t-51 57.5v515q0 129 -35 246q-35 114 -112 225l133 130q104 -145 153 -290q49 -144 49 -311v-474l158 -158l-158 -154v-477q0 -83 -14 -161.5t-41 -153.5l1 1q-26 -72 -65 -146t-93 -151z" />
    <glyph glyph-name="asciitilde" unicode="~" horiz-adv-x="1274" 
 />
    <glyph glyph-name="uni0E00" unicode="&#xe00;" 
 />
    <glyph glyph-name="maiekupperleftthai.alt9" 
d="M-658 2917v-560h-143v560h143z" />
    <glyph glyph-name="maichattawaupperleftthai.alt9" 
d="M-242 2663h-304v-305h-143v305h-304v143h304v304h143v-304h304v-143z" />
    <glyph glyph-name="saraileftthai" 
d="M-1561 1596q22 104 74.5 191.5t126.5 151t165.5 99t190.5 35.5q103 0 194 -36.5t163.5 -100.5t124.5 -151.5t78 -188.5h-1117zM-688 1758q-57 71 -140.5 111.5t-175.5 40.5q-96 0 -177 -40t-137 -112h630z" />
    <glyph glyph-name="saraileftthai" unicode="&#xf701;" 
d="M-1561 1596q22 104 74.5 191.5t126.5 151t165.5 99t190.5 35.5q103 0 194 -36.5t163.5 -100.5t124.5 -151.5t78 -188.5h-1117zM-688 1758q-57 71 -140.5 111.5t-175.5 40.5q-96 0 -177 -40t-137 -112h630z" />
    <glyph glyph-name="saraiileftthai" 
d="M-447 2174v-586h-1113q30 106 83 193.5t125 149.5t160.5 96t190.5 34q117 0 223.5 -46t186.5 -128v287h144zM-686 1750q-29 34 -64.5 61.5t-76.5 46.5t-85 29.5t-89 10.5q-93 0 -174 -40t-138 -108h627z" />
    <glyph glyph-name="saraiileftthai" unicode="&#xf702;" 
d="M-447 2174v-586h-1113q30 106 83 193.5t125 149.5t160.5 96t190.5 34q117 0 223.5 -46t186.5 -128v287h144zM-686 1750q-29 34 -64.5 61.5t-76.5 46.5t-85 29.5t-89 10.5q-93 0 -174 -40t-138 -108h627z" />
    <glyph glyph-name="saraueleftthai" 
d="M-447 2021q0 -59 -27 -106.5t-74 -76.5q73 -103 107 -251h-1118q12 48 24 86.5t28 64.5v-2q37 75 90.5 135.5t119.5 103.5t141.5 66t157.5 23q27 0 56.5 -3.5t58.5 -9.5q6 40 25.5 75t48.5 61t66 40.5t78 14.5q46 0 86 -18t69.5 -49t46 -71t16.5 -83zM-689 1749
q-60 73 -139.5 112.5t-169.5 39.5q-94 0 -175.5 -41.5t-137.5 -110.5h622zM-665 1946q32 0 53.5 22t21.5 53t-22.5 53.5t-52.5 22.5q-16 0 -30 -6.5t-24.5 -17t-17 -24t-6.5 -28.5q0 -32 24 -53.5t54 -21.5z" />
    <glyph glyph-name="saraueleftthai" unicode="&#xf703;" 
d="M-447 2021q0 -59 -27 -106.5t-74 -76.5q73 -103 107 -251h-1118q12 48 24 86.5t28 64.5v-2q37 75 90.5 135.5t119.5 103.5t141.5 66t157.5 23q27 0 56.5 -3.5t58.5 -9.5q6 40 25.5 75t48.5 61t66 40.5t78 14.5q46 0 86 -18t69.5 -49t46 -71t16.5 -83zM-689 1749
q-60 73 -139.5 112.5t-169.5 39.5q-94 0 -175.5 -41.5t-137.5 -110.5h622zM-665 1946q32 0 53.5 22t21.5 53t-22.5 53.5t-52.5 22.5q-16 0 -30 -6.5t-24.5 -17t-17 -24t-6.5 -28.5q0 -32 24 -53.5t54 -21.5z" />
    <glyph glyph-name="saraueeleftthai" 
d="M-449 2176v-586h-1112q33 124 95 223t156 161q69 44 146.5 66.5t164.5 22.5q60 0 113.5 -10t104.5 -32v155h143v-245l15 -13.5t9 -8t8.5 -8.5t12.5 -15v290h144zM-689 1752q-25 32 -52.5 54t-62.5 44v-1q-92 52 -195 52q-56 0 -105 -13t-94 -39v1q-32 -20 -61.5 -44.5
t-53.5 -53.5h624z" />
    <glyph glyph-name="saraueeleftthai" unicode="&#xf704;" 
d="M-449 2176v-586h-1112q33 124 95 223t156 161q69 44 146.5 66.5t164.5 22.5q60 0 113.5 -10t104.5 -32v155h143v-245l15 -13.5t9 -8t8.5 -8.5t12.5 -15v290h144zM-689 1752q-25 32 -52.5 54t-62.5 44v-1q-92 52 -195 52q-56 0 -105 -13t-94 -39v1q-32 -20 -61.5 -44.5
t-53.5 -53.5h624z" />
    <glyph glyph-name="maieklowleftthai" 
d="M-562 2186v-563h-144v563h144z" />
    <glyph glyph-name="maieklowleftthai" unicode="&#xf705;" 
d="M-562 2186v-563h-144v563h144z" />
    <glyph glyph-name="maitholowleftthai" 
d="M-269 2200q0 -58 -10.5 -113t-30.5 -106t-47.5 -96.5t-61.5 -82.5q-69 -78 -160 -122.5t-196 -56.5h1q-9 -2 -28.5 -2.5t-40.5 -0.5q-17 0 -36.5 1.5t-36.5 5.5v186q-10 -2 -20 -3.5t-24 -1.5q-43 0 -80.5 16.5t-65.5 44.5t-44 65.5t-16 80.5t16 80.5t44 65.5t65.5 44
t80.5 16t80.5 -16t65.5 -44t44.5 -65.5t16.5 -80.5v-225q70 12 128.5 51.5t101.5 98.5t67 132.5t24 153.5zM-960 1953q26 0 44.5 18t18.5 44q0 27 -18 44.5t-45 17.5t-44.5 -17.5t-17.5 -44.5q0 -26 18 -44t44 -18z" />
    <glyph glyph-name="maitholowleftthai" unicode="&#xf706;" 
d="M-269 2200q0 -58 -10.5 -113t-30.5 -106t-47.5 -96.5t-61.5 -82.5q-69 -78 -160 -122.5t-196 -56.5h1q-9 -2 -28.5 -2.5t-40.5 -0.5q-17 0 -36.5 1.5t-36.5 5.5v186q-10 -2 -20 -3.5t-24 -1.5q-43 0 -80.5 16.5t-65.5 44.5t-44 65.5t-16 80.5t16 80.5t44 65.5t65.5 44
t80.5 16t80.5 -16t65.5 -44t44.5 -65.5t16.5 -80.5v-225q70 12 128.5 51.5t101.5 98.5t67 132.5t24 153.5zM-960 1953q26 0 44.5 18t18.5 44q0 27 -18 44.5t-45 17.5t-44.5 -17.5t-17.5 -44.5q0 -26 18 -44t44 -18z" />
    <glyph glyph-name="maitrilowleftthai" 
d="M-403 2313v-384q0 -86 -34.5 -163t-97.5 -137h-137v353q0 27 -22.5 40.5t-46.5 13.5q-30 0 -50 -25.5t-20 -64.5h-151q-2 42 -23.5 66t-50.5 24q-31 0 -51 -18.5t-20 -46.5v-12q5 1 12 1.5t13 0.5q37 0 69 -14.5t56 -39t37.5 -56.5t13.5 -66q0 -35 -16 -64t-41.5 -50.5
t-57 -33.5t-61.5 -12q-38 0 -70 13.5t-55 36.5t-36.5 54.5t-13.5 67.5v174q0 46 18 85.5t48.5 69t70.5 46t84 16.5q46 0 83.5 -13.5t66.5 -38.5q27 24 64 38t81 14q60 0 109 -28.5t78 -74.5v256zM-1126 1797q0 -18 13 -27.5t30 -9.5q15 0 28 9t13 28t-11.5 31t-28.5 12
q-18 0 -31 -13.5t-13 -29.5z" />
    <glyph glyph-name="maitrilowleftthai" unicode="&#xf707;" 
d="M-403 2313v-384q0 -86 -34.5 -163t-97.5 -137h-137v353q0 27 -22.5 40.5t-46.5 13.5q-30 0 -50 -25.5t-20 -64.5h-151q-2 42 -23.5 66t-50.5 24q-31 0 -51 -18.5t-20 -46.5v-12q5 1 12 1.5t13 0.5q37 0 69 -14.5t56 -39t37.5 -56.5t13.5 -66q0 -35 -16 -64t-41.5 -50.5
t-57 -33.5t-61.5 -12q-38 0 -70 13.5t-55 36.5t-36.5 54.5t-13.5 67.5v174q0 46 18 85.5t48.5 69t70.5 46t84 16.5q46 0 83.5 -13.5t66.5 -38.5q27 24 64 38t81 14q60 0 109 -28.5t78 -74.5v256zM-1126 1797q0 -18 13 -27.5t30 -9.5q15 0 28 9t13 28t-11.5 31t-28.5 12
q-18 0 -31 -13.5t-13 -29.5z" />
    <glyph glyph-name="maichattawalowleftthai" 
d="M-359 1929h-307v-306h-143v306h-307v144h307v307h143v-307h307v-144z" />
    <glyph glyph-name="maichattawalowleftthai" unicode="&#xf708;" 
d="M-359 1929h-307v-306h-143v306h-307v144h307v307h143v-307h307v-144z" />
    <glyph glyph-name="thanthakhatlowleftthai" 
d="M-561 2062q8 -9 14 -18.5t13 -18.5l11 -20q14 -39 14 -80q0 -17 -2.5 -34.5t-8.5 -35.5q-29 -66 -83 -100t-115 -34q-18 0 -35.5 2.5t-32.5 8.5q-32 11 -57 31t-42 46.5t-26.5 57t-9.5 61.5q0 17 4 36t10 35q16 40 44.5 67t63.5 48l490 218l58 -132zM-658 1904q4 11 4 21
q0 20 -10.5 36.5t-30.5 24.5h1q-12 5 -24.5 3t-24 -8t-20.5 -16t-13 -20q-5 -10 -3 -21.5t8 -22.5t15.5 -20t20.5 -13q9 -3 18 -3q20 0 36 10.5t22 27.5z" />
    <glyph glyph-name="thanthakhatlowleftthai" unicode="&#xf709;" 
d="M-561 2062q8 -9 14 -18.5t13 -18.5l11 -20q14 -39 14 -80q0 -17 -2.5 -34.5t-8.5 -35.5q-29 -66 -83 -100t-115 -34q-18 0 -35.5 2.5t-32.5 8.5q-32 11 -57 31t-42 46.5t-26.5 57t-9.5 61.5q0 17 4 36t10 35q16 40 44.5 67t63.5 48l490 218l58 -132zM-658 1904q4 11 4 21
q0 20 -10.5 36.5t-30.5 24.5h1q-12 5 -24.5 3t-24 -8t-20.5 -16t-13 -20q-5 -10 -3 -21.5t8 -22.5t15.5 -20t20.5 -13q9 -3 18 -3q20 0 36 10.5t22 27.5z" />
    <glyph glyph-name="maieklowrightthai" 
d="M-194 2188v-563h-144v563h144z" />
    <glyph glyph-name="maieklowrightthai" unicode="&#xf70a;" 
d="M-194 2188v-563h-144v563h144z" />
    <glyph glyph-name="maitholowrightthai" 
d="M-87 2200q-1 -112 -41 -211.5t-108.5 -177t-160 -127t-196.5 -61.5h1q-20 -3 -61 -3q-42 0 -82 6v187q-10 -2 -19.5 -3.5t-23.5 -1.5q-43 0 -80.5 16.5t-65.5 44.5t-44.5 65.5t-16.5 80.5t16.5 80.5t44.5 65.5t65.5 44t80.5 16t80.5 -16t65.5 -44t44 -65.5t16 -80.5v-224
q70 13 130.5 52.5t103.5 97.5t66.5 131t20.5 154zM-778 1953q26 0 44.5 18t18.5 44q0 27 -18.5 44.5t-44.5 17.5q-28 0 -45.5 -17.5t-17.5 -44.5q0 -26 18 -44t45 -18z" />
    <glyph glyph-name="maitholowrightthai" unicode="&#xf70b;" 
d="M-87 2200q-1 -112 -41 -211.5t-108.5 -177t-160 -127t-196.5 -61.5h1q-20 -3 -61 -3q-42 0 -82 6v187q-10 -2 -19.5 -3.5t-23.5 -1.5q-43 0 -80.5 16.5t-65.5 44.5t-44.5 65.5t-16.5 80.5t16.5 80.5t44.5 65.5t65.5 44t80.5 16t80.5 -16t65.5 -44t44 -65.5t16 -80.5v-224
q70 13 130.5 52.5t103.5 97.5t66.5 131t20.5 154zM-778 1953q26 0 44.5 18t18.5 44q0 27 -18.5 44.5t-44.5 17.5q-28 0 -45.5 -17.5t-17.5 -44.5q0 -26 18 -44t45 -18z" />
    <glyph glyph-name="maitrilowrightthai" 
d="M-208 2313v-384q0 -39 -8.5 -80.5t-25.5 -81t-41.5 -75.5t-57.5 -63h-135v353q0 27 -23 40.5t-47 13.5q-29 0 -49.5 -25.5t-20.5 -64.5h-150q-2 42 -24 66t-51 24t-50 -19t-21 -46v-12q5 1 12 1.5t13 0.5q36 0 68 -15t56 -39.5t38 -56t14 -65.5q0 -31 -14 -64
q-27 -43 -68.5 -69.5t-93.5 -26.5q-36 0 -67.5 13t-55.5 36.5t-38 55t-14 67.5v174q0 46 18 85.5t48.5 69t70.5 46t84 16.5q46 0 83.5 -13.5t66.5 -38.5q27 24 64 38t81 14q57 0 103.5 -22.5t76.5 -67.5l-1 1l9 -12v254zM-930 1797q0 -16 13.5 -28.5t29.5 -12.5
q17 0 28.5 12t11.5 29q0 19 -11.5 31t-28.5 12q-18 0 -30.5 -13.5t-12.5 -29.5z" />
    <glyph glyph-name="maitrilowrightthai" unicode="&#xf70c;" 
d="M-208 2313v-384q0 -39 -8.5 -80.5t-25.5 -81t-41.5 -75.5t-57.5 -63h-135v353q0 27 -23 40.5t-47 13.5q-29 0 -49.5 -25.5t-20.5 -64.5h-150q-2 42 -24 66t-51 24t-50 -19t-21 -46v-12q5 1 12 1.5t13 0.5q36 0 68 -15t56 -39.5t38 -56t14 -65.5q0 -31 -14 -64
q-27 -43 -68.5 -69.5t-93.5 -26.5q-36 0 -67.5 13t-55.5 36.5t-38 55t-14 67.5v174q0 46 18 85.5t48.5 69t70.5 46t84 16.5q46 0 83.5 -13.5t66.5 -38.5q27 24 64 38t81 14q57 0 103.5 -22.5t76.5 -67.5l-1 1l9 -12v254zM-930 1797q0 -16 13.5 -28.5t29.5 -12.5
q17 0 28.5 12t11.5 29q0 19 -11.5 31t-28.5 12q-18 0 -30.5 -13.5t-12.5 -29.5z" />
    <glyph glyph-name="maichattawalowrightthai" 
d="M-46 1929h-307v-306h-143v306h-307v144h307v307h143v-307h307v-144z" />
    <glyph glyph-name="maichattawalowrightthai" unicode="&#xf70d;" 
d="M-46 1929h-307v-306h-143v306h-307v144h307v307h143v-307h307v-144z" />
    <glyph glyph-name="thanthakhatlowrightthai" 
d="M-443 1977q27 -29 41 -64.5t14 -74.5q0 -17 -3.5 -34.5t-9.5 -36.5q-12 -31 -32 -55.5t-46 -41.5t-56 -26t-62 -9q-17 0 -34.5 2.5t-34.5 8.5q-30 11 -55 31.5t-43 47t-27.5 57t-9.5 62.5q0 34 14 70q17 42 47 68.5t61 46.5l490 218l58 -133zM-538 1818q4 9 4 23
q0 18 -11 34.5t-30 25.5h1q-10 4 -22 2.5t-23.5 -7.5t-21 -15.5t-14.5 -20.5q-5 -10 -5 -17q0 -20 14 -36.5t31 -23.5q9 -3 18 -3q20 0 36 10.5t22 26.5z" />
    <glyph glyph-name="thanthakhatlowrightthai" unicode="&#xf70e;" 
d="M-443 1977q27 -29 41 -64.5t14 -74.5q0 -17 -3.5 -34.5t-9.5 -36.5q-12 -31 -32 -55.5t-46 -41.5t-56 -26t-62 -9q-17 0 -34.5 2.5t-34.5 8.5q-30 11 -55 31.5t-43 47t-27.5 57t-9.5 62.5q0 34 14 70q17 42 47 68.5t61 46.5l490 218l58 -133zM-538 1818q4 9 4 23
q0 18 -11 34.5t-30 25.5h1q-10 4 -22 2.5t-23.5 -7.5t-21 -15.5t-14.5 -20.5q-5 -10 -5 -17q0 -20 14 -36.5t31 -23.5q9 -3 18 -3q20 0 36 10.5t22 26.5z" />
    <glyph glyph-name="maihanakatleftthai" 
d="M-148 2117q2 -18 3 -33.5t1 -25.5q0 -43 -9.5 -85.5t-26.5 -84.5q-23 -50 -54.5 -93.5t-70 -78.5t-82 -61.5t-89.5 -41.5q-35 -12 -75 -18.5t-77 -6.5q-53 0 -108 13t-103 33q-38 19 -74.5 49t-66 67t-47.5 78.5t-19 83.5q3 46 24 84.5t53.5 65.5t73.5 41.5t83 13.5
q45 -3 83.5 -24.5t66 -53.5t42.5 -73t12 -83q-1 -37 -14.5 -70t-37.5 -61q8 -1 15.5 -1h15.5q18 0 37 1.5t36 5.5q39 7 74 26t64 45t51.5 57.5t36.5 63.5q11 33 16.5 76t2.5 91h163zM-902 1900q1 -33 22 -54.5t50 -24.5q16 -2 30 4t24.5 16.5t17 24.5t7.5 28v-1q1 16 -5 30
t-16.5 24.5t-24 17.5t-27.5 8q-16 1 -29.5 -5t-24 -16.5t-17 -24.5t-7.5 -27z" />
    <glyph glyph-name="maihanakatleftthai" unicode="&#xf710;" 
d="M-148 2117q2 -18 3 -33.5t1 -25.5q0 -43 -9.5 -85.5t-26.5 -84.5q-23 -50 -54.5 -93.5t-70 -78.5t-82 -61.5t-89.5 -41.5q-35 -12 -75 -18.5t-77 -6.5q-53 0 -108 13t-103 33q-38 19 -74.5 49t-66 67t-47.5 78.5t-19 83.5q3 46 24 84.5t53.5 65.5t73.5 41.5t83 13.5
q45 -3 83.5 -24.5t66 -53.5t42.5 -73t12 -83q-1 -37 -14.5 -70t-37.5 -61q8 -1 15.5 -1h15.5q18 0 37 1.5t36 5.5q39 7 74 26t64 45t51.5 57.5t36.5 63.5q11 33 16.5 76t2.5 91h163zM-902 1900q1 -33 22 -54.5t50 -24.5q16 -2 30 4t24.5 16.5t17 24.5t7.5 28v-1q1 16 -5 30
t-16.5 24.5t-24 17.5t-27.5 8q-16 1 -29.5 -5t-24 -16.5t-17 -24.5t-7.5 -27z" />
    <glyph glyph-name="nikhahitleftthai" 
d="M-717 1608q-90 0 -154 64q-63 63 -63 153q0 95 63 158q32 32 70 48t84 16q94 0 157 -64h-1q65 -62 65 -158q0 -90 -64 -153q-64 -64 -157 -64zM-717 1904q-31 0 -52 -24q-11 -11 -16.5 -24.5t-5.5 -30.5q0 -30 22 -52t52 -22q32 0 55 23q23 20 23 51t-24 54
q-23 25 -54 25z" />
    <glyph glyph-name="nikhahitleftthai" unicode="&#xf711;" 
d="M-717 1608q-90 0 -154 64q-63 63 -63 153q0 95 63 158q32 32 70 48t84 16q94 0 157 -64h-1q65 -62 65 -158q0 -90 -64 -153q-64 -64 -157 -64zM-717 1904q-31 0 -52 -24q-11 -11 -16.5 -24.5t-5.5 -30.5q0 -30 22 -52t52 -22q32 0 55 23q23 20 23 51t-24 54
q-23 25 -54 25z" />
    <glyph glyph-name="maitaikhuleftthai" 
d="M-478 2187q2 -47 -11 -88.5t-36.5 -73t-56 -51.5t-69.5 -24q-26 -2 -45 -3.5t-32 -1.5h-334q-35 0 -66 -9t-54.5 -27.5t-37.5 -46t-14 -63.5q0 -42 13.5 -70.5t38.5 -43.5q10 -5 15.5 -8t10.5 -5l63 69q12 17 29.5 18.5t32.5 -0.5l90 -29q4 36 20 66.5t40.5 52.5t56.5 34
t69 12q38 0 72 -14.5t59.5 -40t40.5 -59.5t15 -73q0 -38 -15.5 -71t-41.5 -58.5t-59.5 -40t-70.5 -14.5q-21 0 -39.5 3.5t-36.5 9.5l-186 66q-20 -23 -35.5 -39.5t-22.5 -24.5l-7 -8q-17 -17 -44 -17q-40 0 -68 12t-56 29h1l-16 9q-26 23 -48 47.5t-38 52.5t-25 61t-9 74
q0 51 18.5 96.5t50 82t74 63t90.5 39.5q22 6 47 9.5t43 3.5h340q17 -2 36 2t34 15.5t23.5 30.5t4.5 46h146zM-755 1763q-21 0 -36 -17t-15 -38q0 -20 15.5 -33.5t35.5 -13.5t35.5 13.5t15.5 33.5q0 21 -15.5 38t-35.5 17z" />
    <glyph glyph-name="maitaikhuleftthai" unicode="&#xf712;" 
d="M-478 2187q2 -47 -11 -88.5t-36.5 -73t-56 -51.5t-69.5 -24q-26 -2 -45 -3.5t-32 -1.5h-334q-35 0 -66 -9t-54.5 -27.5t-37.5 -46t-14 -63.5q0 -42 13.5 -70.5t38.5 -43.5q10 -5 15.5 -8t10.5 -5l63 69q12 17 29.5 18.5t32.5 -0.5l90 -29q4 36 20 66.5t40.5 52.5t56.5 34
t69 12q38 0 72 -14.5t59.5 -40t40.5 -59.5t15 -73q0 -38 -15.5 -71t-41.5 -58.5t-59.5 -40t-70.5 -14.5q-21 0 -39.5 3.5t-36.5 9.5l-186 66q-20 -23 -35.5 -39.5t-22.5 -24.5l-7 -8q-17 -17 -44 -17q-40 0 -68 12t-56 29h1l-16 9q-26 23 -48 47.5t-38 52.5t-25 61t-9 74
q0 51 18.5 96.5t50 82t74 63t90.5 39.5q22 6 47 9.5t43 3.5h340q17 -2 36 2t34 15.5t23.5 30.5t4.5 46h146zM-755 1763q-21 0 -36 -17t-15 -38q0 -20 15.5 -33.5t35.5 -13.5t35.5 13.5t15.5 33.5q0 21 -15.5 38t-35.5 17z" />
    <glyph glyph-name="maiekupperleftthai" 
d="M-416 2933v-563h-145v563h145z" />
    <glyph glyph-name="maiekupperleftthai" unicode="&#xf713;" 
d="M-416 2933v-563h-145v563h145z" />
    <glyph glyph-name="maithoupperleftthai" 
d="M-76 2942q0 -83 -23 -161t-64 -146t-98 -122.5t-125 -89.5q-60 -29 -124 -45t-132 -16q-42 0 -82 6v187q-17 -4 -43 -4q-43 0 -80.5 16t-65.5 44t-44.5 65.5t-16.5 80.5t16.5 80.5t44.5 65.5t65.5 44t80.5 16t80.5 -16t65.5 -44t44 -65.5t16 -80.5v-225q70 12 129 51.5
t102 98.5t67 132.5t24 153.5zM-767 2695q26 0 44.5 18.5t18.5 43.5q0 27 -18.5 44.5t-44.5 17.5q-28 0 -45.5 -17.5t-17.5 -44.5q0 -26 18 -44t45 -18z" />
    <glyph glyph-name="maithoupperleftthai" unicode="&#xf714;" 
d="M-76 2942q0 -83 -23 -161t-64 -146t-98 -122.5t-125 -89.5q-60 -29 -124 -45t-132 -16q-42 0 -82 6v187q-17 -4 -43 -4q-43 0 -80.5 16t-65.5 44t-44.5 65.5t-16.5 80.5t16.5 80.5t44.5 65.5t65.5 44t80.5 16t80.5 -16t65.5 -44t44 -65.5t16 -80.5v-225q70 12 129 51.5
t102 98.5t67 132.5t24 153.5zM-767 2695q26 0 44.5 18.5t18.5 43.5q0 27 -18.5 44.5t-44.5 17.5q-28 0 -45.5 -17.5t-17.5 -44.5q0 -26 18 -44t45 -18z" />
    <glyph glyph-name="maitriupperleftthai" 
d="M-250 3107v-383q0 -39 -8.5 -81t-25 -81.5t-41.5 -75.5t-57 -63h-136v354q0 25 -20.5 39.5t-49.5 14.5q-32 0 -52 -19l2 1q-19 -20 -19 -73h-151q-2 42 -23.5 66.5t-51.5 24.5t-50 -19t-20 -47v-12q5 1 11.5 1.5t12.5 0.5q37 0 69 -14.5t56 -39t37.5 -56.5t13.5 -66
t-16 -63.5t-41.5 -51t-56.5 -33.5t-62 -12q-37 0 -69 13.5t-55.5 36.5t-37 54.5t-13.5 67.5v174q0 46 18 86t48.5 69t70.5 45.5t84 16.5q46 0 84 -13.5t67 -38.5q26 24 63 38t81 14q57 0 103.5 -22t76.5 -67q6 -8 8 -12v254zM-972 2591q0 -16 14 -28t29 -12q18 0 29.5 11.5
t11.5 28.5q0 19 -11.5 31t-29.5 12q-17 0 -30 -13.5t-13 -29.5z" />
    <glyph glyph-name="maitriupperleftthai" unicode="&#xf715;" 
d="M-250 3107v-383q0 -39 -8.5 -81t-25 -81.5t-41.5 -75.5t-57 -63h-136v354q0 25 -20.5 39.5t-49.5 14.5q-32 0 -52 -19l2 1q-19 -20 -19 -73h-151q-2 42 -23.5 66.5t-51.5 24.5t-50 -19t-20 -47v-12q5 1 11.5 1.5t12.5 0.5q37 0 69 -14.5t56 -39t37.5 -56.5t13.5 -66
t-16 -63.5t-41.5 -51t-56.5 -33.5t-62 -12q-37 0 -69 13.5t-55.5 36.5t-37 54.5t-13.5 67.5v174q0 46 18 86t48.5 69t70.5 45.5t84 16.5q46 0 84 -13.5t67 -38.5q26 24 63 38t81 14q57 0 103.5 -22t76.5 -67q6 -8 8 -12v254zM-972 2591q0 -16 14 -28t29 -12q18 0 29.5 11.5
t11.5 28.5q0 19 -11.5 31t-29.5 12q-17 0 -30 -13.5t-13 -29.5z" />
    <glyph glyph-name="maichattawaupperleftthai" 
d="M-4 2679h-307v-306h-143v306h-307v144h307v306h143v-306h307v-144z" />
    <glyph glyph-name="maichattawaupperleftthai" unicode="&#xf716;" 
d="M-4 2679h-307v-306h-143v306h-307v144h307v306h143v-306h307v-144z" />
    <glyph glyph-name="thanthakhatupperleftthai" 
d="M-321 2697q2 -2 3 -4t3 -5q21 -28 34 -62t13 -68q0 -17 -3.5 -34t-9.5 -36q-12 -31 -32 -55.5t-46 -41.5t-56 -26t-62 -9q-17 0 -35 2.5t-35 8.5q-30 10 -54.5 30.5t-42.5 47t-27.5 57.5t-9.5 62q0 17 4 35t10 35q17 42 44.5 68t59.5 46l494 219l58 -132zM-418 2540
q5 10 5 21q0 19 -12 35.5t-29 24.5q-11 4 -23 2.5t-23.5 -7.5t-21 -15.5t-14.5 -20.5q-5 -10 -3 -22t8 -22.5t15.5 -19.5t20.5 -13q7 -3 18 -3q20 0 36 10.5t22 27.5z" />
    <glyph glyph-name="thanthakhatupperleftthai" unicode="&#xf717;" 
d="M-321 2697q2 -2 3 -4t3 -5q21 -28 34 -62t13 -68q0 -17 -3.5 -34t-9.5 -36q-12 -31 -32 -55.5t-46 -41.5t-56 -26t-62 -9q-17 0 -35 2.5t-35 8.5q-30 10 -54.5 30.5t-42.5 47t-27.5 57.5t-9.5 62q0 17 4 35t10 35q17 42 44.5 68t59.5 46l494 219l58 -132zM-418 2540
q5 10 5 21q0 19 -12 35.5t-29 24.5q-11 4 -23 2.5t-23.5 -7.5t-21 -15.5t-14.5 -20.5q-5 -10 -3 -22t8 -22.5t15.5 -19.5t20.5 -13q7 -3 18 -3q20 0 36 10.5t22 27.5z" />
    </font>
</defs>
</svg>
